SplineFontDB: 3.2
FontName: OcodoMonoDotZero-Thin
FullName: OcodoMonoDotZero Thin
FamilyName: OcodoMonoDotZero-Thin
Weight: Thin
Copyright: Ocodo/Jason Milkins ocodo.github.io
Version: 1.52
ItalicAngle: 0
UnderlinePosition: -124
UnderlineWidth: 25
Ascent: 783
Descent: 217
InvalidEm: 0
sfntRevision: 0x00010000
LayerCount: 2
Layer: 0 1 "Back" 1
Layer: 1 1 "Fore" 0
XUID: [1021 515 1217653088 999156]
StyleMap: 0x0040
FSType: 0
OS2Version: 4
OS2_WeightWidthSlopeOnly: 0
OS2_UseTypoMetrics: 0
CreationTime: 1364125971
ModificationTime: 1752165932
PfmFamily: 49
TTFWeight: 100
TTFWidth: 5
LineGap: 200
VLineGap: 0
Panose: 2 0 4 9 2 2 2 2 2 4
OS2TypoAscent: 783
OS2TypoAOffset: 0
OS2TypoDescent: -217
OS2TypoDOffset: 0
OS2TypoLinegap: 200
OS2WinAscent: 963
OS2WinAOffset: 0
OS2WinDescent: 237
OS2WinDOffset: 0
HheadAscent: 783
HheadAOffset: 0
HheadDescent: -217
HheadDOffset: 0
OS2SubXSize: 700
OS2SubYSize: 650
OS2SubXOff: 0
OS2SubYOff: 140
OS2SupXSize: 700
OS2SupYSize: 650
OS2SupXOff: 0
OS2SupYOff: 477
OS2StrikeYSize: 25
OS2StrikeYPos: 250
OS2CapHeight: 696
OS2XHeight: 495
OS2Vendor: 'OCDO'
OS2CodePages: 00000093.00000000
OS2UnicodeRanges: 800000bf.5000204a.00000000.00000000
MarkAttachClasses: 1
DEI: 91125
TtTable: prep
PUSHW_1
 511
SCANCTRL
PUSHB_1
 1
SCANTYPE
SVTCA[y-axis]
MPPEM
PUSHB_1
 8
LT
IF
PUSHB_2
 1
 1
INSTCTRL
EIF
PUSHB_2
 70
 6
CALL
IF
POP
PUSHB_1
 16
EIF
MPPEM
PUSHB_1
 20
GT
IF
POP
PUSHB_1
 128
EIF
SCVTCI
PUSHB_1
 6
CALL
NOT
IF
EIF
PUSHB_1
 20
CALL
EndTTInstrs
TtTable: fpgm
PUSHB_1
 0
FDEF
PUSHB_1
 0
SZP0
MPPEM
PUSHB_1
 42
LT
IF
PUSHB_1
 74
SROUND
EIF
PUSHB_1
 0
SWAP
MIAP[rnd]
RTG
PUSHB_1
 6
CALL
IF
RTDG
EIF
MPPEM
PUSHB_1
 42
LT
IF
RDTG
EIF
DUP
MDRP[rp0,rnd,grey]
PUSHB_1
 1
SZP0
MDAP[no-rnd]
RTG
ENDF
PUSHB_1
 1
FDEF
DUP
MDRP[rp0,min,white]
PUSHB_1
 12
CALL
ENDF
PUSHB_1
 2
FDEF
MPPEM
GT
IF
RCVT
SWAP
EIF
POP
ENDF
PUSHB_1
 3
FDEF
ROUND[Black]
RTG
DUP
PUSHB_1
 64
LT
IF
POP
PUSHB_1
 64
EIF
ENDF
PUSHB_1
 4
FDEF
PUSHB_1
 6
CALL
IF
POP
SWAP
POP
ROFF
IF
MDRP[rp0,min,rnd,black]

StartChar: .notdef
Encoding: 65536 -1 0
Width: 550
GlyphClass: 1
Flags: W
LayerCount: 2
Fore
SplineSet
61 0 m 1,0,-1
 61 700 l 1,1,-1
 489 700 l 1,2,-1
 489 0 l 1,3,-1
 61 0 l 1,0,-1
290 350 m 1,4,-1
 469 27 l 1,5,-1
 469 677 l 1,6,-1
 290 350 l 1,4,-1
81 672 m 1,7,-1
 81 29 l 1,8,-1
 260 350 l 1,9,-1
 81 672 l 1,7,-1
275 369 m 1,10,-1
 445 679 l 1,11,-1
 105 679 l 1,12,-1
 275 369 l 1,10,-1
105 21 m 1,13,-1
 445 21 l 1,14,-1
 275 331 l 1,15,-1
 105 21 l 1,13,-1
EndSplineSet
EndChar

StartChar: exclam
Encoding: 33 33 4
Width: 550
GlyphClass: 2
Flags: W
HStem: 0 41<257 293> 676 20G<262 291>
VStem: 257 36<0 41 376.545 696> 268 16<194 696>
LayerCount: 2
Fore
SplineSet
284 194 m 1,0,-1
 268 194 l 1,1,-1
 262 696 l 1,2,-1
 291 696 l 1,3,-1
 284 194 l 1,0,-1
293 0 m 1,4,-1
 257 0 l 1,5,-1
 257 41 l 1,6,-1
 293 41 l 1,7,-1
 293 0 l 1,4,-1
EndSplineSet
EndChar

StartChar: quotedbl
Encoding: 34 34 5
Width: 550
GlyphClass: 2
Flags: W
HStem: 495 201<230.5 244.5 305.5 319.5>
VStem: 222.5 30<520.125 696> 230.5 14<495 670.875> 297.5 30<520.125 696> 305.5 14<495 670.875>
LayerCount: 2
Fore
SplineSet
222.5 696 m 1,0,-1
 252.5 696 l 1,1,-1
 244.5 495 l 1,2,-1
 230.5 495 l 1,3,-1
 222.5 696 l 1,0,-1
297.5 696 m 1,4,-1
 327.5 696 l 1,5,-1
 319.5 495 l 1,6,-1
 305.5 495 l 1,7,-1
 297.5 696 l 1,4,-1
EndSplineSet
EndChar

StartChar: numbersign
Encoding: 35 35 6
Width: 550
GlyphClass: 2
Flags: W
HStem: 0 21G<122.5 147.307 306.5 331.956> 228 18<55.5 155.5 178.5 337.5 359.5 464.5> 453 19<85.5 187.5 208.5 368.5 390.5 494.5> 675 20G<216.809 238.5 399.63 420.5>
LayerCount: 2
Fore
SplineSet
388.5 453 m 1,0,-1
 359.5 246 l 1,1,-1
 464.5 246 l 1,2,-1
 464.5 228 l 1,3,-1
 357.5 228 l 1,4,-1
 329.5 0 l 1,5,-1
 306.5 0 l 1,6,-1
 337.5 228 l 1,7,-1
 176.5 228 l 1,8,-1
 144.5 0 l 1,9,-1
 122.5 0 l 1,10,-1
 155.5 228 l 1,11,-1
 55.5 228 l 1,12,-1
 55.5 246 l 1,13,-1
 157.5 246 l 1,14,-1
 187.5 453 l 1,15,-1
 85.5 453 l 1,16,-1
 85.5 472 l 1,17,-1
 189.5 472 l 1,18,-1
 219.5 695 l 1,19,-1
 238.5 695 l 1,20,-1
 208.5 472 l 1,21,-1
 370.5 472 l 1,22,-1
 402.5 695 l 1,23,-1
 420.5 695 l 1,24,-1
 390.5 472 l 1,25,-1
 494.5 472 l 1,26,-1
 494.5 453 l 1,27,-1
 388.5 453 l 1,0,-1
206.5 453 m 1,28,-1
 178.5 246 l 1,29,-1
 339.5 246 l 1,30,-1
 368.5 453 l 1,31,-1
 206.5 453 l 1,28,-1
EndSplineSet
EndChar

StartChar: dollar
Encoding: 36 36 7
Width: 550
GlyphClass: 2
Flags: W
HStem: -2 24<176.129 229 320 364.742> 671 25<320 373.391>
VStem: 89 26<461.53 592.302> 229 21<-88 -1.14673 22 368.22 392 669 692.218 764> 299 21<-88 0.166016 23 339 360.886 671 694.773 764> 458 26<109.421 250.175>
LayerCount: 2
Fore
SplineSet
250 764 m 1,0,-1
 250 -88 l 1,1,-1
 229 -88 l 1,2,-1
 229 -2 l 1,3,4
 143 6 143 6 66 61 c 1,5,-1
 81 81 l 1,6,7
 153 31 153 31 229 22 c 1,8,-1
 229 365 l 1,9,10
 163 385 163 385 126 420.5 c 128,-1,11
 89 456 89 456 89 526 c 0,12,13
 89 592 89 592 126.5 638 c 128,-1,14
 164 684 164 684 229 694 c 1,15,-1
 229 764 l 1,16,-1
 250 764 l 1,0,-1
299 -88 m 1,17,-1
 299 764 l 1,18,-1
 320 764 l 1,19,-1
 320 696 l 1,20,21
 394 687 394 687 453 652 c 1,22,-1
 441 629 l 1,23,24
 382 662 382 662 320 671 c 1,25,-1
 320 364 l 1,26,27
 358 353 358 353 383.5 341 c 128,-1,28
 409 329 409 329 434 308.5 c 128,-1,29
 459 288 459 288 471.5 256 c 128,-1,30
 484 224 484 224 484 180 c 0,31,32
 484 108 484 108 440.5 57.5 c 128,-1,33
 397 7 397 7 320 -1 c 1,34,-1
 320 -88 l 1,35,-1
 299 -88 l 1,17,-1
458 178 m 0,36,37
 458 250 458 250 421.5 285 c 128,-1,38
 385 320 385 320 320 339 c 1,39,-1
 320 23 l 1,40,41
 385 31 385 31 421.5 72 c 128,-1,42
 458 113 458 113 458 178 c 0,36,37
115 524 m 0,43,44
 115 468 115 468 144 438 c 128,-1,45
 173 408 173 408 229 392 c 1,46,-1
 229 669 l 1,47,48
 180 660 180 660 147.5 623.5 c 128,-1,49
 115 587 115 587 115 524 c 0,43,44
EndSplineSet
EndChar

StartChar: percent
Encoding: 37 37 8
Width: 550
GlyphClass: 2
Flags: W
HStem: -11 24<355.326 450.595> 281 23<355.326 448.424> 391 24<97.326 192.595> 683 23<97.326 190.424>
VStem: 33.5 24<454.308 644.385> 228.5 24<452.332 645.558> 291.5 24<52.3076 242.385> 486.5 24<50.332 243.558>
LayerCount: 2
Fore
SplineSet
144.5 391 m 0,0,1
 97.5 391 97.5 391 65.5 417.5 c 128,-1,2
 33.5 444 33.5 444 33.5 492 c 2,3,-1
 33.5 606 l 2,4,5
 33.5 653 33.5 653 65.5 679.5 c 128,-1,6
 97.5 706 97.5 706 144.5 706 c 0,7,8
 190.5 706 190.5 706 221.5 679.5 c 128,-1,9
 252.5 653 252.5 653 252.5 606 c 2,10,-1
 252.5 492 l 2,11,12
 252.5 445 252.5 445 221.5 418 c 128,-1,13
 190.5 391 190.5 391 144.5 391 c 0,0,1
228.5 499 m 2,14,-1
 228.5 601 l 2,15,16
 228.5 637 228.5 637 205.5 660 c 128,-1,17
 182.5 683 182.5 683 144.5 683 c 0,18,19
 105.5 683 105.5 683 81.5 660 c 128,-1,20
 57.5 637 57.5 637 57.5 601 c 2,21,-1
 57.5 499 l 2,22,23
 57.5 463 57.5 463 81.5 439 c 128,-1,24
 105.5 415 105.5 415 144.5 415 c 0,25,26
 185.5 415 185.5 415 207 438.5 c 128,-1,27
 228.5 462 228.5 462 228.5 499 c 2,14,-1
47.5 -17 m 1,28,-1
 22.5 -17 l 1,29,-1
 500.5 714 l 1,30,-1
 527.5 714 l 1,31,-1
 47.5 -17 l 1,28,-1
402.5 -11 m 0,32,33
 355.5 -11 355.5 -11 323.5 15.5 c 128,-1,34
 291.5 42 291.5 42 291.5 90 c 2,35,-1
 291.5 204 l 2,36,37
 291.5 251 291.5 251 323.5 277.5 c 128,-1,38
 355.5 304 355.5 304 402.5 304 c 0,39,40
 448.5 304 448.5 304 479.5 277.5 c 128,-1,41
 510.5 251 510.5 251 510.5 204 c 2,42,-1
 510.5 90 l 2,43,44
 510.5 43 510.5 43 479.5 16 c 128,-1,45
 448.5 -11 448.5 -11 402.5 -11 c 0,32,33
486.5 97 m 2,46,-1
 486.5 199 l 2,47,48
 486.5 235 486.5 235 463.5 258 c 128,-1,49
 440.5 281 440.5 281 402.5 281 c 0,50,51
 363.5 281 363.5 281 339.5 258 c 128,-1,52
 315.5 235 315.5 235 315.5 199 c 2,53,-1
 315.5 97 l 2,54,55
 315.5 61 315.5 61 339.5 37 c 128,-1,56
 363.5 13 363.5 13 402.5 13 c 0,57,58
 443.5 13 443.5 13 465 36.5 c 128,-1,59
 486.5 60 486.5 60 486.5 97 c 2,46,-1
EndSplineSet
EndChar

StartChar: ampersand
Encoding: 38 38 9
Width: 550
GlyphClass: 2
Flags: W
HStem: -6 23<143.5 276.102> 680 26<177.03 311.493>
VStem: 24.5 26<99.8969 226.72> 93.5 28<519.096 624.292> 451.5 26<206.051 288>
LayerCount: 2
Fore
SplineSet
182.5 397 m 1,0,-1
 160.5 425 l 2,1,2
 93.5 513 93.5 513 93.5 572 c 0,3,4
 93.5 626 93.5 626 130 666 c 128,-1,5
 166.5 706 166.5 706 239.5 706 c 0,6,7
 332.5 706 332.5 706 385.5 657 c 1,8,-1
 365.5 635 l 1,9,10
 313.5 680 313.5 680 240.5 680 c 0,11,12
 177.5 680 177.5 680 149.5 645.5 c 128,-1,13
 121.5 611 121.5 611 121.5 572 c 0,14,15
 121.5 519 121.5 519 198.5 419 c 2,16,-1
 413.5 138 l 1,17,18
 447.5 194 447.5 194 451.5 288 c 1,19,-1
 477.5 288 l 1,20,21
 469.5 188 469.5 188 432.5 117 c 1,22,-1
 525.5 0 l 1,23,-1
 489.5 0 l 1,24,-1
 416.5 95 l 1,25,26
 329.5 -6 329.5 -6 205.5 -6 c 0,27,28
 126.5 -6 126.5 -6 75.5 38 c 128,-1,29
 24.5 82 24.5 82 24.5 160 c 0,30,31
 24.5 288 24.5 288 182.5 397 c 1,0,-1
198.5 375 m 1,32,33
 50.5 278 50.5 278 50.5 164 c 0,34,35
 50.5 93 50.5 93 97.5 55 c 128,-1,36
 144.5 17 144.5 17 206.5 17 c 0,37,38
 318.5 17 318.5 17 396.5 115 c 1,39,-1
 198.5 375 l 1,32,33
EndSplineSet
EndChar

StartChar: quotesingle
Encoding: 39 39 10
Width: 550
GlyphClass: 2
Flags: W
HStem: 495 201<268 282>
VStem: 260 30<520.125 696> 268 14<495 670.875>
LayerCount: 2
Fore
SplineSet
260 696 m 1,0,-1
 290 696 l 1,1,-1
 282 495 l 1,2,-1
 268 495 l 1,3,-1
 260 696 l 1,0,-1
EndSplineSet
EndChar

StartChar: parenleft
Encoding: 40 40 11
Width: 550
GlyphClass: 2
Flags: W
VStem: 215.146 26<-2.42326 86 525 606.755>
LayerCount: 2
Fore
SplineSet
334.853515625 -96.5830078125 m 1,0,1
 312.146484375 -85 312.146484375 -85 294.685546875 -68.052734375 c 0,2,3
 241.146484375 -16 241.146484375 -16 241.146484375 81 c 2,4,5
 241.146484375 81 241.146484375 81 241.146484375 525 c 2,6,7
 241.146484375 622 241.146484375 622 295.498046875 674.358398438 c 0,8,9
 312.146484375 691 312.146484375 691 334.3125 702.116210938 c 1,10,11
 320.821289062 722.196289062 320.821289062 722.196289062 320.821289062 722.196289062 c 1,12,13
 296.146484375 709 296.146484375 709 276.208984375 690.076171875 c 0,14,15
 215.146484375 631 215.146484375 631 215.146484375 527 c 2,16,17
 215.146484375 527 215.146484375 527 215.146484375 86 c 2,18,19
 215.146484375 -24 215.146484375 -24 273.7734375 -83.119140625 c 0,20,21
 295.146484375 -105 295.146484375 -105 323.845703125 -118.599609375 c 1,22,23
 323.845703125 -118.599609375 323.845703125 -118.599609375 334.853515625 -96.5830078125 c 1,0,1
323.884765625 696.428710938 m 1032,24,-1
EndSplineSet
EndChar

StartChar: parenright
Encoding: 41 41 12
Width: 550
GlyphClass: 2
Flags: W
HStem: 702.196 20G<229.179 241.517>
VStem: 308.854 26<-2.42326 606.755>
LayerCount: 2
Fore
SplineSet
215.146484375 -96.5830078125 m 1,0,1
 237.853515625 -85 237.853515625 -85 255.314453125 -68.052734375 c 0,2,3
 308.853515625 -16 308.853515625 -16 308.853515625 81 c 2,4,5
 308.853515625 81 308.853515625 81 308.853515625 525 c 2,6,7
 308.853515625 622 308.853515625 622 254.501953125 674.358398438 c 0,8,9
 237.853515625 691 237.853515625 691 215.688476562 702.116210938 c 1,10,11
 229.1796875 722.196289062 229.1796875 722.196289062 229.1796875 722.196289062 c 1,12,13
 253.853515625 709 253.853515625 709 273.791015625 690.076171875 c 0,14,15
 334.853515625 631 334.853515625 631 334.853515625 527 c 2,16,17
 334.853515625 527 334.853515625 527 334.853515625 86 c 2,18,19
 334.853515625 -24 334.853515625 -24 276.227539062 -83.119140625 c 0,20,21
 254.853515625 -105 254.853515625 -105 226.154296875 -118.599609375 c 1,22,23
 226.154296875 -118.599609375 226.154296875 -118.599609375 215.146484375 -96.5830078125 c 1,0,1
226.115234375 696.428710938 m 1032,24,-1
EndSplineSet
EndChar

StartChar: asterisk
Encoding: 42 42 13
Width: 550
GlyphClass: 2
Flags: W
HStem: 430 264
VStem: 260.5 28<567 694>
LayerCount: 2
Fore
SplineSet
290.5 549 m 1,0,-1
 372.5 450 l 1,1,-1
 347.5 430 l 1,2,-1
 274.5 541 l 1,3,-1
 204.5 430 l 1,4,-1
 179.5 450 l 1,5,-1
 258.5 549 l 1,6,-1
 135.5 587 l 1,7,-1
 145.5 617 l 1,8,-1
 266.5 567 l 1,9,-1
 260.5 694 l 1,10,-1
 288.5 694 l 1,11,-1
 281.5 567 l 1,12,-1
 404.5 617 l 1,13,-1
 414.5 587 l 1,14,-1
 290.5 549 l 1,0,-1
EndSplineSet
EndChar

StartChar: plus
Encoding: 43 43 14
Width: 550
GlyphClass: 2
Flags: W
HStem: 261 24<75.5 263.5 286.5 474.5>
VStem: 263.5 23<65 261 285 478>
LayerCount: 2
Fore
SplineSet
286.5 261 m 1,0,-1
 286.5 65 l 1,1,-1
 263.5 65 l 1,2,-1
 263.5 261 l 1,3,-1
 75.5 261 l 1,4,-1
 75.5 285 l 1,5,-1
 263.5 285 l 1,6,-1
 263.5 478 l 1,7,-1
 286.5 478 l 1,8,-1
 286.5 285 l 1,9,-1
 474.5 285 l 1,10,-1
 474.5 261 l 1,11,-1
 286.5 261 l 1,0,-1
EndSplineSet
EndChar

StartChar: comma
Encoding: 44 44 15
Width: 550
GlyphClass: 2
Flags: W
HStem: 0 48<260.5 271.5>
VStem: 260.5 43<0 48>
LayerCount: 2
Fore
SplineSet
265.5 -102 m 1,0,-1
 246.5 -102 l 1,1,-1
 271.5 0 l 1,2,-1
 260.5 0 l 1,3,-1
 260.5 48 l 1,4,-1
 303.5 48 l 1,5,-1
 303.5 -3 l 1,6,-1
 265.5 -102 l 1,0,-1
EndSplineSet
EndChar

StartChar: hyphen
Encoding: 45 45 16
Width: 550
GlyphClass: 2
Flags: W
HStem: 253 26<149.5 400.5>
VStem: 149.5 251<253 279>
LayerCount: 2
Fore
SplineSet
149.5 253 m 1,0,-1
 149.5 279 l 1,1,-1
 400.5 279 l 1,2,-1
 400.5 253 l 1,3,-1
 149.5 253 l 1,0,-1
EndSplineSet
EndChar

StartChar: period
Encoding: 46 46 17
Width: 550
GlyphClass: 2
Flags: W
HStem: 0 47<254.5 295.5>
VStem: 254.5 41<0 47>
LayerCount: 2
Fore
SplineSet
295.5 0 m 1,0,-1
 254.5 0 l 1,1,-1
 254.5 47 l 1,2,-1
 295.5 47 l 1,3,-1
 295.5 0 l 1,0,-1
EndSplineSet
EndChar

StartChar: slash
Encoding: 47 47 18
Width: 550
GlyphClass: 2
Flags: W
LayerCount: 2
Fore
SplineSet
75 -17 m 1,0,-1
 50 -17 l 1,1,-1
 473 714 l 1,2,-1
 500 714 l 1,3,-1
 75 -17 l 1,0,-1
EndSplineSet
EndChar

StartChar: zero
Encoding: 48 48 19
Width: 550
GlyphClass: 2
Flags: W
HStem: -7 27<219.158 332.698> 674 27<218.918 332.698>
VStem: 80.5 27<136.908 557.83> 260.5 30<250 439> 442.5 27<137.77 557.98>
LayerCount: 2
Fore
SplineSet
260.5 439 m 5,0,-1
 290.5 439 l 5,1,-1
 290.5 250 l 5,2,-1
 260.5 250 l 5,3,-1
 260.5 439 l 5,0,-1
276.5 701 m 4,4,5
 344.5 701 344.5 701 407 644 c 132,-1,6
 469.5 587 469.5 587 469.5 478 c 6,7,-1
 469.5 223 l 6,8,9
 469.5 108 469.5 108 407 50.5 c 132,-1,10
 344.5 -7 344.5 -7 276.5 -7 c 4,11,12
 200.5 -7 200.5 -7 140.5 53.5 c 132,-1,13
 80.5 114 80.5 114 80.5 223 c 6,14,-1
 80.5 478 l 6,15,16
 80.5 582 80.5 582 142 641.5 c 132,-1,17
 203.5 701 203.5 701 276.5 701 c 4,4,5
277.5 674 m 4,18,19
 217.5 674 217.5 674 162.5 623 c 132,-1,20
 107.5 572 107.5 572 107.5 476 c 6,21,-1
 107.5 218 l 6,22,23
 107.5 124 107.5 124 162.5 72 c 132,-1,24
 217.5 20 217.5 20 277.5 20 c 4,25,26
 332.5 20 332.5 20 387.5 71.5 c 132,-1,27
 442.5 123 442.5 123 442.5 224 c 6,28,-1
 442.5 476 l 6,29,30
 442.5 572 442.5 572 387.5 623 c 132,-1,31
 332.5 674 332.5 674 277.5 674 c 4,18,19
EndSplineSet
EndChar

StartChar: one
Encoding: 49 49 20
Width: 550
GlyphClass: 2
Flags: W
HStem: 0 21G<340.5 365.5> 676 20G<302.151 365.5>
VStem: 340.5 25<0 666>
LayerCount: 2
Fore
SplineSet
340.5 0 m 1,0,-1
 340.5 24 l 1,1,-1
 340.5 34 l 1,2,-1
 340.5 666 l 1,3,-1
 184.5 583 l 1,4,-1
 184.5 613 l 1,5,-1
 339.5 696 l 1,6,-1
 365.5 696 l 1,7,-1
 365.5 29 l 1,8,-1
 365.5 24 l 1,9,-1
 365.5 0 l 1,10,-1
 340.5 0 l 1,0,-1
EndSplineSet
EndChar

StartChar: two
Encoding: 50 50 21
Width: 550
GlyphClass: 2
Flags: W
HStem: 0 24<121 459> 675 24<214.977 344.457>
VStem: 429 27<463.289 596.058>
LayerCount: 2
Fore
SplineSet
125 567 m 1,0,-1
 100 573 l 1,1,2
 117 629 117 629 166.5 664 c 128,-1,3
 216 699 216 699 275 699 c 0,4,5
 360 699 360 699 408 652 c 128,-1,6
 456 605 456 605 456 537 c 0,7,8
 456 464 456 464 411 405 c 2,9,-1
 121 24 l 1,10,-1
 459 24 l 1,11,-1
 459 0 l 1,12,-1
 91 0 l 1,13,-1
 91 25 l 1,14,-1
 390 417 l 2,15,16
 429 469 429 469 429 534 c 0,17,18
 429 595 429 595 388 635 c 128,-1,19
 347 675 347 675 275 675 c 0,20,21
 224 675 224 675 182.5 645.5 c 128,-1,22
 141 616 141 616 125 567 c 1,0,-1
EndSplineSet
EndChar

StartChar: three
Encoding: 51 51 22
Width: 550
GlyphClass: 2
Flags: W
HStem: -6 21<195.937 323.698> 349 24<241.5 334.885> 681 21<206.783 324.935>
VStem: 422.5 26<455.236 587.969> 434.5 25<115.368 257.745>
LayerCount: 2
Fore
SplineSet
335.5 364 m 1,0,-1
 335.5 361 l 1,1,2
 403.5 346 403.5 346 431.5 294 c 128,-1,3
 459.5 242 459.5 242 459.5 189 c 0,4,5
 459.5 100 459.5 100 404.5 47 c 128,-1,6
 349.5 -6 349.5 -6 256.5 -6 c 0,7,8
 123.5 -6 123.5 -6 90.5 101 c 1,9,-1
 115.5 105 l 1,10,11
 130.5 64 130.5 64 167 39.5 c 128,-1,12
 203.5 15 203.5 15 258.5 15 c 0,13,14
 334.5 15 334.5 15 384.5 61 c 128,-1,15
 434.5 107 434.5 107 434.5 185 c 0,16,17
 434.5 262 434.5 262 392 305.5 c 128,-1,18
 349.5 349 349.5 349 283.5 349 c 2,19,-1
 241.5 349 l 1,20,-1
 241.5 373 l 1,21,-1
 275.5 373 l 2,22,23
 338.5 373 338.5 373 380.5 413.5 c 128,-1,24
 422.5 454 422.5 454 422.5 521 c 0,25,26
 422.5 590 422.5 590 379 635.5 c 128,-1,27
 335.5 681 335.5 681 262.5 681 c 0,28,29
 216.5 681 216.5 681 175.5 655 c 128,-1,30
 134.5 629 134.5 629 120.5 586 c 1,31,-1
 96.5 591 l 1,32,33
 114.5 643 114.5 643 159.5 672.5 c 128,-1,34
 204.5 702 204.5 702 264.5 702 c 0,35,36
 353.5 702 353.5 702 401 650 c 128,-1,37
 448.5 598 448.5 598 448.5 523 c 0,38,39
 448.5 502 448.5 502 444 481 c 128,-1,40
 439.5 460 439.5 460 428.5 435.5 c 128,-1,41
 417.5 411 417.5 411 393.5 391.5 c 128,-1,42
 369.5 372 369.5 372 335.5 364 c 1,0,-1
EndSplineSet
EndChar

StartChar: four
Encoding: 52 52 23
Width: 550
GlyphClass: 2
Flags: W
HStem: 0 21G<390 415> 115 24<96 390 415 478> 676 20G<314.968 353>
VStem: 390 25<0 115 139 359>
LayerCount: 2
Fore
SplineSet
415 115 m 1,0,-1
 415 0 l 1,1,-1
 390 0 l 1,2,-1
 390 115 l 1,3,-1
 72 115 l 1,4,-1
 72 138 l 1,5,-1
 324 696 l 1,6,-1
 353 696 l 1,7,-1
 96 139 l 1,8,-1
 390 139 l 1,9,-1
 390 359 l 1,10,-1
 415 359 l 1,11,-1
 415 139 l 1,12,-1
 478 139 l 1,13,-1
 478 115 l 1,14,-1
 415 115 l 1,0,-1
EndSplineSet
EndChar

StartChar: five
Encoding: 53 53 24
Width: 550
GlyphClass: 2
Flags: W
HStem: -6 21<204.551 332.678> 437 21<217.915 335.935> 672 24<128 429>
VStem: 105 23<396 672> 428 23<107.516 345.562>
LayerCount: 2
Fore
SplineSet
99 101 m 1,0,-1
 120 108 l 1,1,2
 136 65 136 65 174.5 40 c 128,-1,3
 213 15 213 15 269 15 c 0,4,5
 342 15 342 15 385 59 c 128,-1,6
 428 103 428 103 428 172 c 2,7,-1
 428 280 l 2,8,9
 428 350 428 350 388 393.5 c 128,-1,10
 348 437 348 437 269 437 c 0,11,12
 234 437 234 437 190.5 414.5 c 128,-1,13
 147 392 147 392 127 363 c 1,14,-1
 105 363 l 1,15,-1
 105 696 l 1,16,-1
 429 696 l 1,17,-1
 429 672 l 1,18,-1
 128 672 l 1,19,-1
 128 396 l 1,20,21
 190 458 190 458 277 458 c 0,22,23
 367 458 367 458 409 408 c 128,-1,24
 451 358 451 358 451 275 c 2,25,-1
 451 182 l 2,26,27
 451 97 451 97 404 45.5 c 128,-1,28
 357 -6 357 -6 266 -6 c 0,29,30
 139 -6 139 -6 99 101 c 1,0,-1
EndSplineSet
EndChar

StartChar: six
Encoding: 54 54 25
Width: 550
GlyphClass: 2
Flags: W
HStem: -6 20<215.872 330.2> 363 21<215.507 334.077> 676 20G<307.975 344>
VStem: 94 23<116.579 260.711> 433 23<119.679 264.447>
LayerCount: 2
Fore
SplineSet
277 384 m 0,0,1
 349 384 349 384 402.5 335 c 128,-1,2
 456 286 456 286 456 200 c 0,3,4
 456 97 456 97 401.5 45.5 c 128,-1,5
 347 -6 347 -6 278 -6 c 0,6,7
 200 -6 200 -6 147 44 c 128,-1,8
 94 94 94 94 94 188 c 0,9,10
 94 250 94 250 119 299 c 2,11,-1
 318 696 l 1,12,-1
 344 696 l 1,13,-1
 168 347 l 1,14,-1
 169 345 l 1,15,16
 211 384 211 384 277 384 c 0,0,1
275 363 m 0,17,18
 206 363 206 363 161.5 316 c 128,-1,19
 117 269 117 269 117 190 c 128,-1,20
 117 111 117 111 159.5 62.5 c 128,-1,21
 202 14 202 14 275 14 c 0,22,23
 341 14 341 14 387 61.5 c 128,-1,24
 433 109 433 109 433 199 c 0,25,26
 433 272 433 272 388 317.5 c 128,-1,27
 343 363 343 363 275 363 c 0,17,18
EndSplineSet
EndChar

StartChar: seven
Encoding: 55 55 26
Width: 550
GlyphClass: 2
Flags: W
HStem: 0 21G<170.5 205.208> 672 24<93.5 431.5>
LayerCount: 2
Fore
SplineSet
93.5 672 m 1,0,1
 93.5 672 93.5 672 93.5 696 c 1,2,-1
 456.5 696 l 1,3,-1
 456.5 672 l 1,4,-1
 197.5 0 l 1,5,-1
 170.5 0 l 1,6,-1
 431.5 672 l 1,7,-1
 93.5 672 l 1,0,1
EndSplineSet
EndChar

StartChar: eight
Encoding: 56 56 27
Width: 550
GlyphClass: 2
Flags: W
HStem: -6 19<219.626 330.374> 350 20<215.464 334.536> 681 19<220.054 330.485>
VStem: 80 23<122.996 246.147> 94 23<459.001 585.828> 433 23<459.243 585.113> 447 23<122.996 246.653>
LayerCount: 2
Fore
SplineSet
470 184 m 0,0,1
 470 101 470 101 413.5 47.5 c 128,-1,2
 357 -6 357 -6 275 -6 c 128,-1,3
 193 -6 193 -6 136.5 47.5 c 128,-1,4
 80 101 80 101 80 184 c 0,5,6
 80 236 80 236 111 287 c 128,-1,7
 142 338 142 338 205 359 c 1,8,9
 144 381 144 381 119 426 c 128,-1,10
 94 471 94 471 94 520 c 0,11,12
 94 596 94 596 146 648 c 128,-1,13
 198 700 198 700 275 700 c 0,14,15
 354 700 354 700 405 648.5 c 128,-1,16
 456 597 456 597 456 520 c 0,17,18
 456 403 456 403 341 359 c 1,19,20
 407 340 407 340 438.5 288.5 c 128,-1,21
 470 237 470 237 470 184 c 0,0,1
275 681 m 128,-1,23
 212 681 212 681 164.5 638 c 128,-1,24
 117 595 117 595 117 522 c 128,-1,25
 117 449 117 449 164 409.5 c 128,-1,26
 211 370 211 370 275 370 c 128,-1,27
 339 370 339 370 386 409 c 128,-1,28
 433 448 433 448 433 522 c 0,29,30
 433 595 433 595 385.5 638 c 128,-1,22
 338 681 338 681 275 681 c 128,-1,23
275 350 m 128,-1,32
 205 350 205 350 154 303.5 c 128,-1,33
 103 257 103 257 103 185 c 128,-1,34
 103 113 103 113 154.5 63 c 128,-1,35
 206 13 206 13 275 13 c 128,-1,36
 344 13 344 13 395.5 63 c 128,-1,37
 447 113 447 113 447 185 c 128,-1,38
 447 257 447 257 396 303.5 c 128,-1,31
 345 350 345 350 275 350 c 128,-1,32
EndSplineSet
EndChar

StartChar: nine
Encoding: 57 57 28
Width: 550
GlyphClass: 2
Flags: W
HStem: 0 21G<206 242.025> 312 21<216.928 333.886> 683 19<221.634 331.161>
VStem: 94 23<435.521 577.41> 433 23<435.289 577.337>
LayerCount: 2
Fore
SplineSet
273 312 m 0,0,1
 201 312 201 312 147.5 362.5 c 128,-1,2
 94 413 94 413 94 502 c 0,3,4
 94 602 94 602 149 652 c 128,-1,5
 204 702 204 702 274 702 c 0,6,7
 355 702 355 702 405.5 650 c 128,-1,8
 456 598 456 598 456 508 c 0,9,10
 456 446 456 446 431 397 c 2,11,-1
 232 0 l 1,12,-1
 206 0 l 1,13,-1
 378 341 l 1,14,-1
 377 342 l 1,15,16
 329 312 329 312 273 312 c 0,0,1
275 333 m 0,17,18
 344 333 344 333 388.5 380 c 128,-1,19
 433 427 433 427 433 506 c 128,-1,20
 433 585 433 585 389.5 634 c 128,-1,21
 346 683 346 683 275 683 c 0,22,23
 210 683 210 683 163.5 635.5 c 128,-1,24
 117 588 117 588 117 506 c 0,25,26
 117 427 117 427 162 380 c 128,-1,27
 207 333 207 333 275 333 c 0,17,18
EndSplineSet
EndChar

StartChar: colon
Encoding: 58 58 29
Width: 550
GlyphClass: 2
Flags: W
HStem: 0 47<254.5 295.5> 325 47<254.5 295.5>
VStem: 254.5 41<0 47 325 372>
LayerCount: 2
Fore
SplineSet
295.5 325 m 1,0,-1
 254.5 325 l 1,1,-1
 254.5 372 l 1,2,-1
 295.5 372 l 1,3,-1
 295.5 325 l 1,0,-1
295.5 0 m 1,4,-1
 254.5 0 l 1,5,-1
 254.5 47 l 1,6,-1
 295.5 47 l 1,7,-1
 295.5 0 l 1,4,-1
EndSplineSet
EndChar

StartChar: semicolon
Encoding: 59 59 30
Width: 550
GlyphClass: 2
Flags: W
HStem: 0 48<260.5 271.5> 325 47<260.5 301.5>
VStem: 260.5 43<0 48 325 372>
LayerCount: 2
Fore
SplineSet
265.5 -102 m 1,0,-1
 246.5 -102 l 1,1,-1
 271.5 0 l 1,2,-1
 260.5 0 l 1,3,-1
 260.5 48 l 1,4,-1
 303.5 48 l 1,5,-1
 303.5 -3 l 1,6,-1
 265.5 -102 l 1,0,-1
301.5 325 m 1,7,-1
 260.5 325 l 1,8,-1
 260.5 372 l 1,9,-1
 301.5 372 l 1,10,-1
 301.5 325 l 1,7,-1
EndSplineSet
EndChar

StartChar: less
Encoding: 60 60 31
Width: 550
GlyphClass: 2
Flags: W
LayerCount: 2
Fore
SplineSet
472.5 456 m 1,0,-1
 472.5 430 l 1,1,-1
 103.5 272 l 1,2,-1
 474.5 116 l 1,3,-1
 474.5 88 l 1,4,-1
 75.5 261 l 1,5,-1
 75.5 285 l 1,6,-1
 472.5 456 l 1,0,-1
EndSplineSet
EndChar

StartChar: equal
Encoding: 61 61 32
Width: 550
GlyphClass: 2
Flags: W
HStem: 162 24<75.5 474.5> 331 23<75.5 474.5>
LayerCount: 2
Fore
SplineSet
75.5 331 m 1,0,-1
 75.5 354 l 1,1,-1
 474.5 354 l 1,2,-1
 474.5 331 l 1,3,-1
 75.5 331 l 1,0,-1
75.5 162 m 1,4,-1
 75.5 186 l 1,5,-1
 474.5 186 l 1,6,-1
 474.5 162 l 1,7,-1
 75.5 162 l 1,4,-1
EndSplineSet
EndChar

StartChar: greater
Encoding: 62 62 33
Width: 550
GlyphClass: 2
Flags: W
LayerCount: 2
Fore
SplineSet
77.5 430 m 1,0,-1
 77.5 456 l 1,1,-1
 474.5 285 l 1,2,-1
 474.5 261 l 1,3,-1
 75.5 88 l 1,4,-1
 75.5 116 l 1,5,-1
 446.5 272 l 1,6,-1
 77.5 430 l 1,0,-1
EndSplineSet
EndChar

StartChar: question
Encoding: 63 63 34
Width: 550
GlyphClass: 2
Flags: W
HStem: 0 43<261.5 299.5> 680 22<221.254 342.932>
VStem: 261.5 38<0 43> 265.5 25<149 272.454> 431.5 24<479.194 589.532>
LayerCount: 2
Fore
SplineSet
119.5 540 m 1,0,-1
 94.5 545 l 1,1,2
 112.5 618 112.5 618 164 660 c 128,-1,3
 215.5 702 215.5 702 281.5 702 c 0,4,5
 358.5 702 358.5 702 407 654.5 c 128,-1,6
 455.5 607 455.5 607 455.5 534 c 0,7,8
 455.5 500 455.5 500 441 467 c 128,-1,9
 426.5 434 426.5 434 413.5 417.5 c 128,-1,10
 400.5 401 400.5 401 371.5 369 c 0,11,12
 346.5 341 346.5 341 333.5 325 c 128,-1,13
 320.5 309 320.5 309 306.5 280.5 c 128,-1,14
 292.5 252 292.5 252 290.5 223 c 2,15,-1
 290.5 149 l 1,16,-1
 265.5 149 l 1,17,-1
 265.5 225 l 2,18,19
 265.5 266 265.5 266 288.5 303.5 c 128,-1,20
 311.5 341 311.5 341 352.5 384 c 0,21,22
 431.5 468 431.5 468 431.5 529 c 0,23,24
 431.5 586 431.5 586 394 633 c 128,-1,25
 356.5 680 356.5 680 277.5 680 c 0,26,27
 215.5 680 215.5 680 171 634.5 c 128,-1,28
 126.5 589 126.5 589 119.5 540 c 1,0,-1
299.5 0 m 1,29,-1
 261.5 0 l 1,30,-1
 261.5 43 l 1,31,-1
 299.5 43 l 1,32,-1
 299.5 0 l 1,29,-1
EndSplineSet
EndChar

StartChar: at
Encoding: 64 64 35
Width: 550
GlyphClass: 2
Flags: W
HStem: 8 31<270.143 442.883> 467 31<281.699 432.504> 665 31<134.015 424.889>
VStem: 16 31<79.1309 580.656> 170 31<113.031 380.715> 503 31<10.0117 58 89.7656 397.547 435.015 593.477>
LayerCount: 2
Back
SplineSet
534 10 m 1,0,-1
 502 10 l 25,1,2
 503 10 503 10 503 58 c 1,3,4
 449 8 449 8 397 8 c 2,5,6
 397 8 397 8 302 8 c 0,7,8
 267 8 267 8 208 65 c 0,9,10
 170 101 170 101 170 208 c 2,11,12
 170 208 170 208 170 293 c 128,-1,13
 170 378 170 378 218 438 c 128,-1,14
 266 498 266 498 328 498 c 2,15,16
 328 498 328 498 396 498 c 0,17,18
 458 498 458 498 497 441 c 0,19,20
 501 435 501 435 502 435 c 144,-1,21
 503 435 503 435 503 498 c 0,22,23
 504 586 504 586 470 620 c 0,24,25
 424 665 424 665 343 665 c 2,26,27
 343 665 343 665 213 665 c 0,28,29
 134 665 134 665 89 619 c 0,30,31
 65 594 65 594 56 567.5 c 0,32,33
 47 542 47 542 47 520 c 2,34,35
 47 520 47 520 47 161 c 0,36,37
 47 112 47 112 58 87.5 c 128,-1,38
 69 63 69 63 99 39 c 1,39,40
 99 39 99 39 81 7 c 1,41,42
 45 40 45 40 30.5 67.5 c 128,-1,43
 16 95 16 95 16 160 c 2,44,45
 16 160 16 160 16 496 c 0,46,47
 16 585 16 585 70.5 640.5 c 128,-1,48
 125 696 125 696 207 696 c 2,49,50
 207 696 207 696 356 696 c 0,51,52
 437 696 437 696 496 639 c 0,53,54
 534 603 534 603 534 496 c 2,55,56
 534 496 534 496 534 10 c 1024,57,-1
503 308 m 0,58,59
 503 391 503 391 471 422 c 0,60,61
 425 467 425 467 383 467 c 2,62,63
 383 467 383 467 327 467 c 0,64,65
 288 467 288 467 244 421 c 0,66,67
 220 396 220 396 210.5 368 c 128,-1,68
 201 340 201 340 201 320 c 2,69,70
 201 320 201 320 201 218.5 c 128,-1,71
 201 117 201 117 234 84 c 0,72,73
 280 39 280 39 311 39 c 2,74,75
 311 39 311 39 399 39 c 0,76,77
 447 39 447 39 502 95 c 1,78,79
 502 95 502 95 503 308 c 1048,80,-1
EndSplineSet
Fore
SplineSet
534 10 m 1,0,-1
 502 10 l 25,1,2
 503 10 503 10 503 58 c 1,3,4
 449 8 449 8 397 8 c 2,5,6
 397 8 397 8 302 8 c 4,7,8
 267 8 267 8 208 65 c 4,9,10
 170 101 170 101 170 208 c 6,11,12
 170 208 170 208 170 293 c 132,-1,13
 170 378 170 378 218 438 c 132,-1,14
 266 498 266 498 328 498 c 6,15,16
 328 498 328 498 396 498 c 0,17,18
 458 498 458 498 497 441 c 0,19,20
 501 435 501 435 502 435 c 144,-1,21
 503 435 503 435 503 498 c 0,22,23
 504 586 504 586 470 620 c 0,24,25
 424 665 424 665 343 665 c 2,26,27
 343 665 343 665 213 665 c 0,28,29
 134 665 134 665 89 619 c 0,30,31
 65 594 65 594 56 567.5 c 0,32,33
 47 542 47 542 47 520 c 2,34,35
 47 520 47 520 47 161 c 0,36,37
 47 112 47 112 58 87.5 c 128,-1,38
 69 63 69 63 99 39 c 1,39,40
 99 39 99 39 81 7 c 1,41,42
 45 40 45 40 30.5 67.5 c 128,-1,43
 16 95 16 95 16 160 c 2,44,45
 16 160 16 160 16 496 c 0,46,47
 16 585 16 585 70.5 640.5 c 128,-1,48
 125 696 125 696 207 696 c 2,49,50
 207 696 207 696 356 696 c 0,51,52
 437 696 437 696 496 639 c 0,53,54
 534 603 534 603 534 496 c 2,55,56
 534 496 534 496 534 10 c 1,0,-1
503 308 m 16,57,58
 503 391 503 391 471 422 c 0,59,60
 425 467 425 467 383 467 c 2,61,62
 383 467 383 467 327 467 c 4,63,64
 288 467 288 467 244 421 c 4,65,66
 220 396 220 396 210.5 368 c 132,-1,67
 201 340 201 340 201 320 c 6,68,69
 201 320 201 320 201 218.5 c 132,-1,70
 201 117 201 117 234 84 c 4,71,72
 280 39 280 39 311 39 c 6,73,74
 311 39 311 39 399 39 c 0,75,76
 439 39 439 39 502 103 c 1,77,78
 502 103 502 103 503 308 c 16,57,58
EndSplineSet
EndChar

StartChar: A
Encoding: 65 65 36
Width: 550
GlyphClass: 2
Flags: W
HStem: 0 21G<14 48.9714 499.143 536> 175 25<111 437> 676 20G<250.017 299.983>
LayerCount: 2
Fore
SplineSet
506 0 m 1,0,-1
 446 175 l 1,1,-1
 103 175 l 1,2,-1
 42 0 l 1,3,-1
 14 0 l 1,4,-1
 257 696 l 1,5,-1
 293 696 l 1,6,-1
 536 0 l 1,7,-1
 506 0 l 1,0,-1
274 670 m 1,8,-1
 211 489 l 1,9,-1
 111 200 l 1,10,-1
 437 200 l 1,11,-1
 276 670 l 1,12,-1
 274 670 l 1,8,-1
EndSplineSet
EndChar

StartChar: B
Encoding: 66 66 37
Width: 550
GlyphClass: 2
Flags: W
HStem: 0 24<74 375.675> 351 24<74 367.225> 672 24<74 361.174>
VStem: 48 26<24 351 375 672> 460 26<461.733 586.288> 473 29<111.177 256.32>
LayerCount: 2
Fore
SplineSet
318 0 m 2,0,-1
 48 0 l 1,1,-1
 48 696 l 1,2,-1
 292 696 l 2,3,4
 382 696 382 696 434 647.5 c 128,-1,5
 486 599 486 599 486 524 c 0,6,7
 486 476 486 476 456 428.5 c 128,-1,8
 426 381 426 381 363 365 c 1,9,-1
 363 364 l 1,10,11
 433 352 433 352 467.5 297.5 c 128,-1,12
 502 243 502 243 502 183 c 0,13,14
 502 101 502 101 449.5 50.5 c 128,-1,15
 397 0 397 0 318 0 c 2,0,-1
285 672 m 2,16,-1
 74 672 l 1,17,-1
 74 375 l 1,18,-1
 285 375 l 2,19,20
 363 375 363 375 411.5 415 c 128,-1,21
 460 455 460 455 460 524 c 0,22,23
 460 591 460 591 413 631.5 c 128,-1,24
 366 672 366 672 285 672 c 2,16,-1
298 351 m 2,25,-1
 74 351 l 1,26,-1
 74 24 l 1,27,-1
 300 24 l 2,28,29
 384 24 384 24 428.5 67.5 c 128,-1,30
 473 111 473 111 473 185 c 0,31,32
 473 255 473 255 427.5 303 c 128,-1,33
 382 351 382 351 298 351 c 2,25,-1
EndSplineSet
EndChar

StartChar: C
Encoding: 67 67 38
Width: 550
GlyphClass: 2
Flags: W
HStem: -7 23<201.069 357.941> 678 23<199.827 356.354>
VStem: 46 26<134.472 557.83>
LayerCount: 2
Fore
SplineSet
482 141 m 1,0,-1
 504 132 l 1,1,2
 478 69 478 69 420 31 c 128,-1,3
 362 -7 362 -7 287 -7 c 0,4,5
 165 -7 165 -7 105.5 53 c 128,-1,6
 46 113 46 113 46 223 c 2,7,-1
 46 478 l 2,8,9
 46 582 46 582 107.5 641.5 c 128,-1,10
 169 701 169 701 283 701 c 0,11,12
 356 701 356 701 410 668 c 128,-1,13
 464 635 464 635 491 579 c 1,14,-1
 470 566 l 1,15,16
 447 616 447 616 398 647 c 128,-1,17
 349 678 349 678 284 678 c 0,18,19
 181 678 181 678 126.5 625.5 c 128,-1,20
 72 573 72 573 72 476 c 2,21,-1
 72 218 l 2,22,23
 72 121 72 121 126 68.5 c 128,-1,24
 180 16 180 16 287 16 c 0,25,26
 353 16 353 16 403.5 49.5 c 128,-1,27
 454 83 454 83 482 141 c 1,0,-1
EndSplineSet
EndChar

StartChar: D
Encoding: 68 68 39
Width: 550
GlyphClass: 2
Flags: W
HStem: 0 24<75 339.222> 672 24<75 337.803>
VStem: 48 27<24 672> 476 26<169.615 529.48>
LayerCount: 2
Fore
SplineSet
48 696 m 1,0,-1
 260 696 l 2,1,2
 420 696 420 696 478 572 c 0,3,4
 502 521 502 521 502 361 c 0,5,6
 502 187 502 187 479 132 c 0,7,8
 449 61 449 61 392.5 30.5 c 128,-1,9
 336 0 336 0 248 0 c 2,10,-1
 48 0 l 1,11,-1
 48 696 l 1,0,-1
476 271 m 2,12,-1
 476 419 l 2,13,14
 476 556 476 556 419 614 c 128,-1,15
 362 672 362 672 252 672 c 2,16,-1
 75 672 l 1,17,-1
 75 24 l 1,18,-1
 252 24 l 2,19,20
 476 24 476 24 476 271 c 2,12,-1
EndSplineSet
EndChar

StartChar: E
Encoding: 69 69 40
Width: 550
GlyphClass: 2
Flags: W
HStem: 0 24<89.5 487.5> 354 24<89.5 423.5> 672 24<89.5 459.5>
VStem: 62.5 27<24 354 378 672>
LayerCount: 2
Fore
SplineSet
62.5 0 m 1,0,-1
 62.5 696 l 1,1,-1
 459.5 696 l 1,2,-1
 459.5 672 l 1,3,-1
 89.5 672 l 1,4,-1
 89.5 378 l 1,5,-1
 423.5 378 l 1,6,-1
 423.5 354 l 1,7,-1
 89.5 354 l 1,8,-1
 89.5 24 l 1,9,-1
 487.5 24 l 1,10,-1
 487.5 0 l 1,11,-1
 62.5 0 l 1,0,-1
EndSplineSet
EndChar

StartChar: F
Encoding: 70 70 41
Width: 550
GlyphClass: 2
Flags: W
HStem: 0 21G<72.5 99.5> 342 23<99.5 431.5> 672 24<99.5 477.5>
VStem: 72.5 27<0 342 365 672>
LayerCount: 2
Fore
SplineSet
99.5 672 m 1,0,-1
 99.5 365 l 1,1,-1
 431.5 365 l 1,2,-1
 431.5 342 l 1,3,-1
 99.5 342 l 1,4,-1
 99.5 0 l 1,5,-1
 72.5 0 l 1,6,-1
 72.5 696 l 1,7,-1
 477.5 696 l 1,8,-1
 477.5 672 l 1,9,-1
 99.5 672 l 1,0,-1
EndSplineSet
EndChar

StartChar: G
Encoding: 71 71 42
Width: 550
GlyphClass: 2
Flags: W
HStem: -7 22<194.239 354.118> 318 24<323 486> 678 23<191.827 346.956>
VStem: 38 26<136.908 557.83> 486 26<137.18 318>
LayerCount: 2
Fore
SplineSet
275 701 m 0,0,1
 348 701 348 701 402 668 c 128,-1,2
 456 635 456 635 483 579 c 1,3,4
 479 576 479 576 471.5 572 c 128,-1,5
 464 568 464 568 461 566 c 1,6,7
 438 616 438 616 389 647 c 128,-1,8
 340 678 340 678 276 678 c 0,9,10
 173 678 173 678 118.5 625.5 c 128,-1,11
 64 573 64 573 64 476 c 2,12,-1
 64 218 l 2,13,14
 64 122 64 122 119 68.5 c 128,-1,15
 174 15 174 15 276 15 c 0,16,17
 371 15 371 15 428.5 68 c 128,-1,18
 486 121 486 121 486 209 c 2,19,-1
 486 318 l 1,20,-1
 323 318 l 1,21,-1
 323 342 l 1,22,-1
 512 342 l 1,23,-1
 512 222 l 2,24,25
 512 115 512 115 448.5 54 c 128,-1,26
 385 -7 385 -7 275 -7 c 0,27,28
 158 -7 158 -7 98 53.5 c 128,-1,29
 38 114 38 114 38 223 c 2,30,-1
 38 478 l 2,31,32
 38 582 38 582 99.5 641.5 c 128,-1,33
 161 701 161 701 275 701 c 0,0,1
EndSplineSet
EndChar

StartChar: H
Encoding: 72 72 43
Width: 550
GlyphClass: 2
Flags: W
HStem: 0 21G<45.5 71.5 478.5 504.5> 354 24<71.5 478.5> 676 20G<45.5 71.5 478.5 504.5>
VStem: 45.5 26<0 354 378 696> 478.5 26<0 354 378 696>
LayerCount: 2
Fore
SplineSet
478.5 0 m 1,0,-1
 478.5 354 l 1,1,-1
 71.5 354 l 1,2,-1
 71.5 0 l 1,3,-1
 45.5 0 l 1,4,-1
 45.5 696 l 1,5,-1
 71.5 696 l 1,6,-1
 71.5 378 l 1,7,-1
 478.5 378 l 1,8,-1
 478.5 696 l 1,9,-1
 504.5 696 l 1,10,-1
 504.5 0 l 1,11,-1
 478.5 0 l 1,0,-1
EndSplineSet
EndChar

StartChar: I
Encoding: 73 73 44
Width: 550
GlyphClass: 2
Flags: W
HStem: 0 23<222 262 288 328> 673 23<222 262 288 328>
VStem: 222 106<0 23 673 696> 262 26<23 673>
LayerCount: 2
Fore
SplineSet
222 673 m 5,0,-1
 222 696 l 5,1,-1
 328 696 l 5,2,-1
 328 673 l 5,3,-1
 288 673 l 5,4,-1
 288 23 l 5,5,-1
 328 23 l 5,6,-1
 328 0 l 5,7,-1
 222 0 l 5,8,-1
 222 23 l 5,9,-1
 262 23 l 5,10,-1
 262 673 l 5,11,-1
 222 673 l 5,0,-1
EndSplineSet
EndChar

StartChar: J
Encoding: 74 74 45
Width: 550
GlyphClass: 2
Flags: W
HStem: -6 25<179.22 329.389> 671 24<144 421>
VStem: 421 26<110.682 671>
LayerCount: 2
Fore
SplineSet
144 671 m 1,0,-1
 144 695 l 1,1,-1
 447 695 l 1,2,-1
 447 170 l 6,3,4
 447 73 447 73 393 33.5 c 128,-1,5
 339 -6 339 -6 249 -6 c 0,6,7
 213 -6 213 -6 171.5 8.5 c 128,-1,8
 130 23 130 23 103 45 c 1,9,-1
 119 65 l 1,10,11
 178 19 178 19 250 19 c 0,12,13
 421 19 421 19 421 189 c 6,14,-1
 421 671 l 1,15,-1
 144 671 l 1,0,-1
EndSplineSet
EndChar

StartChar: K
Encoding: 75 75 46
Width: 550
GlyphClass: 2
Flags: W
HStem: 0 21G<44.5 70.5 465.275 505.5> 676 20G<44.5 70.5 424.986 470.5>
VStem: 44.5 26<0 180 219 696>
LayerCount: 2
Fore
SplineSet
470.5 696 m 1,0,-1
 264.5 430 l 1,1,-1
 505.5 0 l 1,2,-1
 476.5 0 l 1,3,-1
 247.5 408 l 1,4,-1
 70.5 180 l 1,5,-1
 70.5 0 l 1,6,-1
 44.5 0 l 1,7,-1
 44.5 696 l 1,8,-1
 70.5 696 l 1,9,-1
 70.5 219 l 1,10,-1
 440.5 696 l 1,11,-1
 470.5 696 l 1,0,-1
EndSplineSet
EndChar

StartChar: L
Encoding: 76 76 47
Width: 550
GlyphClass: 2
Flags: W
HStem: 0 24<109.5 466.5> 676 20G<83.5 109.5>
VStem: 83.5 26<24 696>
LayerCount: 2
Fore
SplineSet
83.5 0 m 1,0,-1
 83.5 696 l 1,1,-1
 109.5 696 l 1,2,-1
 109.5 24 l 1,3,-1
 466.5 24 l 1,4,-1
 466.5 0 l 1,5,-1
 83.5 0 l 1,0,-1
EndSplineSet
EndChar

StartChar: M
Encoding: 77 77 48
Width: 550
GlyphClass: 2
Flags: W
HStem: 0 21G<61 86 464 489> 676 20G<61 97.5517 454.448 489>
VStem: 61 25<0 636> 464 25<0 636>
LayerCount: 2
Fore
SplineSet
275 261 m 1,0,-1
 277 261 l 1,1,-1
 463 696 l 1,2,-1
 489 696 l 1,3,-1
 489 0 l 1,4,-1
 464 0 l 1,5,-1
 464 636 l 1,6,-1
 462 636 l 1,7,-1
 286 226 l 1,8,-1
 265 226 l 1,9,-1
 88 637 l 1,10,-1
 86 636 l 1,11,-1
 86 0 l 1,12,-1
 61 0 l 1,13,-1
 61 696 l 1,14,-1
 89 696 l 1,15,-1
 275 261 l 1,0,-1
EndSplineSet
EndChar

StartChar: N
Encoding: 78 78 49
Width: 550
GlyphClass: 2
Flags: W
HStem: 0 21G<67.5 93.5 442.474 482.5> 676 20G<67.5 107.509 456.5 482.5>
VStem: 67.5 26<0 653> 456.5 26<42 696>
LayerCount: 2
Fore
SplineSet
453.5 0 m 1,0,-1
 93.5 653 l 1,1,-1
 93.5 0 l 1,2,-1
 67.5 0 l 1,3,-1
 67.5 696 l 1,4,-1
 96.5 696 l 1,5,-1
 456.5 42 l 1,6,-1
 456.5 696 l 1,7,-1
 482.5 696 l 1,8,-1
 482.5 0 l 1,9,-1
 453.5 0 l 1,0,-1
EndSplineSet
EndChar

StartChar: O
Encoding: 79 79 50
Width: 550
GlyphClass: 2
Flags: W
HStem: -7 24<193.856 357.757> 676 25<190.553 360.337>
VStem: 40 27<136.908 557.83> 483 27<137.418 557.98>
LayerCount: 2
Fore
SplineSet
277 701 m 0,0,1
 385 701 385 701 447.5 644 c 128,-1,2
 510 587 510 587 510 478 c 2,3,-1
 510 223 l 2,4,5
 510 108 510 108 447.5 50.5 c 128,-1,6
 385 -7 385 -7 277 -7 c 0,7,8
 160 -7 160 -7 100 53.5 c 128,-1,9
 40 114 40 114 40 223 c 2,10,-1
 40 478 l 2,11,12
 40 582 40 582 101.5 641.5 c 128,-1,13
 163 701 163 701 277 701 c 0,0,1
278 676 m 0,14,15
 177 676 177 676 122 624 c 128,-1,16
 67 572 67 572 67 476 c 2,17,-1
 67 218 l 2,18,19
 67 124 67 124 122 70.5 c 128,-1,20
 177 17 177 17 278 17 c 0,21,22
 373 17 373 17 428 70 c 128,-1,23
 483 123 483 123 483 224 c 2,24,-1
 483 476 l 2,25,26
 483 572 483 572 428 624 c 128,-1,27
 373 676 373 676 278 676 c 0,14,15
EndSplineSet
EndChar

StartChar: P
Encoding: 80 80 51
Width: 550
GlyphClass: 2
Flags: W
HStem: 0 21G<63 90> 307 25<90 357.951> 672 24<90 351.024>
VStem: 63 27<0 307 332 672> 458 29<429.034 577.547>
LayerCount: 2
Fore
SplineSet
63 696 m 1,0,-1
 278 696 l 2,1,2
 369 696 369 696 428 648 c 128,-1,3
 487 600 487 600 487 498 c 0,4,5
 487 423 487 423 435.5 365 c 128,-1,6
 384 307 384 307 286 307 c 2,7,-1
 90 307 l 1,8,-1
 90 0 l 1,9,-1
 63 0 l 1,10,-1
 63 696 l 1,0,-1
90 672 m 1,11,-1
 90 332 l 1,12,-1
 281 332 l 2,13,14
 370 332 370 332 414 381.5 c 128,-1,15
 458 431 458 431 458 501 c 0,16,17
 458 584 458 584 407 628 c 128,-1,18
 356 672 356 672 277 672 c 2,19,-1
 90 672 l 1,11,-1
EndSplineSet
EndChar

StartChar: Q
Encoding: 81 81 52
Width: 550
GlyphClass: 2
Flags: W
HStem: -7 24<193.856 351.103> 676 25<190.553 360.337>
VStem: 40 27<136.908 557.83> 483 27<147.486 557.98>
LayerCount: 2
Fore
SplineSet
277 701 m 0,0,1
 385 701 385 701 447.5 644 c 128,-1,2
 510 587 510 587 510 478 c 2,3,-1
 510 223 l 2,4,5
 510 119 510 119 438 50 c 1,6,-1
 489 -7 l 1,7,-1
 471 -24 l 1,8,-1
 418 35 l 1,9,10
 360 -7 360 -7 277 -7 c 0,11,12
 160 -7 160 -7 100 53.5 c 128,-1,13
 40 114 40 114 40 223 c 2,14,-1
 40 478 l 2,15,16
 40 582 40 582 101.5 641.5 c 128,-1,17
 163 701 163 701 277 701 c 0,0,1
278 676 m 0,18,19
 177 676 177 676 122 624 c 128,-1,20
 67 572 67 572 67 476 c 2,21,-1
 67 218 l 2,22,23
 67 124 67 124 122 70.5 c 128,-1,24
 177 17 177 17 278 17 c 0,25,26
 351 17 351 17 400 55 c 1,27,-1
 300 167 l 1,28,-1
 318 184 l 1,29,-1
 419 71 l 1,30,31
 483 133 483 133 483 224 c 2,32,-1
 483 476 l 2,33,34
 483 572 483 572 428 624 c 128,-1,35
 373 676 373 676 278 676 c 0,18,19
EndSplineSet
EndChar

StartChar: R
Encoding: 82 82 53
Width: 550
GlyphClass: 2
Flags: W
HStem: 0 21G<61.5 87.5 440.349 479.5> 331 25<87.5 282.5> 672 24<87.5 358.036>
VStem: 61.5 26<0 331 356 672> 460.5 28<448.672 588.88>
LayerCount: 2
Fore
SplineSet
450.5 0 m 1,0,-1
 282.5 331 l 1,1,-1
 87.5 331 l 1,2,-1
 87.5 0 l 1,3,-1
 61.5 0 l 1,4,-1
 61.5 696 l 1,5,-1
 291.5 696 l 2,6,7
 380.5 696 380.5 696 434.5 650 c 128,-1,8
 488.5 604 488.5 604 488.5 521 c 0,9,10
 488.5 444 488.5 444 440.5 392 c 128,-1,11
 392.5 340 392.5 340 310.5 332 c 1,12,-1
 479.5 0 l 1,13,-1
 450.5 0 l 1,0,-1
282.5 672 m 2,14,-1
 87.5 672 l 1,15,-1
 87.5 356 l 1,16,-1
 279.5 356 l 2,17,18
 359.5 356 359.5 356 410 399 c 128,-1,19
 460.5 442 460.5 442 460.5 521 c 0,20,21
 460.5 597 460.5 597 408.5 634.5 c 128,-1,22
 356.5 672 356.5 672 282.5 672 c 2,14,-1
EndSplineSet
EndChar

StartChar: S
Encoding: 83 83 54
Width: 550
GlyphClass: 2
Flags: W
HStem: -6 24<176.564 361.505> 678 24<211.05 378.846>
VStem: 78.5 27<465.304 590.543> 480.5 27<112.186 241.943>
LayerCount: 2
Fore
SplineSet
271.5 -6 m 0,0,1
 142.5 -6 142.5 -6 42.5 59 c 1,2,-1
 57.5 81 l 1,3,4
 156.5 18 156.5 18 273.5 18 c 0,5,6
 364.5 18 364.5 18 422.5 59 c 128,-1,7
 480.5 100 480.5 100 480.5 176 c 0,8,9
 480.5 213 480.5 213 467 242 c 128,-1,10
 453.5 271 453.5 271 435.5 288 c 128,-1,11
 417.5 305 417.5 305 386.5 319 c 128,-1,12
 355.5 333 355.5 333 334.5 339 c 128,-1,13
 313.5 345 313.5 345 280.5 352 c 0,14,15
 242.5 360 242.5 360 220 366.5 c 128,-1,16
 197.5 373 197.5 373 167 386.5 c 128,-1,17
 136.5 400 136.5 400 119.5 416.5 c 128,-1,18
 102.5 433 102.5 433 90.5 460 c 128,-1,19
 78.5 487 78.5 487 78.5 523 c 0,20,21
 78.5 604 78.5 604 134 653 c 128,-1,22
 189.5 702 189.5 702 288.5 702 c 0,23,24
 391.5 702 391.5 702 475.5 656 c 1,25,-1
 463.5 633 l 1,26,27
 378.5 678 378.5 678 287.5 678 c 0,28,29
 212.5 678 212.5 678 159 640 c 128,-1,30
 105.5 602 105.5 602 105.5 521 c 0,31,32
 105.5 492 105.5 492 117 469 c 128,-1,33
 128.5 446 128.5 446 142 433 c 128,-1,34
 155.5 420 155.5 420 186 407.5 c 128,-1,35
 216.5 395 216.5 395 232.5 390.5 c 128,-1,36
 248.5 386 248.5 386 287.5 377 c 0,37,38
 329.5 367 329.5 367 354.5 359 c 128,-1,39
 379.5 351 379.5 351 412.5 335 c 128,-1,40
 445.5 319 445.5 319 463.5 300 c 128,-1,41
 481.5 281 481.5 281 494.5 249 c 128,-1,42
 507.5 217 507.5 217 507.5 176 c 0,43,44
 507.5 93 507.5 93 445 43.5 c 128,-1,45
 382.5 -6 382.5 -6 271.5 -6 c 0,0,1
EndSplineSet
EndChar

StartChar: T
Encoding: 84 84 55
Width: 550
GlyphClass: 2
Flags: W
HStem: 0 21G<264 289> 672 24<49 264 289 501>
VStem: 264 25<0 672>
LayerCount: 2
Fore
SplineSet
289 672 m 1,0,-1
 289 0 l 1,1,-1
 264 0 l 1,2,-1
 264 672 l 1,3,-1
 49 672 l 1,4,-1
 49 696 l 1,5,-1
 501 696 l 1,6,-1
 501 672 l 1,7,-1
 289 672 l 1,0,-1
EndSplineSet
EndChar

StartChar: U
Encoding: 85 85 56
Width: 550
GlyphClass: 2
Flags: W
HStem: -7 24<198.365 352.426> 676 20G<51 77 472 499>
VStem: 51 26<145.616 696> 472 27<136.5 696>
LayerCount: 2
Fore
SplineSet
275 -7 m 0,0,1
 173 -7 173 -7 112 53.5 c 128,-1,2
 51 114 51 114 51 224 c 2,3,-1
 51 696 l 1,4,-1
 77 696 l 1,5,-1
 77 236 l 2,6,7
 77 133 77 133 128.5 75 c 128,-1,8
 180 17 180 17 275 17 c 0,9,10
 368 17 368 17 420 71 c 128,-1,11
 472 125 472 125 472 225 c 2,12,-1
 472 696 l 1,13,-1
 499 696 l 1,14,-1
 499 214 l 2,15,16
 499 112 499 112 438.5 52.5 c 128,-1,17
 378 -7 378 -7 275 -7 c 0,0,1
EndSplineSet
EndChar

StartChar: V
Encoding: 86 86 57
Width: 550
GlyphClass: 2
Flags: W
HStem: 0 21G<254.736 295.264> 676 20G<43 74.2538 475.776 507>
LayerCount: 2
Fore
SplineSet
289 0 m 1,0,-1
 261 0 l 1,1,-1
 43 696 l 1,2,-1
 68 696 l 1,3,-1
 275 34 l 1,4,-1
 276 34 l 1,5,-1
 482 696 l 1,6,-1
 507 696 l 1,7,-1
 289 0 l 1,0,-1
EndSplineSet
EndChar

StartChar: W
Encoding: 87 87 58
Width: 550
GlyphClass: 2
Flags: W
HStem: 0 21G<103.172 137.045 412.955 446.828> 676 20G<24.5 51.792 498.208 525.5>
LayerCount: 2
Fore
SplineSet
276.5 437 m 1,0,-1
 273.5 437 l 1,1,-1
 130.5 0 l 1,2,-1
 105.5 0 l 1,3,-1
 24.5 696 l 1,4,-1
 49.5 696 l 1,5,-1
 122.5 59 l 1,6,-1
 123.5 59 l 1,7,-1
 262.5 481 l 1,8,-1
 288.5 481 l 1,9,-1
 426.5 59 l 1,10,-1
 427.5 59 l 1,11,-1
 500.5 696 l 1,12,-1
 525.5 696 l 1,13,-1
 444.5 0 l 1,14,-1
 419.5 0 l 1,15,-1
 276.5 437 l 1,0,-1
EndSplineSet
EndChar

StartChar: X
Encoding: 88 88 59
Width: 550
GlyphClass: 2
Flags: W
HStem: 0 21G<48 88.8919 461.108 502> 676 20G<63 103.656 446.344 487>
LayerCount: 2
Fore
SplineSet
473 0 m 1,0,-1
 275 333 l 1,1,-1
 77 0 l 1,2,-1
 48 0 l 1,3,-1
 261 357 l 1,4,-1
 63 696 l 1,5,-1
 92 696 l 1,6,-1
 275 382 l 1,7,-1
 458 696 l 1,8,-1
 487 696 l 1,9,-1
 289 357 l 1,10,-1
 502 0 l 1,11,-1
 473 0 l 1,0,-1
EndSplineSet
EndChar

StartChar: Y
Encoding: 89 89 60
Width: 550
GlyphClass: 2
Flags: W
HStem: 0 21G<263 288> 676 20G<55 92.1837 458.869 495>
VStem: 263 25<0 289>
LayerCount: 2
Fore
SplineSet
288 289 m 1,0,-1
 288 0 l 1,1,-1
 263 0 l 1,2,-1
 263 289 l 1,3,-1
 55 696 l 1,4,-1
 82 696 l 1,5,-1
 276 315 l 1,6,-1
 469 696 l 1,7,-1
 495 696 l 1,8,-1
 288 289 l 1,0,-1
EndSplineSet
EndChar

StartChar: Z
Encoding: 90 90 61
Width: 550
GlyphClass: 2
Flags: W
HStem: 0 24<96 483> 672 24<89 454>
LayerCount: 2
Fore
SplineSet
67 0 m 1,0,-1
 67 25 l 1,1,-1
 454 672 l 1,2,-1
 89 672 l 1,3,-1
 89 696 l 1,4,-1
 482 696 l 1,5,-1
 482 671 l 1,6,-1
 96 24 l 1,7,-1
 483 24 l 1,8,-1
 483 0 l 1,9,-1
 67 0 l 1,0,-1
EndSplineSet
EndChar

StartChar: bracketleft
Encoding: 91 91 62
Width: 550
GlyphClass: 2
Flags: W
HStem: -121 23<238 339> 702 24<238 339>
VStem: 211 27<-98 702>
LayerCount: 2
Fore
SplineSet
211 -121 m 5,0,-1
 211 726 l 5,1,-1
 339 726 l 5,2,-1
 339 702 l 5,3,-1
 238 702 l 5,4,-1
 238 -98 l 5,5,-1
 339 -98 l 5,6,-1
 339 -121 l 5,7,-1
 211 -121 l 5,0,-1
EndSplineSet
EndChar

StartChar: backslash
Encoding: 92 92 63
Width: 550
GlyphClass: 2
Flags: W
LayerCount: 2
Fore
SplineSet
500 -17 m 1,0,-1
 475 -17 l 1,1,-1
 50 714 l 1,2,-1
 77 714 l 1,3,-1
 500 -17 l 1,0,-1
EndSplineSet
EndChar

StartChar: bracketright
Encoding: 93 93 64
Width: 550
GlyphClass: 2
Flags: W
HStem: -121 23<211.5 312.5> 702 24<211.5 312.5>
VStem: 312.5 26<-98 702>
LayerCount: 2
Fore
SplineSet
211.5 -121 m 5,0,-1
 211.5 -98 l 5,1,-1
 312.5 -98 l 5,2,-1
 312.5 702 l 5,3,-1
 211.5 702 l 5,4,-1
 211.5 726 l 5,5,-1
 338.5 726 l 5,6,-1
 338.5 -121 l 5,7,-1
 211.5 -121 l 5,0,-1
EndSplineSet
EndChar

StartChar: asciicircum
Encoding: 94 94 65
Width: 550
GlyphClass: 2
Flags: W
VStem: 109 332
LayerCount: 2
Fore
SplineSet
441 337 m 1,0,-1
 415 337 l 1,1,-1
 275 664 l 1,2,-1
 137 335 l 1,3,-1
 109 335 l 1,4,-1
 264 692 l 1,5,-1
 288 692 l 1,6,-1
 441 337 l 1,0,-1
EndSplineSet
EndChar

StartChar: underscore
Encoding: 95 95 66
Width: 550
GlyphClass: 2
Flags: W
LayerCount: 2
Fore
SplineSet
30 -96 m 1,0,-1
 30 -70 l 1,1,-1
 520 -70 l 1,2,-1
 520 -96 l 1,3,-1
 30 -96 l 1,0,-1
EndSplineSet
EndChar

StartChar: grave
Encoding: 96 96 67
Width: 550
GlyphClass: 2
Flags: W
HStem: 579 150
VStem: 218 114
LayerCount: 2
Fore
SplineSet
332 587 m 1,0,-1
 317 579 l 1,1,-1
 218 713 l 1,2,-1
 250 729 l 1,3,-1
 332 587 l 1,0,-1
EndSplineSet
EndChar

StartChar: a
Encoding: 97 97 68
Width: 550
GlyphClass: 2
Flags: W
HStem: -7 22<190.128 351.791> 0 21G<440 465> 246 22<179.214 440> 479 22<206.896 363.51>
VStem: 85 25<78.5154 189.692> 440 25<0 60 80.5352 246 268 411.398>
LayerCount: 2
Fore
SplineSet
440 60 m 1,0,-1
 438 60 l 1,1,2
 396 -7 396 -7 259 -7 c 0,3,4
 187 -7 187 -7 136 28 c 128,-1,5
 85 63 85 63 85 133 c 0,6,7
 85 196 85 196 126.5 232 c 128,-1,8
 168 268 168 268 245 268 c 2,9,-1
 440 268 l 1,10,-1
 440 346 l 2,11,12
 440 412 440 412 404 445.5 c 128,-1,13
 368 479 368 479 282 479 c 0,14,15
 192 479 192 479 134 428 c 1,16,-1
 118 445 l 1,17,18
 180 501 180 501 285 501 c 0,19,20
 369 501 369 501 417 468.5 c 128,-1,21
 465 436 465 436 465 351 c 2,22,-1
 465 0 l 1,23,-1
 440 0 l 1,24,-1
 440 60 l 1,0,-1
440 246 m 1,25,-1
 250 246 l 2,26,27
 110 246 110 246 110 133 c 0,28,29
 110 76 110 76 151.5 45.5 c 128,-1,30
 193 15 193 15 263 15 c 0,31,32
 302 15 302 15 338.5 22.5 c 128,-1,33
 375 30 375 30 407.5 57 c 128,-1,34
 440 84 440 84 440 127 c 2,35,-1
 440 246 l 1,25,-1
EndSplineSet
EndChar

StartChar: b
Encoding: 98 98 69
Width: 550
GlyphClass: 2
Flags: W
HStem: -7 21<215.107 333.232> 0 21G<86.5 111.5> 480 20<215.405 332.779> 701 20G<86.5 111.5>
VStem: 86.5 25<0 101 141.448 350.277 390 721> 436.5 27<138.298 359.785>
LayerCount: 2
Fore
SplineSet
275.5 -7 m 0,0,1
 160.5 -7 160.5 -7 112.5 101 c 1,2,-1
 111.5 101 l 1,3,-1
 111.5 0 l 1,4,-1
 86.5 0 l 1,5,-1
 86.5 721 l 1,6,-1
 111.5 721 l 1,7,-1
 111.5 390 l 1,8,-1
 112.5 390 l 1,9,10
 162.5 500 162.5 500 273.5 500 c 0,11,12
 463.5 500 463.5 500 463.5 251 c 0,13,14
 463.5 134 463.5 134 418.5 63.5 c 128,-1,15
 373.5 -7 373.5 -7 275.5 -7 c 0,0,1
272.5 480 m 0,16,17
 190.5 480 190.5 480 151 415 c 128,-1,18
 111.5 350 111.5 350 111.5 244 c 0,19,20
 111.5 213 111.5 213 115 185 c 128,-1,21
 118.5 157 118.5 157 129 124.5 c 128,-1,22
 139.5 92 139.5 92 156 68.5 c 128,-1,23
 172.5 45 172.5 45 202.5 29.5 c 128,-1,24
 232.5 14 232.5 14 272.5 14 c 0,25,26
 436.5 14 436.5 14 436.5 247 c 128,-1,27
 436.5 480 436.5 480 272.5 480 c 0,16,17
EndSplineSet
EndChar

StartChar: c
Encoding: 99 99 70
Width: 550
GlyphClass: 2
Flags: W
HStem: -7 21<242.29 373.39> 480 21<243.309 373.366>
VStem: 95.5 25<144.782 345.643>
LayerCount: 2
Fore
SplineSet
311.5 -7 m 0,0,1
 213.5 -7 213.5 -7 154.5 53.5 c 128,-1,2
 95.5 114 95.5 114 95.5 247 c 0,3,4
 95.5 378 95.5 378 157 439.5 c 128,-1,5
 218.5 501 218.5 501 310.5 501 c 0,6,7
 389.5 501 389.5 501 449.5 454 c 1,8,-1
 434.5 435 l 1,9,10
 379.5 480 379.5 480 313.5 480 c 0,11,12
 217.5 480 217.5 480 169 419.5 c 128,-1,13
 120.5 359 120.5 359 120.5 247 c 0,14,15
 120.5 14 120.5 14 314.5 14 c 0,16,17
 346.5 14 346.5 14 383 27.5 c 128,-1,18
 419.5 41 419.5 41 441.5 58 c 1,19,-1
 454.5 40 l 1,20,21
 394.5 -7 394.5 -7 311.5 -7 c 0,0,1
EndSplineSet
EndChar

StartChar: d
Encoding: 100 100 71
Width: 550
GlyphClass: 2
Flags: W
HStem: -7 21<214.434 333.628> 0 21G<439 463> 479 21<216.632 335.357> 701 20G<439 463>
VStem: 87 26<131.75 355.964> 439 24<0 102 147.537 346.881 395 721>
LayerCount: 2
Fore
SplineSet
463 0 m 1,0,-1
 439 0 l 1,1,-1
 439 102 l 1,2,-1
 438 102 l 1,3,4
 421 66 421 66 399.5 43 c 128,-1,5
 378 20 378 20 354 10 c 128,-1,6
 330 0 330 0 311 -3.5 c 128,-1,7
 292 -7 292 -7 268 -7 c 0,8,9
 87 -7 87 -7 87 251 c 0,10,11
 87 290 87 290 92 323.5 c 128,-1,12
 97 357 97 357 110 390.5 c 128,-1,13
 123 424 123 424 144 447.5 c 128,-1,14
 165 471 165 471 199 485.5 c 128,-1,15
 233 500 233 500 277 500 c 0,16,17
 341 500 341 500 377.5 471 c 128,-1,18
 414 442 414 442 438 395 c 1,19,-1
 439 395 l 1,20,-1
 439 721 l 1,21,-1
 463 721 l 1,22,-1
 463 0 l 1,0,-1
439 244 m 0,23,24
 439 349 439 349 399 414 c 128,-1,25
 359 479 359 479 278 479 c 0,26,27
 113 479 113 479 113 247 c 0,28,29
 113 213 113 213 115.5 185.5 c 128,-1,30
 118 158 118 158 127.5 124 c 128,-1,31
 137 90 137 90 153.5 67.5 c 128,-1,32
 170 45 170 45 201 29.5 c 128,-1,33
 232 14 232 14 274 14 c 0,34,35
 323 14 323 14 357.5 36.5 c 128,-1,36
 392 59 392 59 408.5 96 c 128,-1,37
 425 133 425 133 432 169 c 128,-1,38
 439 205 439 205 439 244 c 0,23,24
EndSplineSet
EndChar

StartChar: e
Encoding: 101 101 72
Width: 550
GlyphClass: 2
Flags: W
HStem: -7 20<224.364 352.55> 251 21<105.5 443.5> 480 21<216.087 338.973>
VStem: 80.5 23<146.809 251 272 340.531> 443.5 26<272 360.28>
LayerCount: 2
Fore
SplineSet
103.5 251 m 1,0,1
 103.5 247 103.5 247 103.5 243 c 0,2,3
 103.5 180 103.5 180 118.5 132 c 0,4,5
 134.5 82 134.5 82 177.5 47.5 c 128,-1,6
 220.5 13 220.5 13 289.5 13 c 0,7,8
 354.5 13 354.5 13 411.5 52 c 1,9,-1
 426.5 34 l 1,10,11
 367.5 -7 367.5 -7 291.5 -7 c 0,12,13
 80.5 -7 80.5 -7 80.5 245 c 0,14,15
 80.5 318 80.5 318 98 370.5 c 128,-1,16
 115.5 423 115.5 423 145.5 450 c 128,-1,17
 175.5 477 175.5 477 208 489 c 128,-1,18
 240.5 501 240.5 501 277.5 501 c 0,19,20
 376.5 501 376.5 501 423 436.5 c 128,-1,21
 469.5 372 469.5 372 469.5 271 c 2,22,-1
 469.5 251 l 1,23,-1
 103.5 251 l 1,0,1
278.5 480 m 0,24,25
 199.5 480 199.5 480 155 426 c 128,-1,26
 110.5 372 110.5 372 105.5 272 c 1,27,-1
 443.5 272 l 1,28,29
 439.5 376 439.5 376 397 428 c 128,-1,30
 354.5 480 354.5 480 278.5 480 c 0,24,25
EndSplineSet
EndChar

StartChar: f
Encoding: 102 102 73
Width: 550
GlyphClass: 2
Flags: W
HStem: 0 21G<232.5 257.5> 472 24<54.5 232.5 257.5 480.5> 710 26<318.346 470.808>
VStem: 232.5 25<0 472 496 648.167>
LayerCount: 2
Fore
SplineSet
54.5 472 m 1,0,-1
 54.5 496 l 1,1,-1
 232.5 496 l 1,2,-1
 232.5 575 l 2,3,4
 232.5 663 232.5 663 274 699.5 c 128,-1,5
 315.5 736 315.5 736 391.5 736 c 0,6,7
 442.5 736 442.5 736 495.5 716 c 1,8,-1
 486.5 692 l 1,9,10
 436.5 710 436.5 710 385.5 710 c 0,11,12
 257.5 710 257.5 710 257.5 580 c 2,13,-1
 257.5 496 l 1,14,-1
 480.5 496 l 1,15,-1
 480.5 472 l 1,16,-1
 257.5 472 l 1,17,-1
 257.5 0 l 1,18,-1
 232.5 0 l 1,19,-1
 232.5 472 l 1,20,-1
 54.5 472 l 1,0,-1
EndSplineSet
EndChar

StartChar: g
Encoding: 103 103 74
Width: 550
GlyphClass: 2
Flags: W
HStem: -204 22<199.865 331.873> -5 21<216.67 334.065> 479 22<216.375 337.061>
VStem: 86.5 26<138.665 354.474> 439.5 24<-80.7566 107 152.225 348.128 396 495>
LayerCount: 2
Fore
SplineSet
463.5 495 m 1,0,-1
 463.5 3 l 2,1,2
 463.5 -104 463.5 -104 406.5 -154 c 128,-1,3
 349.5 -204 349.5 -204 259.5 -204 c 0,4,5
 187.5 -204 187.5 -204 133.5 -163 c 1,6,-1
 148.5 -144 l 1,7,8
 202.5 -182 202.5 -182 259.5 -182 c 0,9,10
 342.5 -182 342.5 -182 391 -137 c 128,-1,11
 439.5 -92 439.5 -92 439.5 -10 c 2,12,-1
 439.5 107 l 1,13,-1
 438.5 107 l 1,14,15
 387.5 -5 387.5 -5 274.5 -5 c 0,16,17
 86.5 -5 86.5 -5 86.5 247 c 0,18,19
 86.5 360 86.5 360 132.5 430.5 c 128,-1,20
 178.5 501 178.5 501 275.5 501 c 0,21,22
 328.5 501 328.5 501 369 479 c 128,-1,23
 409.5 457 409.5 457 438.5 396 c 1,24,-1
 439.5 396 l 1,25,-1
 439.5 495 l 1,26,-1
 463.5 495 l 1,0,-1
439.5 252 m 0,27,28
 439.5 290 439.5 290 432.5 326.5 c 128,-1,29
 425.5 363 425.5 363 409 399 c 128,-1,30
 392.5 435 392.5 435 358.5 457 c 128,-1,31
 324.5 479 324.5 479 278.5 479 c 0,32,33
 112.5 479 112.5 479 112.5 247 c 0,34,35
 112.5 16 112.5 16 278.5 16 c 0,36,37
 358.5 16 358.5 16 399 82 c 128,-1,38
 439.5 148 439.5 148 439.5 252 c 0,27,28
EndSplineSet
EndChar

StartChar: h
Encoding: 104 104 75
Width: 550
GlyphClass: 2
Flags: W
HStem: 0 21G<88.5 112.5 437.5 461.5> 478 22<221.063 351.616> 701 20G<88.5 112.5>
VStem: 88.5 24<0 369.525 398 721> 437.5 24<0 395.606>
LayerCount: 2
Fore
SplineSet
437.5 0 m 1,0,-1
 437.5 327 l 2,1,2
 437.5 401 437.5 401 397 439.5 c 128,-1,3
 356.5 478 356.5 478 283.5 478 c 0,4,5
 211.5 478 211.5 478 162 428 c 128,-1,6
 112.5 378 112.5 378 112.5 302 c 2,7,-1
 112.5 0 l 1,8,-1
 88.5 0 l 1,9,-1
 88.5 721 l 1,10,-1
 112.5 721 l 1,11,-1
 112.5 398 l 1,12,-1
 114.5 398 l 1,13,14
 137.5 449 137.5 449 186 474.5 c 128,-1,15
 234.5 500 234.5 500 285.5 500 c 0,16,17
 372.5 500 372.5 500 417 456.5 c 128,-1,18
 461.5 413 461.5 413 461.5 334 c 2,19,-1
 461.5 0 l 1,20,-1
 437.5 0 l 1,0,-1
EndSplineSet
EndChar

StartChar: i
Encoding: 105 105 76
Width: 550
GlyphClass: 2
Flags: W
HStem: 0 24<202.5 264.5 289.5 348.5> 471 24<201.5 264.5> 665 32<257.5 290.5>
VStem: 257.5 33<665 697> 264.5 25<24 471>
LayerCount: 2
Fore
SplineSet
202.5 0 m 5,0,-1
 202.5 24 l 5,1,-1
 264.5 24 l 5,2,-1
 264.5 471 l 5,3,-1
 201.5 471 l 5,4,-1
 201.5 495 l 5,5,-1
 289.5 495 l 5,6,-1
 289.5 24 l 5,7,-1
 348.5 24 l 5,8,-1
 348.5 0 l 5,9,-1
 202.5 0 l 5,0,-1
257.5 665 m 5,10,-1
 257.5 697 l 5,11,-1
 290.5 697 l 5,12,-1
 290.5 665 l 5,13,-1
 257.5 665 l 5,10,-1
EndSplineSet
EndChar

StartChar: j
Encoding: 106 106 77
Width: 550
GlyphClass: 2
Flags: W
HStem: -204 23<185.5 277.657> 472 23<255.5 335.5> 666 31<330.5 364.5>
VStem: 335.5 25<-121.918 472 666 697>
LayerCount: 2
Fore
SplineSet
360.5 495 m 5,0,-1
 360.5 -61 l 6,1,2
 360.5 -122 360.5 -122 327 -163 c 132,-1,3
 293.5 -204 293.5 -204 218.5 -204 c 6,4,-1
 185.5 -204 l 5,5,-1
 185.5 -181 l 5,6,-1
 218.5 -181 l 6,7,8
 335.5 -181 335.5 -181 335.5 -56 c 6,9,-1
 335.5 472 l 5,10,-1
 255.5 472 l 5,11,-1
 255.5 495 l 5,12,-1
 360.5 495 l 5,0,-1
330.5 666 m 5,13,-1
 330.5 697 l 5,14,-1
 364.5 697 l 5,15,-1
 364.5 666 l 5,16,-1
 330.5 666 l 5,13,-1
EndSplineSet
EndChar

StartChar: k
Encoding: 107 107 78
Width: 550
GlyphClass: 2
Flags: W
HStem: 0 21G<87 112 422.667 463> 475 20G<380.603 429> 701 20G<87 112>
VStem: 87 25<0 149 183 721>
LayerCount: 2
Fore
SplineSet
429 495 m 1,0,-1
 259 309 l 1,1,-1
 463 0 l 1,2,-1
 436 0 l 1,3,-1
 242 291 l 1,4,-1
 112 149 l 1,5,-1
 112 0 l 1,6,-1
 87 0 l 1,7,-1
 87 721 l 1,8,-1
 112 721 l 1,9,-1
 112 183 l 1,10,-1
 399 495 l 1,11,-1
 429 495 l 1,0,-1
EndSplineSet
EndChar

StartChar: l
Encoding: 108 108 79
Width: 550
GlyphClass: 2
Flags: W
HStem: 1.19434 22.8057<287.794 345.5> 698 24<204.5 211.5>
VStem: 204.5 32<698 722> 211.5 25<68.6996 698>
LayerCount: 2
Fore
SplineSet
211.5 122 m 5,0,-1
 211.5 146 l 5,1,-1
 211.5 698 l 5,2,-1
 204.5 698 l 5,3,-1
 204.5 722 l 5,4,-1
 236.5 722 l 5,5,-1
 236.5 124 l 5,6,-1
 236.5 124.495117188 l 4,7,8
 235.5 25 235.5 25 345.5 24 c 5,9,-1
 345.5 0 l 5,10,-1
 336.5 1.1943359375 l 4,11,12
 211.5 0 211.5 0 211.5 122 c 5,0,-1
EndSplineSet
EndChar

StartChar: m
Encoding: 109 109 80
Width: 550
GlyphClass: 2
Flags: W
HStem: 0 21G<49 73 262 286 476 501> 478 22<132.872 215.776 347.776 433.525>
VStem: 49 24<0 405.783 430 495> 262 24<0 420.263> 476 25<0 433.88>
LayerCount: 2
Fore
SplineSet
391 500 m 0,0,1
 450 500 450 500 475.5 461.5 c 128,-1,2
 501 423 501 423 501 364 c 2,3,-1
 501 0 l 1,4,-1
 476 0 l 1,5,-1
 476 367 l 2,6,7
 476 423 476 423 453 450.5 c 128,-1,8
 430 478 430 478 392 478 c 0,9,10
 345 478 345 478 315.5 439 c 128,-1,11
 286 400 286 400 286 326 c 2,12,-1
 286 0 l 1,13,-1
 262 0 l 1,14,-1
 262 347 l 2,15,16
 262 478 262 478 173 478 c 0,17,18
 131 478 131 478 102 438.5 c 128,-1,19
 73 399 73 399 73 326 c 2,20,-1
 73 0 l 1,21,-1
 49 0 l 1,22,-1
 49 495 l 1,23,-1
 73 495 l 1,24,-1
 73 430 l 1,25,-1
 75 430 l 1,26,27
 89 462 89 462 115.5 481 c 128,-1,28
 142 500 142 500 174 500 c 0,29,30
 262 500 262 500 276 411 c 1,31,-1
 279 411 l 1,32,33
 290 455 290 455 322.5 477.5 c 128,-1,34
 355 500 355 500 391 500 c 0,0,1
EndSplineSet
EndChar

StartChar: n
Encoding: 110 110 81
Width: 550
GlyphClass: 2
Flags: W
HStem: 0 21G<88.5 112.5 437.5 461.5> 478 22<221.063 351.616>
VStem: 88.5 24<0 369.525 398 495> 437.5 24<0 395.606>
LayerCount: 2
Fore
SplineSet
437.5 0 m 1,0,-1
 437.5 327 l 2,1,2
 437.5 401 437.5 401 397 439.5 c 128,-1,3
 356.5 478 356.5 478 283.5 478 c 0,4,5
 211.5 478 211.5 478 162 428 c 128,-1,6
 112.5 378 112.5 378 112.5 302 c 2,7,-1
 112.5 0 l 1,8,-1
 88.5 0 l 1,9,-1
 88.5 495 l 1,10,-1
 112.5 495 l 1,11,-1
 112.5 398 l 1,12,-1
 114.5 398 l 1,13,14
 137.5 449 137.5 449 186 474.5 c 128,-1,15
 234.5 500 234.5 500 285.5 500 c 0,16,17
 372.5 500 372.5 500 417 456.5 c 128,-1,18
 461.5 413 461.5 413 461.5 334 c 2,19,-1
 461.5 0 l 1,20,-1
 437.5 0 l 1,0,-1
EndSplineSet
EndChar

StartChar: o
Encoding: 111 111 82
Width: 550
GlyphClass: 2
Flags: W
HStem: -6 21<211.739 338.055> 479 22<214.357 339.842>
VStem: 77.5 25<141.075 350.585> 447.5 25<138.204 360.161>
LayerCount: 2
Fore
SplineSet
277.5 501 m 0,0,1
 385.5 501 385.5 501 436.5 422 c 0,2,3
 472.5 365 472.5 365 472.5 244 c 0,4,5
 472.5 111 472.5 111 415.5 49 c 0,6,7
 365.5 -6 365.5 -6 272.5 -6 c 0,8,9
 187.5 -6 187.5 -6 140.5 41 c 0,10,11
 77.5 104 77.5 104 77.5 251 c 0,12,13
 77.5 394 77.5 394 147.5 455 c 0,14,15
 200.5 501 200.5 501 277.5 501 c 0,0,1
276.5 479 m 0,16,17
 203.5 479 203.5 479 157.5 431 c 0,18,19
 102.5 374 102.5 374 102.5 248 c 0,20,21
 102.5 115 102.5 115 158.5 59 c 0,22,23
 202.5 15 202.5 15 275.5 15 c 0,24,25
 350.5 15 350.5 15 396.5 63 c 0,26,27
 447.5 117 447.5 117 447.5 245 c 0,28,29
 447.5 363 447.5 363 413.5 411 c 0,30,31
 366.5 479 366.5 479 276.5 479 c 0,16,17
EndSplineSet
EndChar

StartChar: p
Encoding: 112 112 83
Width: 550
GlyphClass: 2
Flags: W
HStem: -200 21G<87 112> -4 21<215.849 334.089> 475 20G<87 112> 482 21<219.426 339.102>
VStem: 87 25<-200 101 146.531 349.598 398 495> 438 25<145.209 360.751>
LayerCount: 2
Fore
SplineSet
87 495 m 1,0,-1
 112 495 l 1,1,-1
 112 398 l 1,2,-1
 113 398 l 1,3,4
 164 503 164 503 279 503 c 0,5,6
 380 503 380 503 421.5 434 c 128,-1,7
 463 365 463 365 463 245 c 0,8,9
 463 196 463 196 453.5 154.5 c 128,-1,10
 444 113 444 113 423.5 76 c 128,-1,11
 403 39 403 39 364.5 17.5 c 128,-1,12
 326 -4 326 -4 273 -4 c 0,13,14
 164 -4 164 -4 113 101 c 1,15,-1
 112 101 l 1,16,-1
 112 -200 l 1,17,-1
 87 -200 l 1,18,-1
 87 495 l 1,0,-1
112 252 m 0,19,20
 112 147 112 147 151.5 82 c 128,-1,21
 191 17 191 17 273 17 c 0,22,23
 438 17 438 17 438 249 c 0,24,25
 438 283 438 283 435.5 310.5 c 128,-1,26
 433 338 433 338 423.5 372 c 128,-1,27
 414 406 414 406 397.5 428.5 c 128,-1,28
 381 451 381 451 351 466.5 c 128,-1,29
 321 482 321 482 279 482 c 0,30,31
 230 482 230 482 195 459.5 c 128,-1,32
 160 437 160 437 143 400 c 128,-1,33
 126 363 126 363 119 327 c 128,-1,34
 112 291 112 291 112 252 c 0,19,20
EndSplineSet
EndChar

StartChar: q
Encoding: 113 113 84
Width: 550
GlyphClass: 2
Flags: W
HStem: -200 21G<438 463> -4 22<213.127 334.243> 475 20G<438 463> 482 21<216.415 332.604>
VStem: 87 25<146.193 352.446> 438 25<-200 110 149.914 350.312 393 495>
LayerCount: 2
Fore
SplineSet
463 -200 m 1,0,-1
 438 -200 l 1,1,-1
 438 110 l 1,2,-1
 437 110 l 1,3,4
 393 -4 393 -4 273 -4 c 0,5,6
 219 -4 219 -4 180.5 18 c 128,-1,7
 142 40 142 40 123 78 c 128,-1,8
 104 116 104 116 95.5 156.5 c 128,-1,9
 87 197 87 197 87 245 c 0,10,11
 87 360 87 360 131.5 431.5 c 128,-1,12
 176 503 176 503 278 503 c 0,13,14
 395 503 395 503 437 393 c 1,15,-1
 438 393 l 1,16,-1
 438 495 l 1,17,-1
 463 495 l 1,18,-1
 463 -200 l 1,0,-1
438 252 m 0,19,20
 438 291 438 291 431 327.5 c 128,-1,21
 424 364 424 364 407.5 400.5 c 128,-1,22
 391 437 391 437 357 459.5 c 128,-1,23
 323 482 323 482 277 482 c 0,24,25
 227 482 227 482 192.5 460 c 128,-1,26
 158 438 158 438 141.5 400.5 c 128,-1,27
 125 363 125 363 118.5 326.5 c 128,-1,28
 112 290 112 290 112 249 c 0,29,30
 112 206 112 206 119 169 c 128,-1,31
 126 132 126 132 142.5 96 c 128,-1,32
 159 60 159 60 193 39 c 128,-1,33
 227 18 227 18 276 18 c 0,34,35
 355 18 355 18 396.5 83 c 128,-1,36
 438 148 438 148 438 252 c 0,19,20
EndSplineSet
EndChar

StartChar: r
Encoding: 114 114 85
Width: 550
GlyphClass: 2
Flags: W
HStem: 0 21G<124.5 148.5> 476 24<243.543 373.732>
VStem: 124.5 24<0 377.226 402 495>
LayerCount: 2
Fore
SplineSet
425.5 466 m 1,0,-1
 414.5 444 l 1,1,2
 363.5 476 363.5 476 306.5 476 c 0,3,4
 236.5 476 236.5 476 192.5 430 c 128,-1,5
 148.5 384 148.5 384 148.5 303 c 2,6,-1
 148.5 0 l 1,7,-1
 124.5 0 l 1,8,-1
 124.5 495 l 1,9,-1
 148.5 495 l 1,10,-1
 148.5 402 l 1,11,-1
 150.5 402 l 1,12,13
 194.5 500 194.5 500 308.5 500 c 0,14,15
 369.5 500 369.5 500 425.5 466 c 1,0,-1
EndSplineSet
EndChar

StartChar: s
Encoding: 115 115 86
Width: 550
GlyphClass: 2
Flags: W
HStem: -7 22<190.708 354.016> 479 22<215.509 370.125>
VStem: 114 26<326.747 422.783> 438 26<78.324 177.275>
LayerCount: 2
Fore
SplineSet
464 128 m 0,0,1
 464 69 464 69 415.5 31 c 128,-1,2
 367 -7 367 -7 274 -7 c 0,3,4
 162 -7 162 -7 86 48 c 1,5,-1
 100 68 l 1,6,7
 170 15 170 15 283 15 c 0,8,9
 310 15 310 15 335 20.5 c 128,-1,10
 360 26 360 26 384 38 c 128,-1,11
 408 50 408 50 423 74 c 128,-1,12
 438 98 438 98 438 131 c 0,13,14
 438 221 438 221 289 245 c 0,15,16
 247 252 247 252 220 259.5 c 128,-1,17
 193 267 193 267 166.5 280.5 c 128,-1,18
 140 294 140 294 127 316 c 128,-1,19
 114 338 114 338 114 369 c 0,20,21
 114 431 114 431 160 466 c 128,-1,22
 206 501 206 501 291 501 c 0,23,24
 383 501 383 501 447 461 c 1,25,-1
 433 440 l 1,26,27
 370 479 370 479 295 479 c 0,28,29
 223 479 223 479 181.5 452.5 c 128,-1,30
 140 426 140 426 140 372 c 0,31,32
 140 351 140 351 148.5 334.5 c 128,-1,33
 157 318 157 318 168.5 308.5 c 128,-1,34
 180 299 180 299 202 290.5 c 128,-1,35
 224 282 224 282 241 278.5 c 128,-1,36
 258 275 258 275 287 269 c 0,37,38
 327 262 327 262 352 254 c 128,-1,39
 377 246 377 246 406 231 c 128,-1,40
 435 216 435 216 449.5 190 c 128,-1,41
 464 164 464 164 464 128 c 0,0,1
EndSplineSet
EndChar

StartChar: t
Encoding: 116 116 87
Width: 550
GlyphClass: 2
Flags: W
HStem: 0 25<241.076 376.164> 473 22<124 161 186 409>
VStem: 161 25<86.0911 473 495 635>
LayerCount: 2
Fore
SplineSet
161 473 m 1,0,-1
 124 473 l 1,1,-1
 124 495 l 1,2,-1
 161 495 l 1,3,-1
 161 635 l 1,4,-1
 186 635 l 1,5,-1
 186 495 l 1,6,-1
 409 495 l 1,7,-1
 409 473 l 1,8,-1
 186 473 l 1,9,-1
 186 159 l 2,10,11
 186 95 186 95 212.5 60 c 128,-1,12
 239 25 239 25 306 25 c 0,13,14
 368 25 368 25 412 57 c 1,15,-1
 426 35 l 1,16,17
 404 20 404 20 369.5 10 c 128,-1,18
 335 0 335 0 306 0 c 0,19,20
 237 0 237 0 199 35 c 128,-1,21
 161 70 161 70 161 157 c 2,22,-1
 161 473 l 1,0,-1
EndSplineSet
EndChar

StartChar: u
Encoding: 117 117 88
Width: 550
GlyphClass: 2
Flags: W
HStem: 0 17<209.123 321.665> 475 20G<88.5 113.5 438.5 461.5>
VStem: 88.5 25<100.892 495> 438.5 23<0 92 124.792 495>
LayerCount: 2
Fore
SplineSet
461.5 0 m 1,0,-1
 437.5 0 l 1,1,-1
 437.5 92 l 1,2,-1
 435.5 92 l 1,3,4
 414.5 44 414.5 44 364.5 19.5 c 128,-1,5
 314.5 -5 314.5 -5 264.5 -5 c 0,6,7
 180.5 -5 180.5 -5 134.5 42 c 128,-1,8
 88.5 89 88.5 89 88.5 167 c 2,9,-1
 88.5 495 l 1,10,-1
 113.5 495 l 1,11,-1
 113.5 169 l 2,12,13
 113.5 96 113.5 96 155.5 56.5 c 128,-1,14
 197.5 17 197.5 17 265.5 17 c 0,15,16
 338.5 17 338.5 17 388.5 65.5 c 128,-1,17
 438.5 114 438.5 114 438.5 190 c 2,18,-1
 438.5 495 l 1,19,-1
 461.5 495 l 1,20,-1
 461.5 0 l 1,0,-1
EndSplineSet
EndChar

StartChar: v
Encoding: 118 118 89
Width: 550
GlyphClass: 2
Flags: W
HStem: 0 21G<254.591 296.368> 474 20G<79 114.304 435.783 471>
LayerCount: 2
Fore
SplineSet
471 494 m 1,0,-1
 289 0 l 1,1,-1
 262 0 l 1,2,-1
 79 494 l 1,3,-1
 107 494 l 1,4,-1
 275 34 l 1,5,-1
 277 34 l 1,6,-1
 443 494 l 1,7,-1
 471 494 l 1,0,-1
EndSplineSet
EndChar

StartChar: w
Encoding: 119 119 90
Width: 550
GlyphClass: 2
Flags: W
HStem: 0 21G<133.338 171.305 388.695 427.217> 475 20G<34.5 65.5444 485.908 515.5>
LayerCount: 2
Fore
SplineSet
515.5 495 m 1,0,-1
 423.5 0 l 1,1,-1
 395.5 0 l 1,2,-1
 280.5 338 l 1,3,-1
 279.5 338 l 1,4,-1
 164.5 0 l 1,5,-1
 137.5 0 l 1,6,-1
 34.5 495 l 1,7,-1
 61.5 495 l 1,8,-1
 152.5 45 l 1,9,-1
 154.5 45 l 1,10,-1
 266.5 376 l 1,11,-1
 294.5 376 l 1,12,-1
 406.5 44 l 1,13,-1
 408.5 44 l 1,14,-1
 489.5 495 l 1,15,-1
 515.5 495 l 1,0,-1
EndSplineSet
EndChar

StartChar: x
Encoding: 120 120 91
Width: 550
GlyphClass: 2
Flags: W
HStem: 0 21G<95.5 137.105 412.811 454.5> 475 20G<104.5 146.089 402 445.5>
LayerCount: 2
Fore
SplineSet
454.5 0 m 1,0,-1
 425.5 0 l 1,1,-1
 274.5 238 l 1,2,-1
 124.5 0 l 1,3,-1
 95.5 0 l 1,4,-1
 258.5 254 l 1,5,-1
 104.5 495 l 1,6,-1
 133.5 495 l 1,7,-1
 274.5 271 l 1,8,-1
 414.5 495 l 1,9,-1
 445.5 495 l 1,10,-1
 289.5 254 l 1,11,-1
 454.5 0 l 1,0,-1
EndSplineSet
EndChar

StartChar: y
Encoding: 121 121 92
Width: 550
GlyphClass: 2
Flags: W
HStem: -201 23<102.5 185.115> 474 20G<77.5 112.715 438.411 472.5>
LayerCount: 2
Fore
SplineSet
472.5 494 m 1,0,-1
 254.5 -115 l 2,1,2
 238.5 -159 238.5 -159 210.5 -180 c 128,-1,3
 182.5 -201 182.5 -201 131.5 -201 c 2,4,-1
 102.5 -201 l 1,5,-1
 102.5 -178 l 1,6,-1
 129.5 -178 l 2,7,8
 173.5 -178 173.5 -178 197 -159.5 c 128,-1,9
 220.5 -141 220.5 -141 234.5 -100 c 2,10,-1
 263.5 -14 l 1,11,-1
 77.5 494 l 1,12,-1
 105.5 494 l 1,13,-1
 276.5 20 l 1,14,-1
 277.5 20 l 1,15,-1
 445.5 494 l 1,16,-1
 472.5 494 l 1,0,-1
EndSplineSet
EndChar

StartChar: z
Encoding: 122 122 93
Width: 550
GlyphClass: 2
Flags: W
HStem: 0 21<130.5 448.5> 474 21<117.5 417.5>
LayerCount: 2
Fore
SplineSet
101.5 0 m 1,0,-1
 101.5 20 l 1,1,-1
 417.5 474 l 1,2,-1
 117.5 474 l 1,3,-1
 117.5 495 l 1,4,-1
 445.5 495 l 1,5,-1
 445.5 475 l 1,6,-1
 130.5 21 l 1,7,-1
 448.5 21 l 1,8,-1
 448.5 0 l 1,9,-1
 101.5 0 l 1,0,-1
EndSplineSet
EndChar

StartChar: braceleft
Encoding: 123 123 94
Width: 550
GlyphClass: 2
Flags: W
HStem: -122 17<294.479 374> 710 16<294.91 374>
VStem: 176 25<299.371 310.685> 244 20<-70.8037 237.335 379.783 675.451>
LayerCount: 2
Fore
SplineSet
244 138 m 6,0,1
 244 214 244 214 231 249 c 132,-1,2
 218 284 218 284 176 297 c 5,3,-1
 176 310 l 5,4,5
 245 331 245 331 245 471 c 6,6,-1
 245 626 l 6,7,8
 245 672 245 672 264 699 c 132,-1,9
 283 726 283 726 318 726 c 6,10,-1
 374 726 l 5,11,-1
 374 710 l 5,12,-1
 323 710 l 6,13,14
 264 710 264 710 264 612 c 6,15,-1
 264 453 l 6,16,17
 264 395 264 395 246 354.5 c 132,-1,18
 228 314 228 314 201 305 c 5,19,-1
 201 304 l 5,20,21
 264 284 264 284 264 164 c 6,22,-1
 264 -8 l 6,23,24
 264 -105 264 -105 323 -105 c 6,25,-1
 374 -105 l 5,26,-1
 374 -122 l 5,27,-1
 318 -122 l 6,28,29
 283 -122 283 -122 263.5 -94.5 c 132,-1,30
 244 -67 244 -67 244 -22 c 6,31,-1
 244 138 l 6,0,1
EndSplineSet
EndChar

StartChar: bar
Encoding: 124 124 95
Width: 550
GlyphClass: 2
Flags: W
VStem: 265.5 19<-162 716>
LayerCount: 2
Fore
SplineSet
265.5 -162 m 1,0,-1
 265.5 716 l 1,1,-1
 284.5 716 l 1,2,-1
 284.5 -162 l 1,3,-1
 265.5 -162 l 1,0,-1
EndSplineSet
EndChar

StartChar: braceright
Encoding: 125 125 96
Width: 550
GlyphClass: 2
Flags: W
HStem: -122 17<227 255.521> 710 16<227 255.09>
VStem: 286 20<-70.8037 -8 138 237.335 379.783 471 612 675.451> 349 25<299.371 304 305 310.685>
LayerCount: 2
Fore
SplineSet
306 138 m 6,0,1
 306 214 306 214 319 249 c 132,-1,2
 332 284 332 284 374 297 c 5,3,-1
 374 310 l 5,4,5
 305 331 305 331 305 471 c 6,6,-1
 305 626 l 6,7,8
 305 672 305 672 286 699 c 132,-1,9
 267 726 267 726 232 726 c 6,10,-1
 176 726 l 5,11,-1
 176 710 l 5,12,-1
 227 710 l 6,13,14
 286 710 286 710 286 612 c 6,15,-1
 286 453 l 6,16,17
 286 395 286 395 304 354.5 c 132,-1,18
 322 314 322 314 349 305 c 5,19,-1
 349 304 l 5,20,21
 286 284 286 284 286 164 c 6,22,-1
 286 -8 l 6,23,24
 286 -105 286 -105 227 -105 c 6,25,-1
 176 -105 l 5,26,-1
 176 -122 l 5,27,-1
 232 -122 l 6,28,29
 267 -122 267 -122 286.5 -94.5 c 132,-1,30
 306 -67 306 -67 306 -22 c 6,31,-1
 306 138 l 6,0,1
EndSplineSet
EndChar

StartChar: asciitilde
Encoding: 126 126 97
Width: 550
GlyphClass: 2
Flags: W
HStem: 227 28<303.171 391.086> 269 28<161.115 262.195>
LayerCount: 2
Fore
SplineSet
209 297 m 0,0,1
 233 297 233 297 284.5 276 c 128,-1,2
 336 255 336 255 355 255 c 0,3,4
 386 255 386 255 421 298 c 1,5,-1
 444 283 l 1,6,7
 406 227 406 227 354 227 c 0,8,9
 333 227 333 227 281 248 c 128,-1,10
 229 269 229 269 206 269 c 0,11,12
 166 269 166 269 126 227 c 1,13,-1
 106 242 l 1,14,15
 152 297 152 297 209 297 c 0,0,1
EndSplineSet
EndChar

StartChar: exclamdown
Encoding: 161 161 98
Width: 550
GlyphClass: 2
Flags: W
LayerCount: 2
Fore
SplineSet
266 294 m 1,0,-1
 282 294 l 1,1,-1
 288 -208 l 1,2,-1
 260 -208 l 1,3,-1
 266 294 l 1,0,-1
257 488 m 1,4,-1
 293 488 l 1,5,-1
 293 447 l 1,6,-1
 257 447 l 1,7,-1
 257 488 l 1,4,-1
EndSplineSet
EndChar

StartChar: cent
Encoding: 162 162 99
Width: 550
GlyphClass: 2
Flags: W
LayerCount: 2
Fore
SplineSet
303 -6 m 1,0,-1
 303 -112 l 1,1,-1
 284 -112 l 1,2,-1
 284 -5 l 1,3,4
 202 4 202 4 149 65.5 c 128,-1,5
 96 127 96 127 96 247 c 0,6,7
 96 366 96 366 149.5 428 c 128,-1,8
 203 490 203 490 284 499 c 1,9,-1
 284 611 l 1,10,-1
 303 611 l 1,11,-1
 303 501 l 1,12,13
 389 501 389 501 449 454 c 1,14,-1
 435 435 l 1,15,16
 380 479 380 479 303 479 c 1,17,-1
 303 13 l 1,18,19
 385 13 385 13 440 58 c 1,20,-1
 454 41 l 1,21,22
 394 -6 394 -6 303 -6 c 1,0,-1
121 247 m 0,23,24
 121 146 121 146 163 86 c 128,-1,25
 205 26 205 26 284 15 c 1,26,-1
 284 477 l 1,27,28
 205 466 205 466 163 406.5 c 128,-1,29
 121 347 121 347 121 247 c 0,23,24
EndSplineSet
EndChar

StartChar: sterling
Encoding: 163 163 100
Width: 550
GlyphClass: 2
Flags: W
HStem: 0 24<103.5 471.5> 308 18<78.5 162.5 186.5 331.5> 680 19<221.6 339.664>
VStem: 109.5 23<471.577 598.956> 164.5 22<189.822 308 326 371.007>
LayerCount: 2
Fore
SplineSet
80.5 0 m 1,0,-1
 80.5 24 l 1,1,2
 168.5 141 168.5 141 164.5 308 c 1,3,-1
 78.5 308 l 1,4,-1
 78.5 326 l 1,5,-1
 162.5 326 l 1,6,7
 158.5 357 158.5 357 148.5 389 c 0,8,9
 145.5 400 145.5 400 133.5 433 c 128,-1,10
 121.5 466 121.5 466 115.5 489.5 c 128,-1,11
 109.5 513 109.5 513 109.5 535 c 0,12,13
 109.5 604 109.5 604 152.5 651.5 c 128,-1,14
 195.5 699 195.5 699 278.5 699 c 0,15,16
 388.5 699 388.5 699 449.5 617 c 1,17,-1
 430.5 606 l 1,18,19
 377.5 680 377.5 680 275.5 680 c 0,20,21
 251.5 680 251.5 680 228.5 673 c 128,-1,22
 205.5 666 205.5 666 183 650.5 c 128,-1,23
 160.5 635 160.5 635 146.5 605 c 128,-1,24
 132.5 575 132.5 575 132.5 535 c 0,25,26
 132.5 500 132.5 500 154.5 440 c 0,27,28
 175.5 384 175.5 384 185.5 326 c 1,29,-1
 331.5 326 l 1,30,-1
 331.5 308 l 1,31,-1
 186.5 308 l 1,32,33
 186.5 131 186.5 131 103.5 24 c 1,34,-1
 471.5 24 l 1,35,-1
 471.5 0 l 1,36,-1
 80.5 0 l 1,0,-1
EndSplineSet
EndChar

StartChar: currency
Encoding: 164 164 101
Width: 550
GlyphClass: 2
Flags: W
HStem: 164 28<215.741 336.755> 460 25<220.313 333.882> 480 20G<102.5 139.5>
VStem: 117.5 26<267.289 385.734> 409.5 27<266.819 385.294>
LayerCount: 2
Fore
SplineSet
98.5 173 m 2,0,-1
 151.5 226 l 1,1,2
 117.5 271 117.5 271 117.5 326 c 0,3,4
 116.5 381 116.5 381 155.5 430 c 1,5,-1
 102.5 483 l 1,6,-1
 119.5 500 l 1,7,-1
 172.5 447 l 1,8,9
 219.5 485 219.5 485 275.5 485 c 0,10,11
 326.5 485 326.5 485 375.5 450 c 1,12,-1
 428.5 503 l 1,13,-1
 445.5 486 l 1,14,-1
 392.5 432 l 1,15,16
 436.5 385 436.5 385 436.5 327 c 0,17,18
 436.5 272 436.5 272 398.5 222 c 1,19,-1
 451.5 169 l 1,20,-1
 433.5 151 l 1,21,-1
 380.5 204 l 1,22,23
 335.5 166 335.5 166 276.5 164 c 0,24,25
 216.5 165 216.5 165 168.5 208 c 1,26,-1
 115.5 155 l 1,27,28
 113.5 158 113.5 158 106.5 164.5 c 128,-1,29
 99.5 171 99.5 171 98.5 173 c 2,0,-1
276.5 460 m 0,30,31
 220.5 459 220.5 459 182 421 c 128,-1,32
 143.5 383 143.5 383 143.5 327 c 0,33,34
 143.5 270 143.5 270 181.5 231 c 128,-1,35
 219.5 192 219.5 192 275.5 192 c 0,36,37
 332.5 192 332.5 192 371 231 c 128,-1,38
 409.5 270 409.5 270 409.5 326 c 128,-1,39
 409.5 382 409.5 382 371 421 c 128,-1,40
 332.5 460 332.5 460 276.5 460 c 0,30,31
EndSplineSet
EndChar

StartChar: yen
Encoding: 165 165 102
Width: 550
GlyphClass: 2
Flags: W
HStem: 0 21G<263 288> 192 23<83 263 288 470> 287 23<83 253 298 470> 676 20G<55 92.1837 458.869 495>
VStem: 263 25<0 192>
LayerCount: 2
Fore
SplineSet
470 287 m 1,0,-1
 83 287 l 1,1,-1
 83 310 l 1,2,-1
 253 310 l 1,3,-1
 55 696 l 1,4,-1
 82 696 l 1,5,-1
 276 315 l 1,6,-1
 469 696 l 1,7,-1
 495 696 l 1,8,-1
 298 310 l 1,9,-1
 470 310 l 1,10,-1
 470 287 l 1,0,-1
83 215 m 1,11,-1
 470 215 l 1,12,-1
 470 192 l 1,13,-1
 288 192 l 1,14,-1
 288 0 l 1,15,-1
 263 0 l 1,16,-1
 263 192 l 1,17,-1
 83 192 l 1,18,-1
 83 215 l 1,11,-1
EndSplineSet
EndChar

StartChar: brokenbar
Encoding: 166 166 103
Width: 550
GlyphClass: 2
Flags: W
VStem: 265.5 19<-162 251 305 716>
LayerCount: 2
Fore
SplineSet
284.5 305 m 1,0,-1
 265.5 305 l 1,1,-1
 265.5 716 l 1,2,-1
 284.5 716 l 1,3,-1
 284.5 305 l 1,0,-1
265.5 251 m 1,4,-1
 284.5 251 l 1,5,-1
 284.5 -162 l 1,6,-1
 265.5 -162 l 1,7,-1
 265.5 251 l 1,4,-1
EndSplineSet
EndChar

StartChar: section
Encoding: 167 167 104
Width: 550
GlyphClass: 2
Flags: W
HStem: -80 23<192.296 329.763> 679 24<204.234 334.336>
VStem: 101.5 24<305.376 402.43> 116.5 25<519.025 620.708> 407.5 24<9.07568 116.95> 423.5 25<221.771 330.741>
LayerCount: 2
Fore
SplineSet
107.5 -22 m 1,0,-1
 123.5 -6 l 1,1,2
 186.5 -57 186.5 -57 256.5 -57 c 0,3,4
 324.5 -57 324.5 -57 366 -27 c 128,-1,5
 407.5 3 407.5 3 407.5 67 c 0,6,7
 407.5 118 407.5 118 369.5 148.5 c 128,-1,8
 331.5 179 331.5 179 257.5 205 c 0,9,10
 167.5 238 167.5 238 134.5 269.5 c 128,-1,11
 101.5 301 101.5 301 101.5 357 c 0,12,13
 101.5 420 101.5 420 163.5 468 c 1,14,15
 116.5 511 116.5 511 116.5 564 c 0,16,17
 116.5 627 116.5 627 157 665 c 128,-1,18
 197.5 703 197.5 703 265.5 703 c 0,19,20
 352.5 703 352.5 703 411.5 655 c 1,21,-1
 394.5 633 l 1,22,23
 339.5 679 339.5 679 265.5 679 c 0,24,25
 209.5 679 209.5 679 175.5 648.5 c 128,-1,26
 141.5 618 141.5 618 141.5 569 c 0,27,28
 141.5 557 141.5 557 144.5 545.5 c 128,-1,29
 147.5 534 147.5 534 150.5 525.5 c 128,-1,30
 153.5 517 153.5 517 162 508 c 128,-1,31
 170.5 499 170.5 499 175.5 493.5 c 128,-1,32
 180.5 488 180.5 488 193.5 480.5 c 128,-1,33
 206.5 473 206.5 473 212 469.5 c 128,-1,34
 217.5 466 217.5 466 234 459 c 128,-1,35
 250.5 452 250.5 452 255 450.5 c 128,-1,36
 259.5 449 259.5 449 278 442 c 128,-1,37
 296.5 435 296.5 435 299.5 434 c 0,38,39
 368.5 409 368.5 409 408.5 373.5 c 128,-1,40
 448.5 338 448.5 338 448.5 279 c 0,41,42
 448.5 208 448.5 208 393.5 164 c 1,43,44
 431.5 120 431.5 120 431.5 65 c 0,45,46
 431.5 0 431.5 0 386.5 -40 c 128,-1,47
 341.5 -80 341.5 -80 258.5 -80 c 0,48,49
 218.5 -80 218.5 -80 176.5 -63.5 c 128,-1,50
 134.5 -47 134.5 -47 107.5 -22 c 1,0,-1
271.5 418 m 0,51,52
 232.5 432 232.5 432 185.5 457 c 1,53,54
 125.5 411 125.5 411 125.5 357 c 0,55,56
 125.5 331 125.5 331 134 311.5 c 128,-1,57
 142.5 292 142.5 292 160 279 c 128,-1,58
 177.5 266 177.5 266 192 259 c 128,-1,59
 206.5 252 206.5 252 230 242.5 c 128,-1,60
 253.5 233 253.5 233 262.5 229 c 0,61,62
 342.5 196 342.5 196 373.5 178 c 1,63,64
 423.5 215 423.5 215 423.5 278 c 0,65,66
 423.5 332 423.5 332 386 361 c 128,-1,67
 348.5 390 348.5 390 271.5 418 c 0,51,52
EndSplineSet
EndChar

StartChar: dieresis
Encoding: 168 168 105
Width: 550
GlyphClass: 2
Flags: W
HStem: 624 36<179 217 333 371>
VStem: 179 38<624 660> 333 38<624 660>
LayerCount: 2
Fore
SplineSet
333 624 m 1,0,-1
 333 660 l 1,1,-1
 371 660 l 1,2,-1
 371 624 l 1,3,-1
 333 624 l 1,0,-1
179 624 m 1,4,-1
 179 660 l 1,5,-1
 217 660 l 1,6,-1
 217 624 l 1,7,-1
 179 624 l 1,4,-1
EndSplineSet
EndChar

StartChar: copyright
Encoding: 169 169 106
Width: 550
GlyphClass: 2
Flags: W
HStem: -7 20<197.785 355.723> 131 23<225.981 334.248> 529 23<225.467 333.154> 682 21<196.872 357.644>
VStem: 20 22<164.271 531.284> 138 24<220.057 463.604> 508 22<163.969 535.305>
LayerCount: 2
Fore
SplineSet
277 703 m 0,0,1
 394 703 394 703 462 635.5 c 128,-1,2
 530 568 530 568 530 460 c 2,3,-1
 530 243 l 2,4,5
 530 129 530 129 460.5 61 c 128,-1,6
 391 -7 391 -7 277 -7 c 0,7,8
 153 -7 153 -7 86.5 64 c 128,-1,9
 20 135 20 135 20 243 c 2,10,-1
 20 460 l 2,11,12
 20 563 20 563 89 633 c 128,-1,13
 158 703 158 703 277 703 c 0,0,1
278 682 m 0,14,15
 167 682 167 682 104.5 618.5 c 128,-1,16
 42 555 42 555 42 458 c 2,17,-1
 42 238 l 2,18,19
 42 142 42 142 103 77.5 c 128,-1,20
 164 13 164 13 278 13 c 0,21,22
 386 13 386 13 447 76.5 c 128,-1,23
 508 140 508 140 508 244 c 2,24,-1
 508 458 l 2,25,26
 508 558 508 558 446.5 620 c 128,-1,27
 385 682 385 682 278 682 c 0,14,15
387 221 m 1,28,-1
 410 211 l 1,29,30
 393 174 393 174 359 152.5 c 128,-1,31
 325 131 325 131 282 131 c 0,32,33
 211 131 211 131 174.5 173.5 c 128,-1,34
 138 216 138 216 138 281 c 2,35,-1
 138 405 l 2,36,37
 138 467 138 467 176.5 509.5 c 128,-1,38
 215 552 215 552 282 552 c 0,39,40
 324 552 324 552 357 532.5 c 128,-1,41
 390 513 390 513 408 479 c 1,42,-1
 386 466 l 1,43,44
 372 494 372 494 344.5 511.5 c 128,-1,45
 317 529 317 529 283 529 c 0,46,47
 224 529 224 529 193 494 c 128,-1,48
 162 459 162 459 162 404 c 2,49,-1
 162 279 l 2,50,51
 162 225 162 225 193 189.5 c 128,-1,52
 224 154 224 154 283 154 c 0,53,54
 353 154 353 154 387 221 c 1,28,-1
EndSplineSet
EndChar

StartChar: ordfeminine
Encoding: 170 170 107
Width: 550
GlyphClass: 2
Flags: W
HStem: 271 19<211.997 324.461> 439 17<208.868 387> 585 19<223.893 336.775>
VStem: 142 21<328.259 402.864> 387 21<276 324 338.801 439 456 540.106>
LayerCount: 2
Fore
SplineSet
387 276 m 1,0,-1
 387 324 l 1,1,2
 355 271 355 271 264 271 c 0,3,4
 212 271 212 271 177 294 c 128,-1,5
 142 317 142 317 142 364 c 0,6,7
 142 407 142 407 171 431.5 c 128,-1,8
 200 456 200 456 254 456 c 2,9,-1
 387 456 l 1,10,-1
 387 492 l 2,11,12
 387 585 387 585 280 585 c 0,13,14
 220 585 220 585 176 548 c 1,15,-1
 163 563 l 1,16,17
 210 604 210 604 282 604 c 0,18,19
 408 604 408 604 408 495 c 2,20,-1
 408 276 l 1,21,-1
 387 276 l 1,0,-1
387 439 m 1,22,-1
 258 439 l 2,23,24
 214 439 214 439 188.5 419.5 c 128,-1,25
 163 400 163 400 163 364 c 0,26,27
 163 329 163 329 192 309.5 c 128,-1,28
 221 290 221 290 267 290 c 0,29,30
 319 290 319 290 353 313.5 c 128,-1,31
 387 337 387 337 387 380 c 2,32,-1
 387 439 l 1,22,-1
EndSplineSet
EndChar

StartChar: guillemotleft
Encoding: 171 171 108
Width: 550
GlyphClass: 2
Flags: W
HStem: 46 331
VStem: 146.5 257
LayerCount: 2
Fore
SplineSet
286.5 46 m 1,0,-1
 257.5 46 l 1,1,-1
 146.5 212 l 1,2,-1
 259.5 377 l 1,3,-1
 286.5 377 l 1,4,-1
 176.5 212 l 1,5,-1
 286.5 46 l 1,0,-1
403.5 46 m 1,6,-1
 374.5 46 l 1,7,-1
 263.5 212 l 1,8,-1
 376.5 377 l 1,9,-1
 403.5 377 l 1,10,-1
 293.5 212 l 1,11,-1
 403.5 46 l 1,6,-1
EndSplineSet
EndChar

StartChar: logicalnot
Encoding: 172 172 109
Width: 550
GlyphClass: 2
Flags: W
HStem: 261 24<75.5 451.5>
VStem: 451.5 23<65 261>
LayerCount: 2
Fore
SplineSet
474.5 285 m 1,0,-1
 474.5 65 l 1,1,-1
 451.5 65 l 1,2,-1
 451.5 261 l 1,3,-1
 75.5 261 l 1,4,-1
 75.5 285 l 1,5,-1
 474.5 285 l 1,0,-1
EndSplineSet
EndChar

StartChar: sfthyphen
Encoding: 173 173 110
Width: 550
GlyphClass: 2
Flags: W
LayerCount: 2
Fore
SplineSet
149.5 253 m 1,0,-1
 149.5 279 l 1,1,-1
 400.5 279 l 1,2,-1
 400.5 253 l 1,3,-1
 149.5 253 l 1,0,-1
EndSplineSet
EndChar

StartChar: registered
Encoding: 174 174 111
Width: 550
GlyphClass: 2
Flags: W
LayerCount: 2
Fore
SplineSet
275 280 m 0,0,1
 191 280 191 280 132.5 341 c 128,-1,2
 74 402 74 402 74 492 c 128,-1,3
 74 582 74 582 132.5 643 c 128,-1,4
 191 704 191 704 275 704 c 0,5,6
 361 704 361 704 418.5 643.5 c 128,-1,7
 476 583 476 583 476 492 c 0,8,9
 476 402 476 402 418 341 c 128,-1,10
 360 280 360 280 275 280 c 0,0,1
275 688 m 128,-1,12
 198 688 198 688 146.5 631.5 c 128,-1,13
 95 575 95 575 95 492 c 128,-1,14
 95 409 95 409 146.5 352.5 c 128,-1,15
 198 296 198 296 275 296 c 128,-1,16
 352 296 352 296 404 352.5 c 128,-1,17
 456 409 456 409 456 492 c 128,-1,18
 456 575 456 575 404 631.5 c 128,-1,11
 352 688 352 688 275 688 c 128,-1,12
312 484 m 1,19,-1
 372 370 l 1,20,-1
 351 370 l 1,21,-1
 292 483 l 1,22,-1
 221 483 l 1,23,-1
 221 370 l 1,24,-1
 203 370 l 1,25,-1
 203 614 l 1,26,-1
 299 614 l 2,27,28
 331 614 331 614 351.5 597 c 128,-1,29
 372 580 372 580 372 551 c 0,30,31
 372 525 372 525 356 506.5 c 128,-1,32
 340 488 340 488 312 484 c 1,19,-1
295 598 m 2,33,-1
 221 598 l 1,34,-1
 221 499 l 1,35,-1
 294 499 l 2,36,37
 321 499 321 499 337 512.5 c 128,-1,38
 353 526 353 526 353 551 c 0,39,40
 353 574 353 574 336.5 586 c 128,-1,41
 320 598 320 598 295 598 c 2,33,-1
EndSplineSet
EndChar

StartChar: macron
Encoding: 175 175 112
Width: 550
GlyphClass: 2
Flags: W
LayerCount: 2
Fore
SplineSet
151 600 m 1,0,-1
 151 624 l 1,1,-1
 399 624 l 1,2,-1
 399 600 l 1,3,-1
 151 600 l 1,0,-1
EndSplineSet
EndChar

StartChar: degree
Encoding: 176 176 113
Width: 550
GlyphClass: 2
Flags: W
LayerCount: 2
Fore
SplineSet
275 465 m 128,-1,1
 226 465 226 465 192 499 c 128,-1,2
 158 533 158 533 158 582 c 0,3,4
 158 630 158 630 192.5 664 c 128,-1,5
 227 698 227 698 275 698 c 0,6,7
 326 698 326 698 359 664.5 c 128,-1,8
 392 631 392 631 392 582 c 128,-1,9
 392 533 392 533 358 499 c 128,-1,0
 324 465 324 465 275 465 c 128,-1,1
275 678 m 0,10,11
 235 678 235 678 208 650 c 128,-1,12
 181 622 181 622 181 582 c 128,-1,13
 181 542 181 542 208 514 c 128,-1,14
 235 486 235 486 275 486 c 128,-1,15
 315 486 315 486 342 512.5 c 128,-1,16
 369 539 369 539 369 582 c 0,17,18
 369 622 369 622 341.5 650 c 128,-1,19
 314 678 314 678 275 678 c 0,10,11
EndSplineSet
EndChar

StartChar: plusminus
Encoding: 177 177 114
Width: 550
GlyphClass: 2
Flags: W
LayerCount: 2
Fore
SplineSet
74.5 0 m 1,0,-1
 74.5 24 l 1,1,-1
 475.5 24 l 1,2,-1
 475.5 0 l 1,3,-1
 74.5 0 l 1,0,-1
285.5 261 m 1,4,-1
 285.5 65 l 1,5,-1
 262.5 65 l 1,6,-1
 262.5 261 l 1,7,-1
 74.5 261 l 1,8,-1
 74.5 285 l 1,9,-1
 262.5 285 l 1,10,-1
 262.5 478 l 1,11,-1
 285.5 478 l 1,12,-1
 285.5 285 l 1,13,-1
 473.5 285 l 1,14,-1
 473.5 261 l 1,15,-1
 285.5 261 l 1,4,-1
EndSplineSet
EndChar

StartChar: twosuperior
Encoding: 178 178 115
Width: 550
GlyphClass: 2
Flags: W
LayerCount: 2
Fore
SplineSet
182 702 m 1,0,-1
 159 707 l 1,1,2
 171 742 171 742 204 763.5 c 128,-1,3
 237 785 237 785 278 785 c 0,4,5
 335 785 335 785 366 756.5 c 128,-1,6
 397 728 397 728 397 686 c 0,7,8
 397 642 397 642 366 605 c 2,9,-1
 182 387 l 1,10,-1
 396 387 l 1,11,-1
 396 366 l 1,12,-1
 153 366 l 1,13,-1
 153 386 l 1,14,-1
 350 619 l 2,15,16
 374 647 374 647 374 685 c 0,17,18
 374 720 374 720 348 743 c 128,-1,19
 322 766 322 766 277 766 c 0,20,21
 244 766 244 766 218 748.5 c 128,-1,22
 192 731 192 731 182 702 c 1,0,-1
EndSplineSet
EndChar

StartChar: threesuperior
Encoding: 179 179 116
Width: 550
GlyphClass: 2
Flags: W
LayerCount: 2
Fore
SplineSet
151 426 m 1,0,-1
 171 434 l 1,1,2
 180 411 180 411 206.5 396.5 c 128,-1,3
 233 382 233 382 270 382 c 0,4,5
 313 382 313 382 344.5 410 c 128,-1,6
 376 438 376 438 376 482 c 0,7,8
 376 527 376 527 349 553.5 c 128,-1,9
 322 580 322 580 281 580 c 2,10,-1
 238 580 l 1,11,-1
 238 600 l 1,12,-1
 276 600 l 2,13,14
 316 600 316 600 342 623 c 128,-1,15
 368 646 368 646 368 684 c 128,-1,16
 368 722 368 722 342.5 745.5 c 128,-1,17
 317 769 317 769 267 769 c 0,18,19
 238 769 238 769 212 754 c 128,-1,20
 186 739 186 739 177 713 c 1,21,-1
 156 718 l 1,22,23
 170 751 170 751 200 769.5 c 128,-1,24
 230 788 230 788 270 788 c 0,25,26
 327 788 327 788 359.5 758 c 128,-1,27
 392 728 392 728 392 686 c 0,28,29
 392 660 392 660 377 632 c 128,-1,30
 362 604 362 604 328 591 c 1,31,32
 366 578 366 578 382.5 546 c 128,-1,33
 399 514 399 514 399 485 c 0,34,35
 399 433 399 433 361 397.5 c 128,-1,36
 323 362 323 362 271 362 c 0,37,38
 177 362 177 362 151 426 c 1,0,-1
EndSplineSet
EndChar

StartChar: acute
Encoding: 180 180 117
Width: 550
GlyphClass: 2
Flags: W
LayerCount: 2
Fore
SplineSet
233 579 m 1,0,-1
 218 587 l 1,1,-1
 300 729 l 1,2,-1
 332 713 l 1,3,-1
 233 579 l 1,0,-1
EndSplineSet
EndChar

StartChar: mu
Encoding: 181 181 118
AltUni2: 0003bc.ffffffff.0
Width: 550
GlyphClass: 2
Flags: W
LayerCount: 2
Fore
SplineSet
113.5 -200 m 1,0,-1
 88.5 -200 l 1,1,-1
 88.5 496 l 1,2,-1
 113.5 496 l 1,3,-1
 113.5 169 l 2,4,5
 113.5 97 113.5 97 159.5 57 c 128,-1,6
 205.5 17 205.5 17 274.5 17 c 0,7,8
 346.5 17 346.5 17 392.5 65 c 128,-1,9
 438.5 113 438.5 113 438.5 190 c 2,10,-1
 438.5 496 l 1,11,-1
 461.5 496 l 1,12,-1
 461.5 0 l 1,13,-1
 438.5 0 l 1,14,-1
 438.5 92 l 1,15,-1
 436.5 92 l 1,16,17
 413.5 41 413.5 41 368.5 18 c 128,-1,18
 323.5 -5 323.5 -5 273.5 -5 c 0,19,20
 221.5 -5 221.5 -5 180 15.5 c 128,-1,21
 138.5 36 138.5 36 114.5 71 c 1,22,-1
 113.5 71 l 1,23,-1
 113.5 -200 l 1,0,-1
EndSplineSet
EndChar

StartChar: paragraph
Encoding: 182 182 119
Width: 550
GlyphClass: 2
Flags: W
LayerCount: 2
Fore
SplineSet
383 703 m 1,0,-1
 276 703 l 1,1,-1
 276 -81 l 1,2,-1
 244 -81 l 1,3,-1
 244 377 l 1,4,5
 168 377 168 377 115.5 425 c 128,-1,6
 63 473 63 473 63 558 c 0,7,8
 63 636 63 636 108.5 685 c 128,-1,9
 154 734 154 734 244 734 c 2,10,-1
 487 734 l 1,11,-1
 487 703 l 1,12,-1
 415 703 l 1,13,-1
 415 -81 l 1,14,-1
 383 -81 l 1,15,-1
 383 703 l 1,0,-1
EndSplineSet
EndChar

StartChar: periodcentered
Encoding: 183 183 120
Width: 550
GlyphClass: 2
Flags: W
LayerCount: 2
Fore
SplineSet
295.5 238 m 1,0,-1
 254.5 238 l 1,1,-1
 254.5 285 l 1,2,-1
 295.5 285 l 1,3,-1
 295.5 238 l 1,0,-1
EndSplineSet
EndChar

StartChar: cedilla
Encoding: 184 184 121
Width: 550
GlyphClass: 2
Flags: W
LayerCount: 2
Fore
SplineSet
278 4 m 1,0,-1
 261 -46 l 1,1,2
 352 -54 352 -54 352 -119 c 0,3,4
 352 -144 352 -144 330 -165 c 128,-1,5
 308 -186 308 -186 260 -186 c 0,6,7
 227 -186 227 -186 198 -174 c 1,8,-1
 205 -155 l 1,9,10
 234 -165 234 -165 260 -165 c 0,11,12
 287 -165 287 -165 306.5 -154 c 128,-1,13
 326 -143 326 -143 326 -117 c 0,14,15
 326 -93 326 -93 301 -79 c 128,-1,16
 276 -65 276 -65 240 -65 c 1,17,-1
 235 -61 l 1,18,-1
 256 4 l 1,19,-1
 278 4 l 1,0,-1
EndSplineSet
EndChar

StartChar: onesuperior
Encoding: 185 185 122
Width: 550
GlyphClass: 2
Flags: W
LayerCount: 2
Fore
SplineSet
313 366 m 1,0,-1
 313 389 l 1,1,-1
 313 389 l 1,2,-1
 313 759 l 1,3,-1
 212 714 l 1,4,-1
 212 739 l 1,5,-1
 314 785 l 1,6,-1
 336 785 l 1,7,-1
 336 389 l 1,8,-1
 338 389 l 1,9,-1
 338 366 l 1,10,-1
 313 366 l 1,0,-1
EndSplineSet
EndChar

StartChar: ordmasculine
Encoding: 186 186 123
Width: 550
GlyphClass: 2
Flags: W
LayerCount: 2
Fore
SplineSet
276.5 604 m 0,0,1
 413.5 604 413.5 604 413.5 436 c 0,2,3
 413.5 269 413.5 269 275.5 269 c 0,4,5
 136.5 269 136.5 269 136.5 440 c 0,6,7
 136.5 523 136.5 523 174.5 563.5 c 128,-1,8
 212.5 604 212.5 604 276.5 604 c 0,0,1
276.5 585 m 0,9,10
 158.5 585 158.5 585 158.5 438 c 0,11,12
 158.5 290 158.5 290 275.5 290 c 0,13,14
 330.5 290 330.5 290 361.5 321.5 c 128,-1,15
 392.5 353 392.5 353 392.5 436 c 0,16,17
 392.5 585 392.5 585 276.5 585 c 0,9,10
EndSplineSet
EndChar

StartChar: guillemotright
Encoding: 187 187 124
Width: 550
GlyphClass: 2
Flags: W
LayerCount: 2
Fore
SplineSet
292.5 46 m 1,0,-1
 263.5 46 l 1,1,-1
 373.5 212 l 1,2,-1
 263.5 377 l 1,3,-1
 290.5 377 l 1,4,-1
 403.5 212 l 1,5,-1
 292.5 46 l 1,0,-1
175.5 46 m 1,6,-1
 146.5 46 l 1,7,-1
 256.5 212 l 1,8,-1
 146.5 377 l 1,9,-1
 173.5 377 l 1,10,-1
 286.5 212 l 1,11,-1
 175.5 46 l 1,6,-1
EndSplineSet
EndChar

StartChar: onequarter
Encoding: 188 188 125
Width: 550
GlyphClass: 2
Flags: W
LayerCount: 2
Fore
SplineSet
144.5 338 m 5,0,-1
 144.5 668 l 5,1,-1
 84.5 633 l 5,2,-1
 84.5 659 l 5,3,-1
 145.5 695 l 5,4,-1
 167.5 695 l 5,5,-1
 167.5 338 l 5,6,-1
 144.5 338 l 5,0,-1
477.5 58 m 1,7,-1
 477.5 0 l 1,8,-1
 454.5 0 l 1,9,-1
 454.5 58 l 1,10,-1
 280.5 58 l 1,11,-1
 280.5 76 l 1,12,-1
 420.5 357 l 1,13,-1
 447.5 357 l 1,14,-1
 307.5 80 l 1,15,-1
 454.5 80 l 1,16,-1
 454.5 188 l 1,17,-1
 477.5 188 l 1,18,-1
 477.5 80 l 1,19,-1
 513.5 80 l 1,20,-1
 513.5 58 l 1,21,-1
 477.5 58 l 1,7,-1
47.5 -17 m 1,22,-1
 22.5 -17 l 1,23,-1
 500.5 714 l 1,24,-1
 527.5 714 l 1,25,-1
 47.5 -17 l 1,22,-1
EndSplineSet
EndChar

StartChar: onehalf
Encoding: 189 189 126
Width: 550
GlyphClass: 2
Flags: W
LayerCount: 2
Fore
SplineSet
347 284 m 1,0,-1
 323 288 l 1,1,2
 333 319 333 319 362.5 338 c 128,-1,3
 392 357 392 357 427 357 c 0,4,5
 475 357 475 357 502 332.5 c 128,-1,6
 529 308 529 308 529 272 c 0,7,8
 529 234 529 234 503 202 c 2,9,-1
 350 22 l 1,10,-1
 528 22 l 1,11,-1
 528 0 l 1,12,-1
 320 0 l 1,13,-1
 320 20 l 1,14,-1
 485 216 l 2,15,16
 505 239 505 239 505 271 c 0,17,18
 505 300 505 300 484 318.5 c 128,-1,19
 463 337 463 337 426 337 c 0,20,21
 399 337 399 337 377 322.5 c 128,-1,22
 355 308 355 308 347 284 c 1,0,-1
153 338 m 1,23,-1
 153 668 l 1,24,-1
 93 633 l 1,25,-1
 93 659 l 1,26,-1
 154 695 l 1,27,-1
 176 695 l 1,28,-1
 176 338 l 1,29,-1
 153 338 l 1,23,-1
46 -17 m 1,30,-1
 21 -17 l 1,31,-1
 499 714 l 1,32,-1
 526 714 l 1,33,-1
 46 -17 l 1,30,-1
EndSplineSet
EndChar

StartChar: threequarters
Encoding: 190 190 127
Width: 550
GlyphClass: 2
Flags: W
LayerCount: 2
Fore
SplineSet
129.5 702 m 0,0,1
 178.5 702 178.5 702 204.5 676 c 128,-1,2
 230.5 650 230.5 650 230.5 613 c 0,3,4
 230.5 590 230.5 590 218 566.5 c 128,-1,5
 205.5 543 205.5 543 174.5 534 c 1,6,-1
 174.5 533 l 1,7,8
 207.5 524 207.5 524 222 496 c 128,-1,9
 236.5 468 236.5 468 236.5 444 c 0,10,11
 236.5 399 236.5 399 205.5 369 c 128,-1,12
 174.5 339 174.5 339 126.5 339 c 0,13,14
 45.5 339 45.5 339 22.5 395 c 1,15,-1
 43.5 404 l 1,16,17
 61.5 359 61.5 359 125.5 359 c 0,18,19
 164.5 359 164.5 359 189 382 c 128,-1,20
 213.5 405 213.5 405 213.5 442 c 128,-1,21
 213.5 479 213.5 479 191.5 500.5 c 128,-1,22
 169.5 522 169.5 522 135.5 522 c 2,23,-1
 96.5 522 l 1,24,-1
 96.5 543 l 1,25,-1
 131.5 543 l 2,26,27
 164.5 543 164.5 543 185.5 562 c 128,-1,28
 206.5 581 206.5 581 206.5 611 c 0,29,30
 206.5 644 206.5 644 186.5 663.5 c 128,-1,31
 166.5 683 166.5 683 124.5 683 c 0,32,33
 100.5 683 100.5 683 79 669.5 c 128,-1,34
 57.5 656 57.5 656 49.5 634 c 1,35,-1
 27.5 639 l 1,36,37
 53.5 702 53.5 702 129.5 702 c 0,0,1
457.5 58 m 1,38,-1
 457.5 0 l 1,39,-1
 434.5 0 l 1,40,-1
 434.5 58 l 1,41,-1
 260.5 58 l 1,42,-1
 260.5 76 l 1,43,-1
 400.5 357 l 1,44,-1
 427.5 357 l 1,45,-1
 287.5 80 l 1,46,-1
 434.5 80 l 1,47,-1
 434.5 188 l 1,48,-1
 457.5 188 l 1,49,-1
 457.5 80 l 1,50,-1
 493.5 80 l 1,51,-1
 493.5 58 l 1,52,-1
 457.5 58 l 1,38,-1
47.5 -17 m 1,53,-1
 22.5 -17 l 1,54,-1
 500.5 714 l 1,55,-1
 527.5 714 l 1,56,-1
 47.5 -17 l 1,53,-1
EndSplineSet
EndChar

StartChar: questiondown
Encoding: 191 191 128
Width: 550
GlyphClass: 2
Flags: W
LayerCount: 2
Fore
SplineSet
430.5 -50 m 1,0,-1
 455.5 -55 l 1,1,2
 437.5 -128 437.5 -128 386 -170 c 128,-1,3
 334.5 -212 334.5 -212 268.5 -212 c 0,4,5
 191.5 -212 191.5 -212 143 -164.5 c 128,-1,6
 94.5 -117 94.5 -117 94.5 -44 c 0,7,8
 94.5 -10 94.5 -10 109 23 c 128,-1,9
 123.5 56 123.5 56 136.5 72.5 c 128,-1,10
 149.5 89 149.5 89 178.5 121 c 0,11,12
 203.5 149 203.5 149 216.5 165 c 128,-1,13
 229.5 181 229.5 181 243.5 209.5 c 128,-1,14
 257.5 238 257.5 238 259.5 267 c 2,15,-1
 259.5 341 l 1,16,-1
 284.5 341 l 1,17,-1
 284.5 265 l 2,18,19
 284.5 224 284.5 224 261.5 186.5 c 128,-1,20
 238.5 149 238.5 149 197.5 106 c 0,21,22
 118.5 22 118.5 22 118.5 -39 c 0,23,24
 118.5 -96 118.5 -96 156 -143 c 128,-1,25
 193.5 -190 193.5 -190 272.5 -190 c 0,26,27
 334.5 -190 334.5 -190 379 -144.5 c 128,-1,28
 423.5 -99 423.5 -99 430.5 -50 c 1,0,-1
250.5 490 m 1,29,-1
 288.5 490 l 1,30,-1
 288.5 447 l 1,31,-1
 250.5 447 l 1,32,-1
 250.5 490 l 1,29,-1
EndSplineSet
EndChar

StartChar: Agrave
Encoding: 192 192 129
Width: 550
GlyphClass: 2
Flags: W
LayerCount: 2
Fore
SplineSet
506 0 m 1,0,-1
 446 175 l 1,1,-1
 103 175 l 1,2,-1
 42 0 l 1,3,-1
 14 0 l 1,4,-1
 257 696 l 1,5,-1
 293 696 l 1,6,-1
 536 0 l 1,7,-1
 506 0 l 1,0,-1
274 670 m 1,8,-1
 211 489 l 1,9,-1
 111 200 l 1,10,-1
 437 200 l 1,11,-1
 276 670 l 1,12,-1
 274 670 l 1,8,-1
298 767 m 1,13,-1
 287 754 l 1,14,-1
 145 842 l 1,15,-1
 169 868 l 1,16,-1
 298 767 l 1,13,-1
EndSplineSet
EndChar

StartChar: Aacute
Encoding: 193 193 130
Width: 550
GlyphClass: 2
Flags: W
LayerCount: 2
Fore
SplineSet
506 0 m 1,0,-1
 446 175 l 1,1,-1
 103 175 l 1,2,-1
 42 0 l 1,3,-1
 14 0 l 1,4,-1
 257 696 l 1,5,-1
 293 696 l 1,6,-1
 536 0 l 1,7,-1
 506 0 l 1,0,-1
274 670 m 1,8,-1
 211 489 l 1,9,-1
 111 200 l 1,10,-1
 437 200 l 1,11,-1
 276 670 l 1,12,-1
 274 670 l 1,8,-1
272 754 m 1,13,-1
 261 767 l 1,14,-1
 390 868 l 1,15,-1
 414 842 l 1,16,-1
 272 754 l 1,13,-1
EndSplineSet
EndChar

StartChar: Acircumflex
Encoding: 194 194 131
Width: 550
GlyphClass: 2
Flags: W
LayerCount: 2
Fore
SplineSet
506 0 m 1,0,-1
 446 175 l 1,1,-1
 103 175 l 1,2,-1
 42 0 l 1,3,-1
 14 0 l 1,4,-1
 257 696 l 1,5,-1
 293 696 l 1,6,-1
 536 0 l 1,7,-1
 506 0 l 1,0,-1
274 670 m 1,8,-1
 211 489 l 1,9,-1
 111 200 l 1,10,-1
 437 200 l 1,11,-1
 276 670 l 1,12,-1
 274 670 l 1,8,-1
397 746 m 1,13,-1
 275 828 l 1,14,-1
 152 745 l 1,15,-1
 140 758 l 1,16,-1
 262 858 l 1,17,-1
 291 858 l 1,18,-1
 409 758 l 1,19,-1
 397 746 l 1,13,-1
EndSplineSet
EndChar

StartChar: Atilde
Encoding: 195 195 132
Width: 550
GlyphClass: 2
Flags: W
LayerCount: 2
Fore
SplineSet
506 0 m 1,0,-1
 446 175 l 1,1,-1
 103 175 l 1,2,-1
 42 0 l 1,3,-1
 14 0 l 1,4,-1
 257 696 l 1,5,-1
 293 696 l 1,6,-1
 536 0 l 1,7,-1
 506 0 l 1,0,-1
274 670 m 1,8,-1
 211 489 l 1,9,-1
 111 200 l 1,10,-1
 437 200 l 1,11,-1
 276 670 l 1,12,-1
 274 670 l 1,8,-1
223 835 m 0,13,14
 243 835 243 835 285.5 815 c 128,-1,15
 328 795 328 795 344 795 c 0,16,17
 370 795 370 795 397 834 c 1,18,-1
 417 822 l 1,19,20
 386 768 386 768 343 768 c 0,21,22
 325 768 325 768 282.5 788 c 128,-1,23
 240 808 240 808 221 808 c 0,24,25
 188 808 188 808 157 770 c 1,26,-1
 138 782 l 1,27,28
 175 835 175 835 223 835 c 0,13,14
EndSplineSet
EndChar

StartChar: Adieresis
Encoding: 196 196 133
Width: 550
GlyphClass: 2
Flags: W
LayerCount: 2
Fore
SplineSet
506 0 m 1,0,-1
 446 175 l 1,1,-1
 103 175 l 1,2,-1
 42 0 l 1,3,-1
 14 0 l 1,4,-1
 257 696 l 1,5,-1
 293 696 l 1,6,-1
 536 0 l 1,7,-1
 506 0 l 1,0,-1
274 670 m 1,8,-1
 211 489 l 1,9,-1
 111 200 l 1,10,-1
 437 200 l 1,11,-1
 276 670 l 1,12,-1
 274 670 l 1,8,-1
330 783 m 1,13,-1
 330 819 l 1,14,-1
 368 819 l 1,15,-1
 368 783 l 1,16,-1
 330 783 l 1,13,-1
176 783 m 1,17,-1
 176 819 l 1,18,-1
 214 819 l 1,19,-1
 214 783 l 1,20,-1
 176 783 l 1,17,-1
EndSplineSet
EndChar

StartChar: Aring
Encoding: 197 197 134
Width: 550
GlyphClass: 2
Flags: W
LayerCount: 2
Fore
SplineSet
506 0 m 1,0,-1
 446 175 l 1,1,-1
 103 175 l 1,2,-1
 42 0 l 1,3,-1
 14 0 l 1,4,-1
 257 696 l 1,5,-1
 293 696 l 1,6,-1
 536 0 l 1,7,-1
 506 0 l 1,0,-1
274 670 m 1,8,-1
 211 489 l 1,9,-1
 111 200 l 1,10,-1
 437 200 l 1,11,-1
 276 670 l 1,12,-1
 274 670 l 1,8,-1
274 725 m 0,13,14
 239 725 239 725 213.5 750.5 c 128,-1,15
 188 776 188 776 188 811 c 0,16,17
 188 847 188 847 213 871.5 c 128,-1,18
 238 896 238 896 274 896 c 128,-1,19
 310 896 310 896 335.5 871.5 c 128,-1,20
 361 847 361 847 361 811 c 0,21,22
 361 776 361 776 335.5 750.5 c 128,-1,23
 310 725 310 725 274 725 c 0,13,14
274 878 m 128,-1,25
 246 878 246 878 227 858.5 c 128,-1,26
 208 839 208 839 208 811 c 128,-1,27
 208 783 208 783 227 763.5 c 128,-1,28
 246 744 246 744 274 744 c 128,-1,29
 302 744 302 744 321.5 763.5 c 128,-1,30
 341 783 341 783 341 811 c 128,-1,31
 341 839 341 839 321.5 858.5 c 128,-1,24
 302 878 302 878 274 878 c 128,-1,25
EndSplineSet
EndChar

StartChar: AE
Encoding: 198 198 135
Width: 550
GlyphClass: 2
Flags: W
LayerCount: 2
Fore
SplineSet
292.5 0 m 1,0,-1
 292.5 176 l 1,1,-1
 102.5 176 l 1,2,-1
 34.5 0 l 1,3,-1
 5.5 0 l 1,4,-1
 276.5 696 l 1,5,-1
 530.5 696 l 1,6,-1
 530.5 672 l 1,7,-1
 319.5 672 l 1,8,-1
 319.5 380 l 1,9,-1
 514.5 380 l 1,10,-1
 514.5 356 l 1,11,-1
 319.5 356 l 1,12,-1
 319.5 24 l 1,13,-1
 544.5 24 l 1,14,-1
 544.5 0 l 1,15,-1
 292.5 0 l 1,0,-1
111.5 200 m 1,16,-1
 292.5 200 l 1,17,-1
 292.5 668 l 1,18,-1
 290.5 668 l 1,19,-1
 111.5 200 l 1,16,-1
EndSplineSet
EndChar

StartChar: Ccedilla
Encoding: 199 199 136
Width: 550
GlyphClass: 2
Flags: W
LayerCount: 2
Fore
SplineSet
482 141 m 1,0,-1
 504 132 l 1,1,2
 478 70 478 70 420.5 32 c 128,-1,3
 363 -6 363 -6 289 -7 c 1,4,-1
 276 -46 l 1,5,6
 367 -54 367 -54 367 -119 c 0,7,8
 367 -144 367 -144 345 -165 c 128,-1,9
 323 -186 323 -186 275 -186 c 0,10,11
 242 -186 242 -186 213 -174 c 1,12,-1
 220 -155 l 1,13,14
 249 -165 249 -165 275 -165 c 0,15,16
 302 -165 302 -165 321.5 -154 c 128,-1,17
 341 -143 341 -143 341 -117 c 0,18,19
 341 -93 341 -93 316 -79 c 128,-1,20
 291 -65 291 -65 255 -65 c 1,21,-1
 250 -61 l 1,22,-1
 267 -6 l 1,23,24
 155 0 155 0 100.5 69 c 128,-1,25
 46 138 46 138 46 243 c 2,26,-1
 46 458 l 2,27,28
 46 562 46 562 107.5 631.5 c 128,-1,29
 169 701 169 701 283 701 c 0,30,31
 356 701 356 701 410 668 c 128,-1,32
 464 635 464 635 491 579 c 1,33,-1
 470 566 l 1,34,35
 447 616 447 616 398 647 c 128,-1,36
 349 678 349 678 284 678 c 0,37,38
 181 678 181 678 126.5 615.5 c 128,-1,39
 72 553 72 553 72 456 c 2,40,-1
 72 238 l 2,41,42
 72 141 72 141 126 78.5 c 128,-1,43
 180 16 180 16 287 16 c 0,44,45
 353 16 353 16 403.5 49.5 c 128,-1,46
 454 83 454 83 482 141 c 1,0,-1
EndSplineSet
EndChar

StartChar: Egrave
Encoding: 200 200 137
Width: 550
GlyphClass: 2
Flags: W
LayerCount: 2
Fore
SplineSet
62.5 0 m 1,0,-1
 62.5 696 l 1,1,-1
 459.5 696 l 1,2,-1
 459.5 672 l 1,3,-1
 89.5 672 l 1,4,-1
 89.5 378 l 1,5,-1
 423.5 378 l 1,6,-1
 423.5 354 l 1,7,-1
 89.5 354 l 1,8,-1
 89.5 24 l 1,9,-1
 487.5 24 l 1,10,-1
 487.5 0 l 1,11,-1
 62.5 0 l 1,0,-1
322.5 767 m 1,12,-1
 311.5 754 l 1,13,-1
 169.5 842 l 1,14,-1
 193.5 868 l 1,15,-1
 322.5 767 l 1,12,-1
EndSplineSet
EndChar

StartChar: Eacute
Encoding: 201 201 138
Width: 550
GlyphClass: 2
Flags: W
LayerCount: 2
Fore
SplineSet
236.5 754 m 1,0,-1
 225.5 767 l 1,1,-1
 354.5 868 l 1,2,-1
 378.5 842 l 1,3,-1
 236.5 754 l 1,0,-1
62.5 0 m 1,4,-1
 62.5 696 l 1,5,-1
 459.5 696 l 1,6,-1
 459.5 672 l 1,7,-1
 89.5 672 l 1,8,-1
 89.5 378 l 1,9,-1
 423.5 378 l 1,10,-1
 423.5 354 l 1,11,-1
 89.5 354 l 1,12,-1
 89.5 24 l 1,13,-1
 487.5 24 l 1,14,-1
 487.5 0 l 1,15,-1
 62.5 0 l 1,4,-1
EndSplineSet
EndChar

StartChar: Ecircumflex
Encoding: 202 202 139
Width: 550
GlyphClass: 2
Flags: W
LayerCount: 2
Fore
SplineSet
62.5 0 m 1,0,-1
 62.5 696 l 1,1,-1
 459.5 696 l 1,2,-1
 459.5 672 l 1,3,-1
 89.5 672 l 1,4,-1
 89.5 378 l 1,5,-1
 423.5 378 l 1,6,-1
 423.5 354 l 1,7,-1
 89.5 354 l 1,8,-1
 89.5 24 l 1,9,-1
 487.5 24 l 1,10,-1
 487.5 0 l 1,11,-1
 62.5 0 l 1,0,-1
382.5 746 m 1,12,-1
 260.5 828 l 1,13,-1
 137.5 745 l 1,14,-1
 125.5 758 l 1,15,-1
 247.5 858 l 1,16,-1
 276.5 858 l 1,17,-1
 394.5 758 l 1,18,-1
 382.5 746 l 1,12,-1
EndSplineSet
EndChar

StartChar: Edieresis
Encoding: 203 203 140
Width: 550
GlyphClass: 2
Flags: W
LayerCount: 2
Fore
SplineSet
62.5 0 m 1,0,-1
 62.5 696 l 1,1,-1
 459.5 696 l 1,2,-1
 459.5 672 l 1,3,-1
 89.5 672 l 1,4,-1
 89.5 378 l 1,5,-1
 423.5 378 l 1,6,-1
 423.5 354 l 1,7,-1
 89.5 354 l 1,8,-1
 89.5 24 l 1,9,-1
 487.5 24 l 1,10,-1
 487.5 0 l 1,11,-1
 62.5 0 l 1,0,-1
307.5 783 m 1,12,-1
 307.5 819 l 1,13,-1
 345.5 819 l 1,14,-1
 345.5 783 l 1,15,-1
 307.5 783 l 1,12,-1
153.5 783 m 1,16,-1
 153.5 819 l 1,17,-1
 191.5 819 l 1,18,-1
 191.5 783 l 1,19,-1
 153.5 783 l 1,16,-1
EndSplineSet
EndChar

StartChar: Igrave
Encoding: 204 204 141
Width: 550
GlyphClass: 2
Flags: W
LayerCount: 2
Fore
SplineSet
322.5 673 m 1,0,-1
 322.5 696 l 1,1,-1
 348.5 696 l 1,2,-1
 348.5 673 l 1,3,-1
 348.5 673 l 1,4,-1
 348.5 23 l 1,5,-1
 348.5 23 l 1,6,-1
 348.5 0 l 1,7,-1
 322.5 0 l 1,8,-1
 322.5 23 l 1,9,-1
 322.5 23 l 1,10,-1
 322.5 673 l 1,11,-1
 322.5 673 l 1,0,-1
351.5 767 m 1,12,-1
 340.5 754 l 1,13,-1
 198.5 842 l 1,14,-1
 222.5 868 l 1,15,-1
 351.5 767 l 1,12,-1
EndSplineSet
EndChar

StartChar: Iacute
Encoding: 205 205 142
Width: 550
GlyphClass: 2
Flags: W
LayerCount: 2
Fore
SplineSet
200.5 673 m 1,0,-1
 200.5 696 l 1,1,-1
 226.5 696 l 1,2,-1
 226.5 673 l 1,3,-1
 226.5 673 l 1,4,-1
 226.5 23 l 1,5,-1
 226.5 23 l 1,6,-1
 226.5 0 l 1,7,-1
 200.5 0 l 1,8,-1
 200.5 23 l 1,9,-1
 200.5 23 l 1,10,-1
 200.5 673 l 1,11,-1
 200.5 673 l 1,0,-1
209.5 754 m 1,12,-1
 198.5 767 l 1,13,-1
 327.5 868 l 1,14,-1
 351.5 842 l 1,15,-1
 209.5 754 l 1,12,-1
EndSplineSet
EndChar

StartChar: Icircumflex
Encoding: 206 206 143
Width: 550
GlyphClass: 2
Flags: W
LayerCount: 2
Fore
SplineSet
260.5 673 m 5,0,-1
 260.5 696 l 5,1,-1
 286.5 696 l 1,2,-1
 286.5 673 l 1,3,-1
 286.5 673 l 1,4,-1
 286.5 23 l 1,5,-1
 286.5 23 l 1,6,-1
 286.5 0 l 1,7,-1
 260.5 0 l 5,8,-1
 260.5 23 l 5,9,-1
 260.5 23 l 1,10,-1
 260.5 673 l 1,11,-1
 260.5 673 l 5,0,-1
397.5 749 m 1,12,-1
 275.5 831 l 1,13,-1
 152.5 748 l 1,14,-1
 140.5 761 l 1,15,-1
 262.5 861 l 1,16,-1
 291.5 861 l 1,17,-1
 409.5 761 l 1,18,-1
 397.5 749 l 1,12,-1
EndSplineSet
EndChar

StartChar: Idieresis
Encoding: 207 207 144
Width: 550
GlyphClass: 2
Flags: W
LayerCount: 2
Fore
SplineSet
262 673 m 1,0,-1
 262 696 l 1,1,-1
 288 696 l 5,2,-1
 288 673 l 5,3,-1
 288 673 l 1,4,-1
 288 23 l 1,5,-1
 288 23 l 5,6,-1
 288 0 l 5,7,-1
 262 0 l 1,8,-1
 262 23 l 1,9,-1
 262 23 l 1,10,-1
 262 673 l 1,11,-1
 262 673 l 1,0,-1
333 783 m 1,12,-1
 333 819 l 1,13,-1
 371 819 l 1,14,-1
 371 783 l 1,15,-1
 333 783 l 1,12,-1
179 783 m 1,16,-1
 179 819 l 1,17,-1
 217 819 l 1,18,-1
 217 783 l 1,19,-1
 179 783 l 1,16,-1
EndSplineSet
EndChar

StartChar: Eth
Encoding: 208 208 145
Width: 550
GlyphClass: 2
Flags: W
LayerCount: 2
Fore
SplineSet
27 365 m 1,0,-1
 27 388 l 1,1,-1
 69 388 l 1,2,-1
 69 696 l 1,3,-1
 281 696 l 2,4,5
 441 696 441 696 499 572 c 0,6,7
 523 521 523 521 523 361 c 0,8,9
 523 187 523 187 500 132 c 0,10,11
 470 61 470 61 413.5 30.5 c 128,-1,12
 357 0 357 0 269 0 c 2,13,-1
 69 0 l 1,14,-1
 69 365 l 1,15,-1
 27 365 l 1,0,-1
497 271 m 2,16,-1
 497 419 l 2,17,18
 497 556 497 556 440 614 c 128,-1,19
 383 672 383 672 273 672 c 2,20,-1
 96 672 l 1,21,-1
 96 388 l 1,22,-1
 286 388 l 1,23,-1
 286 365 l 1,24,-1
 96 365 l 1,25,-1
 96 24 l 1,26,-1
 273 24 l 2,27,28
 497 24 497 24 497 271 c 2,16,-1
EndSplineSet
EndChar

StartChar: Ntilde
Encoding: 209 209 146
Width: 550
GlyphClass: 2
Flags: W
LayerCount: 2
Fore
SplineSet
453.5 0 m 1,0,-1
 93.5 653 l 1,1,-1
 93.5 0 l 1,2,-1
 67.5 0 l 1,3,-1
 67.5 696 l 1,4,-1
 96.5 696 l 1,5,-1
 456.5 42 l 1,6,-1
 456.5 696 l 1,7,-1
 482.5 696 l 1,8,-1
 482.5 0 l 1,9,-1
 453.5 0 l 1,0,-1
223.5 819 m 0,10,11
 243.5 819 243.5 819 286 799 c 128,-1,12
 328.5 779 328.5 779 344.5 779 c 0,13,14
 370.5 779 370.5 779 397.5 818 c 1,15,-1
 417.5 806 l 1,16,17
 386.5 752 386.5 752 343.5 752 c 0,18,19
 325.5 752 325.5 752 283 772 c 128,-1,20
 240.5 792 240.5 792 221.5 792 c 0,21,22
 188.5 792 188.5 792 157.5 754 c 1,23,-1
 138.5 766 l 1,24,25
 175.5 819 175.5 819 223.5 819 c 0,10,11
EndSplineSet
EndChar

StartChar: Ograve
Encoding: 210 210 147
Width: 550
GlyphClass: 2
Flags: W
LayerCount: 2
Fore
SplineSet
277 701 m 0,0,1
 385 701 385 701 447.5 634 c 128,-1,2
 510 567 510 567 510 458 c 2,3,-1
 510 243 l 2,4,5
 510 128 510 128 447.5 60.5 c 128,-1,6
 385 -7 385 -7 277 -7 c 0,7,8
 160 -7 160 -7 100 63.5 c 128,-1,9
 40 134 40 134 40 243 c 2,10,-1
 40 458 l 2,11,12
 40 562 40 562 101.5 631.5 c 128,-1,13
 163 701 163 701 277 701 c 0,0,1
278 676 m 0,14,15
 177 676 177 676 122 614 c 128,-1,16
 67 552 67 552 67 456 c 2,17,-1
 67 238 l 2,18,19
 67 144 67 144 122 80.5 c 128,-1,20
 177 17 177 17 278 17 c 0,21,22
 373 17 373 17 428 80 c 128,-1,23
 483 143 483 143 483 244 c 2,24,-1
 483 456 l 2,25,26
 483 552 483 552 428 614 c 128,-1,27
 373 676 373 676 278 676 c 0,14,15
292 767 m 1,28,-1
 281 754 l 1,29,-1
 139 842 l 1,30,-1
 163 868 l 1,31,-1
 292 767 l 1,28,-1
EndSplineSet
EndChar

StartChar: Oacute
Encoding: 211 211 148
Width: 550
GlyphClass: 2
Flags: W
LayerCount: 2
Fore
SplineSet
277 701 m 0,0,1
 385 701 385 701 447.5 634 c 128,-1,2
 510 567 510 567 510 458 c 2,3,-1
 510 243 l 2,4,5
 510 128 510 128 447.5 60.5 c 128,-1,6
 385 -7 385 -7 277 -7 c 0,7,8
 160 -7 160 -7 100 63.5 c 128,-1,9
 40 134 40 134 40 243 c 2,10,-1
 40 458 l 2,11,12
 40 562 40 562 101.5 631.5 c 128,-1,13
 163 701 163 701 277 701 c 0,0,1
278 676 m 0,14,15
 177 676 177 676 122 614 c 128,-1,16
 67 552 67 552 67 456 c 2,17,-1
 67 238 l 2,18,19
 67 144 67 144 122 80.5 c 128,-1,20
 177 17 177 17 278 17 c 0,21,22
 373 17 373 17 428 80 c 128,-1,23
 483 143 483 143 483 244 c 2,24,-1
 483 456 l 2,25,26
 483 552 483 552 428 614 c 128,-1,27
 373 676 373 676 278 676 c 0,14,15
275 754 m 1,28,-1
 264 767 l 1,29,-1
 393 868 l 1,30,-1
 417 842 l 1,31,-1
 275 754 l 1,28,-1
EndSplineSet
EndChar

StartChar: Ocircumflex
Encoding: 212 212 149
Width: 550
GlyphClass: 2
Flags: W
LayerCount: 2
Fore
SplineSet
277 701 m 0,0,1
 385 701 385 701 447.5 634 c 128,-1,2
 510 567 510 567 510 458 c 2,3,-1
 510 243 l 2,4,5
 510 128 510 128 447.5 60.5 c 128,-1,6
 385 -7 385 -7 277 -7 c 0,7,8
 160 -7 160 -7 100 63.5 c 128,-1,9
 40 134 40 134 40 243 c 2,10,-1
 40 458 l 2,11,12
 40 562 40 562 101.5 631.5 c 128,-1,13
 163 701 163 701 277 701 c 0,0,1
278 676 m 0,14,15
 177 676 177 676 122 614 c 128,-1,16
 67 552 67 552 67 456 c 2,17,-1
 67 238 l 2,18,19
 67 144 67 144 122 80.5 c 128,-1,20
 177 17 177 17 278 17 c 0,21,22
 373 17 373 17 428 80 c 128,-1,23
 483 143 483 143 483 244 c 2,24,-1
 483 456 l 2,25,26
 483 552 483 552 428 614 c 128,-1,27
 373 676 373 676 278 676 c 0,14,15
404 746 m 1,28,-1
 282 828 l 1,29,-1
 159 745 l 1,30,-1
 147 758 l 1,31,-1
 269 858 l 1,32,-1
 298 858 l 1,33,-1
 416 758 l 1,34,-1
 404 746 l 1,28,-1
EndSplineSet
EndChar

StartChar: Otilde
Encoding: 213 213 150
Width: 550
GlyphClass: 2
Flags: W
LayerCount: 2
Fore
SplineSet
277 701 m 0,0,1
 385 701 385 701 447.5 634 c 128,-1,2
 510 567 510 567 510 458 c 2,3,-1
 510 243 l 2,4,5
 510 128 510 128 447.5 60.5 c 128,-1,6
 385 -7 385 -7 277 -7 c 0,7,8
 160 -7 160 -7 100 63.5 c 128,-1,9
 40 134 40 134 40 243 c 2,10,-1
 40 458 l 2,11,12
 40 562 40 562 101.5 631.5 c 128,-1,13
 163 701 163 701 277 701 c 0,0,1
278 676 m 0,14,15
 177 676 177 676 122 614 c 128,-1,16
 67 552 67 552 67 456 c 2,17,-1
 67 238 l 2,18,19
 67 144 67 144 122 80.5 c 128,-1,20
 177 17 177 17 278 17 c 0,21,22
 373 17 373 17 428 80 c 128,-1,23
 483 143 483 143 483 244 c 2,24,-1
 483 456 l 2,25,26
 483 552 483 552 428 614 c 128,-1,27
 373 676 373 676 278 676 c 0,14,15
225 839 m 0,28,29
 245 839 245 839 287.5 819 c 128,-1,30
 330 799 330 799 346 799 c 0,31,32
 372 799 372 799 399 838 c 1,33,-1
 419 826 l 1,34,35
 388 772 388 772 345 772 c 0,36,37
 327 772 327 772 284.5 792 c 128,-1,38
 242 812 242 812 223 812 c 0,39,40
 190 812 190 812 159 774 c 1,41,-1
 140 786 l 1,42,43
 177 839 177 839 225 839 c 0,28,29
EndSplineSet
EndChar

StartChar: Odieresis
Encoding: 214 214 151
Width: 550
GlyphClass: 2
Flags: W
LayerCount: 2
Fore
SplineSet
277 701 m 0,0,1
 385 701 385 701 447.5 634 c 128,-1,2
 510 567 510 567 510 458 c 2,3,-1
 510 243 l 2,4,5
 510 128 510 128 447.5 60.5 c 128,-1,6
 385 -7 385 -7 277 -7 c 0,7,8
 160 -7 160 -7 100 63.5 c 128,-1,9
 40 134 40 134 40 243 c 2,10,-1
 40 458 l 2,11,12
 40 562 40 562 101.5 631.5 c 128,-1,13
 163 701 163 701 277 701 c 0,0,1
278 676 m 0,14,15
 177 676 177 676 122 614 c 128,-1,16
 67 552 67 552 67 456 c 2,17,-1
 67 238 l 2,18,19
 67 144 67 144 122 80.5 c 128,-1,20
 177 17 177 17 278 17 c 0,21,22
 373 17 373 17 428 80 c 128,-1,23
 483 143 483 143 483 244 c 2,24,-1
 483 456 l 2,25,26
 483 552 483 552 428 614 c 128,-1,27
 373 676 373 676 278 676 c 0,14,15
336 783 m 1,28,-1
 336 819 l 1,29,-1
 374 819 l 1,30,-1
 374 783 l 1,31,-1
 336 783 l 1,28,-1
182 783 m 1,32,-1
 182 819 l 1,33,-1
 220 819 l 1,34,-1
 220 783 l 1,35,-1
 182 783 l 1,32,-1
EndSplineSet
EndChar

StartChar: multiply
Encoding: 215 215 152
Width: 550
GlyphClass: 2
Flags: W
LayerCount: 2
Fore
SplineSet
275.5 255 m 1,0,-1
 116.5 96 l 1,1,-1
 99.5 112 l 1,2,-1
 259.5 272 l 1,3,-1
 105.5 426 l 1,4,-1
 122.5 443 l 1,5,-1
 276.5 289 l 1,6,-1
 434.5 446 l 1,7,-1
 450.5 430 l 1,8,-1
 292.5 272 l 1,9,-1
 447.5 118 l 1,10,-1
 430.5 101 l 1,11,-1
 275.5 255 l 1,0,-1
EndSplineSet
EndChar

StartChar: Oslash
Encoding: 216 216 153
Width: 550
GlyphClass: 2
Flags: W
LayerCount: 2
Fore
SplineSet
277 701 m 0,0,1
 385 701 385 701 448 633 c 1,2,-1
 491 700 l 1,3,-1
 510 688 l 1,4,-1
 463 615 l 1,5,6
 510 551 510 551 510 458 c 2,7,-1
 510 243 l 2,8,9
 510 128 510 128 447.5 60.5 c 128,-1,10
 385 -7 385 -7 277 -7 c 0,11,12
 165 -7 165 -7 102 62 c 1,13,-1
 59 -4 l 1,14,-1
 40 9 l 1,15,-1
 86 80 l 1,16,17
 40 145 40 145 40 243 c 2,18,-1
 40 458 l 2,19,20
 40 562 40 562 101.5 631.5 c 128,-1,21
 163 701 163 701 277 701 c 0,0,1
483 456 m 2,22,23
 483 533 483 533 446 590 c 1,24,-1
 117 86 l 1,25,26
 174 17 174 17 278 17 c 0,27,28
 373 17 373 17 428 80 c 128,-1,29
 483 143 483 143 483 244 c 2,30,-1
 483 456 l 2,22,23
278 676 m 0,31,32
 177 676 177 676 122 614 c 128,-1,33
 67 552 67 552 67 456 c 2,34,-1
 67 238 l 2,35,36
 67 162 67 162 103 105 c 1,37,-1
 432 609 l 1,38,39
 376 676 376 676 278 676 c 0,31,32
EndSplineSet
EndChar

StartChar: Ugrave
Encoding: 217 217 154
Width: 550
GlyphClass: 2
Flags: W
LayerCount: 2
Fore
SplineSet
275 -7 m 0,0,1
 173 -7 173 -7 112 53.5 c 128,-1,2
 51 114 51 114 51 224 c 2,3,-1
 51 696 l 1,4,-1
 77 696 l 1,5,-1
 77 236 l 2,6,7
 77 133 77 133 128.5 75 c 128,-1,8
 180 17 180 17 275 17 c 0,9,10
 368 17 368 17 420 71 c 128,-1,11
 472 125 472 125 472 225 c 2,12,-1
 472 696 l 1,13,-1
 499 696 l 1,14,-1
 499 214 l 2,15,16
 499 112 499 112 438.5 52.5 c 128,-1,17
 378 -7 378 -7 275 -7 c 0,0,1
300 767 m 1,18,-1
 289 754 l 1,19,-1
 147 842 l 1,20,-1
 171 868 l 1,21,-1
 300 767 l 1,18,-1
EndSplineSet
EndChar

StartChar: Uacute
Encoding: 218 218 155
Width: 550
GlyphClass: 2
Flags: W
LayerCount: 2
Fore
SplineSet
275 -7 m 0,0,1
 173 -7 173 -7 112 53.5 c 128,-1,2
 51 114 51 114 51 224 c 2,3,-1
 51 696 l 1,4,-1
 77 696 l 1,5,-1
 77 236 l 2,6,7
 77 133 77 133 128.5 75 c 128,-1,8
 180 17 180 17 275 17 c 0,9,10
 368 17 368 17 420 71 c 128,-1,11
 472 125 472 125 472 225 c 2,12,-1
 472 696 l 1,13,-1
 499 696 l 1,14,-1
 499 214 l 2,15,16
 499 112 499 112 438.5 52.5 c 128,-1,17
 378 -7 378 -7 275 -7 c 0,0,1
249 754 m 1,18,-1
 238 767 l 1,19,-1
 367 868 l 1,20,-1
 391 842 l 1,21,-1
 249 754 l 1,18,-1
EndSplineSet
EndChar

StartChar: Ucircumflex
Encoding: 219 219 156
Width: 550
GlyphClass: 2
Flags: W
LayerCount: 2
Fore
SplineSet
275 -7 m 0,0,1
 173 -7 173 -7 112 53.5 c 128,-1,2
 51 114 51 114 51 224 c 2,3,-1
 51 696 l 1,4,-1
 77 696 l 1,5,-1
 77 236 l 2,6,7
 77 133 77 133 128.5 75 c 128,-1,8
 180 17 180 17 275 17 c 0,9,10
 368 17 368 17 420 71 c 128,-1,11
 472 125 472 125 472 225 c 2,12,-1
 472 696 l 1,13,-1
 499 696 l 1,14,-1
 499 214 l 2,15,16
 499 112 499 112 438.5 52.5 c 128,-1,17
 378 -7 378 -7 275 -7 c 0,0,1
397 746 m 1,18,-1
 275 828 l 1,19,-1
 152 745 l 1,20,-1
 140 758 l 1,21,-1
 262 858 l 1,22,-1
 291 858 l 1,23,-1
 409 758 l 1,24,-1
 397 746 l 1,18,-1
EndSplineSet
EndChar

StartChar: Udieresis
Encoding: 220 220 157
Width: 550
GlyphClass: 2
Flags: W
LayerCount: 2
Fore
SplineSet
275 -7 m 0,0,1
 173 -7 173 -7 112 53.5 c 128,-1,2
 51 114 51 114 51 224 c 2,3,-1
 51 696 l 1,4,-1
 77 696 l 1,5,-1
 77 236 l 2,6,7
 77 133 77 133 128.5 75 c 128,-1,8
 180 17 180 17 275 17 c 0,9,10
 368 17 368 17 420 71 c 128,-1,11
 472 125 472 125 472 225 c 2,12,-1
 472 696 l 1,13,-1
 499 696 l 1,14,-1
 499 214 l 2,15,16
 499 112 499 112 438.5 52.5 c 128,-1,17
 378 -7 378 -7 275 -7 c 0,0,1
332 783 m 1,18,-1
 332 819 l 1,19,-1
 370 819 l 1,20,-1
 370 783 l 1,21,-1
 332 783 l 1,18,-1
178 783 m 1,22,-1
 178 819 l 1,23,-1
 216 819 l 1,24,-1
 216 783 l 1,25,-1
 178 783 l 1,22,-1
EndSplineSet
EndChar

StartChar: Yacute
Encoding: 221 221 158
Width: 550
GlyphClass: 2
Flags: W
LayerCount: 2
Fore
SplineSet
288 289 m 1,0,-1
 288 0 l 1,1,-1
 263 0 l 1,2,-1
 263 289 l 1,3,-1
 55 696 l 1,4,-1
 82 696 l 1,5,-1
 276 315 l 1,6,-1
 469 696 l 1,7,-1
 495 696 l 1,8,-1
 288 289 l 1,0,-1
264 754 m 1,9,-1
 253 767 l 1,10,-1
 382 868 l 1,11,-1
 406 842 l 1,12,-1
 264 754 l 1,9,-1
EndSplineSet
EndChar

StartChar: Thorn
Encoding: 222 222 159
Width: 550
GlyphClass: 2
Flags: W
LayerCount: 2
Fore
SplineSet
63 696 m 1,0,-1
 90 696 l 1,1,-1
 90 543 l 1,2,-1
 278 543 l 2,3,4
 369 543 369 543 428 495 c 128,-1,5
 487 447 487 447 487 345 c 0,6,7
 487 270 487 270 435.5 212 c 128,-1,8
 384 154 384 154 286 154 c 2,9,-1
 90 154 l 1,10,-1
 90 0 l 1,11,-1
 63 0 l 1,12,-1
 63 696 l 1,0,-1
90 519 m 1,13,-1
 90 179 l 1,14,-1
 281 179 l 2,15,16
 370 179 370 179 414 228.5 c 128,-1,17
 458 278 458 278 458 348 c 0,18,19
 458 431 458 431 407 475 c 128,-1,20
 356 519 356 519 277 519 c 2,21,-1
 90 519 l 1,13,-1
EndSplineSet
EndChar

StartChar: germandbls
Encoding: 223 223 160
Width: 550
GlyphClass: 2
Flags: W
LayerCount: 2
Fore
SplineSet
464.5 228 m 0,0,1
 464.5 106 464.5 106 415 53 c 128,-1,2
 365.5 0 365.5 0 291.5 0 c 2,3,-1
 264.5 0 l 1,4,-1
 264.5 23 l 1,5,-1
 285.5 23 l 2,6,7
 362.5 23 362.5 23 400.5 78.5 c 128,-1,8
 438.5 134 438.5 134 438.5 229 c 0,9,10
 438.5 310 438.5 310 396 356 c 128,-1,11
 353.5 402 353.5 402 289.5 402 c 2,12,-1
 282.5 402 l 1,13,-1
 282.5 423 l 1,14,-1
 291.5 423 l 2,15,16
 344.5 423 344.5 423 378 465 c 128,-1,17
 411.5 507 411.5 507 411.5 557 c 0,18,19
 411.5 612 411.5 612 375.5 655.5 c 128,-1,20
 339.5 699 339.5 699 262.5 699 c 0,21,22
 219.5 699 219.5 699 188 682.5 c 128,-1,23
 156.5 666 156.5 666 140.5 639.5 c 128,-1,24
 124.5 613 124.5 613 117.5 586 c 128,-1,25
 110.5 559 110.5 559 110.5 531 c 2,26,-1
 110.5 0 l 1,27,-1
 85.5 0 l 1,28,-1
 85.5 533 l 2,29,30
 85.5 618 85.5 618 132 669.5 c 128,-1,31
 178.5 721 178.5 721 266.5 721 c 0,32,33
 345.5 721 345.5 721 391.5 675 c 128,-1,34
 437.5 629 437.5 629 437.5 567 c 0,35,36
 437.5 522 437.5 522 417.5 480.5 c 128,-1,37
 397.5 439 397.5 439 351.5 417 c 1,38,-1
 351.5 414 l 1,39,40
 408.5 396 408.5 396 436.5 345 c 128,-1,41
 464.5 294 464.5 294 464.5 228 c 0,0,1
EndSplineSet
EndChar

StartChar: agrave
Encoding: 224 224 161
Width: 550
GlyphClass: 2
Flags: W
LayerCount: 2
Fore
SplineSet
440 60 m 1,0,-1
 438 60 l 1,1,2
 396 -7 396 -7 259 -7 c 0,3,4
 187 -7 187 -7 136 28 c 128,-1,5
 85 63 85 63 85 133 c 0,6,7
 85 196 85 196 126.5 232 c 128,-1,8
 168 268 168 268 245 268 c 2,9,-1
 440 268 l 1,10,-1
 440 346 l 2,11,12
 440 412 440 412 404 445.5 c 128,-1,13
 368 479 368 479 282 479 c 0,14,15
 192 479 192 479 134 428 c 1,16,-1
 118 445 l 1,17,18
 180 501 180 501 285 501 c 0,19,20
 369 501 369 501 417 468.5 c 128,-1,21
 465 436 465 436 465 351 c 2,22,-1
 465 0 l 1,23,-1
 440 0 l 1,24,-1
 440 60 l 1,0,-1
440 246 m 1,25,-1
 250 246 l 2,26,27
 110 246 110 246 110 133 c 0,28,29
 110 76 110 76 151.5 45.5 c 128,-1,30
 193 15 193 15 263 15 c 0,31,32
 302 15 302 15 338.5 22.5 c 128,-1,33
 375 30 375 30 407.5 57 c 128,-1,34
 440 84 440 84 440 127 c 2,35,-1
 440 246 l 1,25,-1
329 587 m 1,36,-1
 314 579 l 1,37,-1
 215 713 l 1,38,-1
 247 729 l 1,39,-1
 329 587 l 1,36,-1
EndSplineSet
EndChar

StartChar: aacute
Encoding: 225 225 162
Width: 550
GlyphClass: 2
Flags: W
LayerCount: 2
Fore
SplineSet
440 60 m 1,0,-1
 438 60 l 1,1,2
 396 -7 396 -7 259 -7 c 0,3,4
 187 -7 187 -7 136 28 c 128,-1,5
 85 63 85 63 85 133 c 0,6,7
 85 196 85 196 126.5 232 c 128,-1,8
 168 268 168 268 245 268 c 2,9,-1
 440 268 l 1,10,-1
 440 346 l 2,11,12
 440 412 440 412 404 445.5 c 128,-1,13
 368 479 368 479 282 479 c 0,14,15
 192 479 192 479 134 428 c 1,16,-1
 118 445 l 1,17,18
 180 501 180 501 285 501 c 0,19,20
 369 501 369 501 417 468.5 c 128,-1,21
 465 436 465 436 465 351 c 2,22,-1
 465 0 l 1,23,-1
 440 0 l 1,24,-1
 440 60 l 1,0,-1
440 246 m 1,25,-1
 250 246 l 2,26,27
 110 246 110 246 110 133 c 0,28,29
 110 76 110 76 151.5 45.5 c 128,-1,30
 193 15 193 15 263 15 c 0,31,32
 302 15 302 15 338.5 22.5 c 128,-1,33
 375 30 375 30 407.5 57 c 128,-1,34
 440 84 440 84 440 127 c 2,35,-1
 440 246 l 1,25,-1
300 579 m 1,36,-1
 285 587 l 1,37,-1
 367 729 l 1,38,-1
 399 713 l 1,39,-1
 300 579 l 1,36,-1
EndSplineSet
EndChar

StartChar: acircumflex
Encoding: 226 226 163
Width: 550
GlyphClass: 2
Flags: W
LayerCount: 2
Fore
SplineSet
440 60 m 1,0,-1
 438 60 l 1,1,2
 396 -7 396 -7 259 -7 c 0,3,4
 187 -7 187 -7 136 28 c 128,-1,5
 85 63 85 63 85 133 c 0,6,7
 85 196 85 196 126.5 232 c 128,-1,8
 168 268 168 268 245 268 c 2,9,-1
 440 268 l 1,10,-1
 440 346 l 2,11,12
 440 412 440 412 404 445.5 c 128,-1,13
 368 479 368 479 282 479 c 0,14,15
 192 479 192 479 134 428 c 1,16,-1
 118 445 l 1,17,18
 180 501 180 501 285 501 c 0,19,20
 369 501 369 501 417 468.5 c 128,-1,21
 465 436 465 436 465 351 c 2,22,-1
 465 0 l 1,23,-1
 440 0 l 1,24,-1
 440 60 l 1,0,-1
440 246 m 1,25,-1
 250 246 l 2,26,27
 110 246 110 246 110 133 c 0,28,29
 110 76 110 76 151.5 45.5 c 128,-1,30
 193 15 193 15 263 15 c 0,31,32
 302 15 302 15 338.5 22.5 c 128,-1,33
 375 30 375 30 407.5 57 c 128,-1,34
 440 84 440 84 440 127 c 2,35,-1
 440 246 l 1,25,-1
412 569 m 1,36,-1
 290 661 l 1,37,-1
 167 568 l 1,38,-1
 155 581 l 1,39,-1
 277 691 l 1,40,-1
 306 691 l 1,41,-1
 424 581 l 1,42,-1
 412 569 l 1,36,-1
EndSplineSet
EndChar

StartChar: atilde
Encoding: 227 227 164
Width: 550
GlyphClass: 2
Flags: W
LayerCount: 2
Fore
SplineSet
440 60 m 1,0,-1
 438 60 l 1,1,2
 396 -7 396 -7 259 -7 c 0,3,4
 187 -7 187 -7 136 28 c 128,-1,5
 85 63 85 63 85 133 c 0,6,7
 85 196 85 196 126.5 232 c 128,-1,8
 168 268 168 268 245 268 c 2,9,-1
 440 268 l 1,10,-1
 440 346 l 2,11,12
 440 412 440 412 404 445.5 c 128,-1,13
 368 479 368 479 282 479 c 0,14,15
 192 479 192 479 134 428 c 1,16,-1
 118 445 l 1,17,18
 180 501 180 501 285 501 c 0,19,20
 369 501 369 501 417 468.5 c 128,-1,21
 465 436 465 436 465 351 c 2,22,-1
 465 0 l 1,23,-1
 440 0 l 1,24,-1
 440 60 l 1,0,-1
440 246 m 1,25,-1
 250 246 l 2,26,27
 110 246 110 246 110 133 c 0,28,29
 110 76 110 76 151.5 45.5 c 128,-1,30
 193 15 193 15 263 15 c 0,31,32
 302 15 302 15 338.5 22.5 c 128,-1,33
 375 30 375 30 407.5 57 c 128,-1,34
 440 84 440 84 440 127 c 2,35,-1
 440 246 l 1,25,-1
236 669 m 0,36,37
 256 669 256 669 298.5 649 c 128,-1,38
 341 629 341 629 357 629 c 0,39,40
 383 629 383 629 410 668 c 1,41,-1
 430 656 l 1,42,43
 399 602 399 602 356 602 c 0,44,45
 338 602 338 602 295.5 622 c 128,-1,46
 253 642 253 642 234 642 c 0,47,48
 201 642 201 642 170 604 c 1,49,-1
 151 616 l 1,50,51
 188 669 188 669 236 669 c 0,36,37
EndSplineSet
EndChar

StartChar: adieresis
Encoding: 228 228 165
Width: 550
GlyphClass: 2
Flags: W
LayerCount: 2
Fore
SplineSet
440 60 m 1,0,-1
 438 60 l 1,1,2
 396 -7 396 -7 259 -7 c 0,3,4
 187 -7 187 -7 136 28 c 128,-1,5
 85 63 85 63 85 133 c 0,6,7
 85 196 85 196 126.5 232 c 128,-1,8
 168 268 168 268 245 268 c 2,9,-1
 440 268 l 1,10,-1
 440 346 l 2,11,12
 440 412 440 412 404 445.5 c 128,-1,13
 368 479 368 479 282 479 c 0,14,15
 192 479 192 479 134 428 c 1,16,-1
 118 445 l 1,17,18
 180 501 180 501 285 501 c 0,19,20
 369 501 369 501 417 468.5 c 128,-1,21
 465 436 465 436 465 351 c 2,22,-1
 465 0 l 1,23,-1
 440 0 l 1,24,-1
 440 60 l 1,0,-1
440 246 m 1,25,-1
 250 246 l 2,26,27
 110 246 110 246 110 133 c 0,28,29
 110 76 110 76 151.5 45.5 c 128,-1,30
 193 15 193 15 263 15 c 0,31,32
 302 15 302 15 338.5 22.5 c 128,-1,33
 375 30 375 30 407.5 57 c 128,-1,34
 440 84 440 84 440 127 c 2,35,-1
 440 246 l 1,25,-1
355 624 m 1,36,-1
 355 660 l 1,37,-1
 393 660 l 1,38,-1
 393 624 l 1,39,-1
 355 624 l 1,36,-1
201 624 m 1,40,-1
 201 660 l 1,41,-1
 239 660 l 1,42,-1
 239 624 l 1,43,-1
 201 624 l 1,40,-1
EndSplineSet
EndChar

StartChar: aring
Encoding: 229 229 166
Width: 550
GlyphClass: 2
Flags: W
LayerCount: 2
Fore
SplineSet
440 60 m 1,0,-1
 438 60 l 1,1,2
 396 -7 396 -7 259 -7 c 0,3,4
 187 -7 187 -7 136 28 c 128,-1,5
 85 63 85 63 85 133 c 0,6,7
 85 196 85 196 126.5 232 c 128,-1,8
 168 268 168 268 245 268 c 2,9,-1
 440 268 l 1,10,-1
 440 346 l 2,11,12
 440 412 440 412 404 445.5 c 128,-1,13
 368 479 368 479 282 479 c 0,14,15
 192 479 192 479 134 428 c 1,16,-1
 118 445 l 1,17,18
 180 501 180 501 285 501 c 0,19,20
 369 501 369 501 417 468.5 c 128,-1,21
 465 436 465 436 465 351 c 2,22,-1
 465 0 l 1,23,-1
 440 0 l 1,24,-1
 440 60 l 1,0,-1
440 246 m 1,25,-1
 250 246 l 2,26,27
 110 246 110 246 110 133 c 0,28,29
 110 76 110 76 151.5 45.5 c 128,-1,30
 193 15 193 15 263 15 c 0,31,32
 302 15 302 15 338.5 22.5 c 128,-1,33
 375 30 375 30 407.5 57 c 128,-1,34
 440 84 440 84 440 127 c 2,35,-1
 440 246 l 1,25,-1
290 567 m 0,36,37
 255 567 255 567 229.5 592.5 c 128,-1,38
 204 618 204 618 204 653 c 0,39,40
 204 689 204 689 229 713.5 c 128,-1,41
 254 738 254 738 290 738 c 128,-1,42
 326 738 326 738 351.5 713.5 c 128,-1,43
 377 689 377 689 377 653 c 0,44,45
 377 618 377 618 351.5 592.5 c 128,-1,46
 326 567 326 567 290 567 c 0,36,37
290 720 m 128,-1,48
 262 720 262 720 243 700.5 c 128,-1,49
 224 681 224 681 224 653 c 128,-1,50
 224 625 224 625 243 605.5 c 128,-1,51
 262 586 262 586 290 586 c 128,-1,52
 318 586 318 586 337.5 605.5 c 128,-1,53
 357 625 357 625 357 653 c 128,-1,54
 357 681 357 681 337.5 700.5 c 128,-1,47
 318 720 318 720 290 720 c 128,-1,48
EndSplineSet
EndChar

StartChar: ae
Encoding: 230 230 167
Width: 550
GlyphClass: 2
Flags: W
LayerCount: 2
Fore
SplineSet
534 251 m 1,0,-1
 283 251 l 1,1,2
 281 15 281 15 407 15 c 0,3,4
 456 15 456 15 493 52 c 1,5,-1
 509 35 l 1,6,7
 467 -7 467 -7 409 -7 c 0,8,9
 306 -7 306 -7 276 108 c 1,10,11
 268 62 268 62 231 27.5 c 128,-1,12
 194 -7 194 -7 139 -7 c 0,13,14
 87 -7 87 -7 51.5 25.5 c 128,-1,15
 16 58 16 58 16 129 c 0,16,17
 16 277 16 277 158 277 c 2,18,-1
 259 277 l 1,19,-1
 259 356 l 2,20,21
 259 483 259 483 160 483 c 0,22,23
 98 483 98 483 51 435 c 1,24,-1
 33 454 l 1,25,26
 86 508 86 508 157 508 c 0,27,28
 269 508 269 508 280 405 c 1,29,30
 318 507 318 507 402 507 c 0,31,32
 534 507 534 507 534 278 c 2,33,-1
 534 251 l 1,0,-1
259 251 m 1,34,-1
 155 251 l 2,35,36
 100 251 100 251 71 223.5 c 128,-1,37
 42 196 42 196 42 130 c 0,38,39
 42 73 42 73 68.5 45 c 128,-1,40
 95 17 95 17 141 17 c 0,41,42
 193 17 193 17 226 57 c 128,-1,43
 259 97 259 97 259 165 c 2,44,-1
 259 251 l 1,34,-1
400 484 m 0,45,46
 348 484 348 484 317 428.5 c 128,-1,47
 286 373 286 373 284 276 c 1,48,-1
 509 276 l 1,49,50
 509 484 509 484 400 484 c 0,45,46
EndSplineSet
EndChar

StartChar: ccedilla
Encoding: 231 231 168
Width: 550
GlyphClass: 2
Flags: W
LayerCount: 2
Fore
SplineSet
311.5 -7 m 2,0,-1
 310.5 -7 l 1,1,-1
 297.5 -46 l 1,2,3
 388.5 -54 388.5 -54 388.5 -119 c 0,4,5
 388.5 -144 388.5 -144 366.5 -165 c 128,-1,6
 344.5 -186 344.5 -186 296.5 -186 c 0,7,8
 263.5 -186 263.5 -186 234.5 -174 c 1,9,-1
 241.5 -155 l 1,10,11
 270.5 -165 270.5 -165 296.5 -165 c 0,12,13
 323.5 -165 323.5 -165 343 -154 c 128,-1,14
 362.5 -143 362.5 -143 362.5 -117 c 0,15,16
 362.5 -93 362.5 -93 337.5 -79 c 128,-1,17
 312.5 -65 312.5 -65 276.5 -65 c 1,18,-1
 271.5 -61 l 1,19,-1
 288.5 -6 l 1,20,21
 199.5 0 199.5 0 147.5 60.5 c 128,-1,22
 95.5 121 95.5 121 95.5 247 c 0,23,24
 95.5 378 95.5 378 157 439.5 c 128,-1,25
 218.5 501 218.5 501 310.5 501 c 0,26,27
 389.5 501 389.5 501 449.5 454 c 1,28,-1
 434.5 435 l 1,29,30
 379.5 480 379.5 480 313.5 480 c 0,31,32
 217.5 480 217.5 480 169 419.5 c 128,-1,33
 120.5 359 120.5 359 120.5 247 c 0,34,35
 120.5 14 120.5 14 314.5 14 c 0,36,37
 346.5 14 346.5 14 383 27.5 c 128,-1,38
 419.5 41 419.5 41 441.5 58 c 1,39,-1
 454.5 40 l 1,40,41
 394.5 -7 394.5 -7 311.5 -7 c 2,0,-1
EndSplineSet
EndChar

StartChar: egrave
Encoding: 232 232 169
Width: 550
GlyphClass: 2
Flags: W
LayerCount: 2
Fore
SplineSet
103.5 251 m 1,0,1
 102.5 182 102.5 182 118.5 131.5 c 128,-1,2
 134.5 81 134.5 81 177.5 47 c 128,-1,3
 220.5 13 220.5 13 289.5 13 c 0,4,5
 354.5 13 354.5 13 411.5 52 c 1,6,-1
 426.5 34 l 1,7,8
 367.5 -7 367.5 -7 291.5 -7 c 0,9,10
 80.5 -7 80.5 -7 80.5 245 c 0,11,12
 80.5 318 80.5 318 98 370.5 c 128,-1,13
 115.5 423 115.5 423 145.5 450 c 128,-1,14
 175.5 477 175.5 477 208 489 c 128,-1,15
 240.5 501 240.5 501 277.5 501 c 0,16,17
 376.5 501 376.5 501 423 436.5 c 128,-1,18
 469.5 372 469.5 372 469.5 271 c 2,19,-1
 469.5 251 l 1,20,-1
 103.5 251 l 1,0,1
278.5 480 m 0,21,22
 199.5 480 199.5 480 155 426 c 128,-1,23
 110.5 372 110.5 372 105.5 272 c 1,24,-1
 443.5 272 l 1,25,26
 439.5 376 439.5 376 397 428 c 128,-1,27
 354.5 480 354.5 480 278.5 480 c 0,21,22
317.5 587 m 1,28,-1
 302.5 579 l 1,29,-1
 203.5 713 l 1,30,-1
 235.5 729 l 1,31,-1
 317.5 587 l 1,28,-1
EndSplineSet
EndChar

StartChar: eacute
Encoding: 233 233 170
Width: 550
GlyphClass: 2
Flags: W
LayerCount: 2
Fore
SplineSet
103.5 251 m 1,0,1
 102.5 182 102.5 182 118.5 131.5 c 128,-1,2
 134.5 81 134.5 81 177.5 47 c 128,-1,3
 220.5 13 220.5 13 289.5 13 c 0,4,5
 354.5 13 354.5 13 411.5 52 c 1,6,-1
 426.5 34 l 1,7,8
 367.5 -7 367.5 -7 291.5 -7 c 0,9,10
 80.5 -7 80.5 -7 80.5 245 c 0,11,12
 80.5 318 80.5 318 98 370.5 c 128,-1,13
 115.5 423 115.5 423 145.5 450 c 128,-1,14
 175.5 477 175.5 477 208 489 c 128,-1,15
 240.5 501 240.5 501 277.5 501 c 0,16,17
 376.5 501 376.5 501 423 436.5 c 128,-1,18
 469.5 372 469.5 372 469.5 271 c 2,19,-1
 469.5 251 l 1,20,-1
 103.5 251 l 1,0,1
278.5 480 m 0,21,22
 199.5 480 199.5 480 155 426 c 128,-1,23
 110.5 372 110.5 372 105.5 272 c 1,24,-1
 443.5 272 l 1,25,26
 439.5 376 439.5 376 397 428 c 128,-1,27
 354.5 480 354.5 480 278.5 480 c 0,21,22
264.5 579 m 1,28,-1
 249.5 587 l 1,29,-1
 331.5 729 l 1,30,-1
 363.5 713 l 1,31,-1
 264.5 579 l 1,28,-1
EndSplineSet
EndChar

StartChar: ecircumflex
Encoding: 234 234 171
Width: 550
GlyphClass: 2
Flags: W
LayerCount: 2
Fore
SplineSet
103.5 251 m 1,0,1
 102.5 182 102.5 182 118.5 131.5 c 128,-1,2
 134.5 81 134.5 81 177.5 47 c 128,-1,3
 220.5 13 220.5 13 289.5 13 c 0,4,5
 354.5 13 354.5 13 411.5 52 c 1,6,-1
 426.5 34 l 1,7,8
 367.5 -7 367.5 -7 291.5 -7 c 0,9,10
 80.5 -7 80.5 -7 80.5 245 c 0,11,12
 80.5 318 80.5 318 98 370.5 c 128,-1,13
 115.5 423 115.5 423 145.5 450 c 128,-1,14
 175.5 477 175.5 477 208 489 c 128,-1,15
 240.5 501 240.5 501 277.5 501 c 0,16,17
 376.5 501 376.5 501 423 436.5 c 128,-1,18
 469.5 372 469.5 372 469.5 271 c 2,19,-1
 469.5 251 l 1,20,-1
 103.5 251 l 1,0,1
278.5 480 m 0,21,22
 199.5 480 199.5 480 155 426 c 128,-1,23
 110.5 372 110.5 372 105.5 272 c 1,24,-1
 443.5 272 l 1,25,26
 439.5 376 439.5 376 397 428 c 128,-1,27
 354.5 480 354.5 480 278.5 480 c 0,21,22
396.5 569 m 1,28,-1
 274.5 661 l 1,29,-1
 151.5 568 l 1,30,-1
 139.5 581 l 1,31,-1
 261.5 691 l 1,32,-1
 290.5 691 l 1,33,-1
 408.5 581 l 1,34,-1
 396.5 569 l 1,28,-1
EndSplineSet
EndChar

StartChar: edieresis
Encoding: 235 235 172
Width: 550
GlyphClass: 2
Flags: W
LayerCount: 2
Fore
SplineSet
103.5 251 m 1,0,1
 102.5 182 102.5 182 118.5 131.5 c 128,-1,2
 134.5 81 134.5 81 177.5 47 c 128,-1,3
 220.5 13 220.5 13 289.5 13 c 0,4,5
 354.5 13 354.5 13 411.5 52 c 1,6,-1
 426.5 34 l 1,7,8
 367.5 -7 367.5 -7 291.5 -7 c 0,9,10
 80.5 -7 80.5 -7 80.5 245 c 0,11,12
 80.5 318 80.5 318 98 370.5 c 128,-1,13
 115.5 423 115.5 423 145.5 450 c 128,-1,14
 175.5 477 175.5 477 208 489 c 128,-1,15
 240.5 501 240.5 501 277.5 501 c 0,16,17
 376.5 501 376.5 501 423 436.5 c 128,-1,18
 469.5 372 469.5 372 469.5 271 c 2,19,-1
 469.5 251 l 1,20,-1
 103.5 251 l 1,0,1
278.5 480 m 0,21,22
 199.5 480 199.5 480 155 426 c 128,-1,23
 110.5 372 110.5 372 105.5 272 c 1,24,-1
 443.5 272 l 1,25,26
 439.5 376 439.5 376 397 428 c 128,-1,27
 354.5 480 354.5 480 278.5 480 c 0,21,22
339.5 624 m 1,28,-1
 339.5 660 l 1,29,-1
 377.5 660 l 1,30,-1
 377.5 624 l 1,31,-1
 339.5 624 l 1,28,-1
185.5 624 m 1,32,-1
 185.5 660 l 1,33,-1
 223.5 660 l 1,34,-1
 223.5 624 l 1,35,-1
 185.5 624 l 1,32,-1
EndSplineSet
EndChar

StartChar: igrave
Encoding: 236 236 173
Width: 550
GlyphClass: 2
Flags: W
LayerCount: 2
Fore
SplineSet
218 0 m 1,0,-1
 218 24 l 1,1,-1
 280 24 l 1,2,-1
 280 471 l 1,3,-1
 217 471 l 1,4,-1
 217 495 l 1,5,-1
 305 495 l 1,6,-1
 305 24 l 1,7,-1
 364 24 l 1,8,-1
 364 0 l 1,9,-1
 218 0 l 1,0,-1
300 587 m 1,10,-1
 285 579 l 1,11,-1
 186 713 l 1,12,-1
 218 729 l 1,13,-1
 300 587 l 1,10,-1
EndSplineSet
EndChar

StartChar: iacute
Encoding: 237 237 174
Width: 550
GlyphClass: 2
Flags: W
LayerCount: 2
Fore
SplineSet
195.5 0 m 5,0,-1
 195.5 24 l 5,1,-1
 257.5 24 l 5,2,-1
 257.5 471 l 5,3,-1
 194.5 471 l 5,4,-1
 194.5 495 l 5,5,-1
 282.5 495 l 5,6,-1
 282.5 24 l 5,7,-1
 341.5 24 l 5,8,-1
 341.5 0 l 5,9,-1
 195.5 0 l 5,0,-1
256.5 579 m 1,10,-1
 241.5 587 l 1,11,-1
 323.5 729 l 1,12,-1
 355.5 713 l 1,13,-1
 256.5 579 l 1,10,-1
EndSplineSet
EndChar

StartChar: icircumflex
Encoding: 238 238 175
Width: 550
GlyphClass: 2
Flags: W
LayerCount: 2
Fore
SplineSet
212.5 0 m 5,0,-1
 212.5 24 l 5,1,-1
 274.5 24 l 5,2,-1
 274.5 471 l 5,3,-1
 211.5 471 l 5,4,-1
 211.5 495 l 5,5,-1
 299.5 495 l 5,6,-1
 299.5 24 l 5,7,-1
 358.5 24 l 5,8,-1
 358.5 0 l 5,9,-1
 212.5 0 l 5,0,-1
397.5 569 m 1,10,-1
 275.5 661 l 1,11,-1
 152.5 568 l 1,12,-1
 140.5 581 l 1,13,-1
 262.5 691 l 1,14,-1
 291.5 691 l 1,15,-1
 409.5 581 l 1,16,-1
 397.5 569 l 1,10,-1
EndSplineSet
EndChar

StartChar: idieresis
Encoding: 239 239 176
Width: 550
GlyphClass: 2
Flags: W
LayerCount: 2
Fore
SplineSet
222 0 m 5,0,-1
 222 24 l 5,1,-1
 284 24 l 5,2,-1
 284 471 l 5,3,-1
 221 471 l 5,4,-1
 221 495 l 5,5,-1
 309 495 l 5,6,-1
 309 24 l 5,7,-1
 368 24 l 5,8,-1
 368 0 l 5,9,-1
 222 0 l 5,0,-1
333 624 m 1,10,-1
 333 660 l 1,11,-1
 371 660 l 1,12,-1
 371 624 l 1,13,-1
 333 624 l 1,10,-1
179 624 m 1,14,-1
 179 660 l 1,15,-1
 217 660 l 1,16,-1
 217 624 l 1,17,-1
 179 624 l 1,14,-1
EndSplineSet
EndChar

StartChar: eth
Encoding: 240 240 177
Width: 550
GlyphClass: 2
Flags: W
LayerCount: 2
Fore
SplineSet
489 666 m 1,0,-1
 414 613 l 1,1,2
 461 528 461 528 461 347 c 0,3,4
 461 291 461 291 460 261 c 128,-1,5
 459 231 459 231 453.5 185.5 c 128,-1,6
 448 140 448 140 435 107 c 128,-1,7
 422 74 422 74 400 50 c 0,8,9
 352 -3 352 -3 258 -6 c 0,10,11
 172 -6 172 -6 126 39 c 0,12,13
 61 102 61 102 61 232 c 0,14,15
 61 367 61 367 132 430 c 0,16,17
 185 476 185 476 262 476 c 0,18,19
 322 476 322 476 371.5 441.5 c 128,-1,20
 421 407 421 407 434 354 c 1,21,-1
 437 354 l 1,22,23
 437 516 437 516 393 599 c 1,24,-1
 314 543 l 1,25,-1
 303 559 l 1,26,-1
 383 616 l 1,27,28
 356 655 356 655 321.5 674.5 c 128,-1,29
 287 694 287 694 221 703 c 1,30,-1
 224 725 l 1,31,32
 346 717 346 717 404 631 c 1,33,-1
 477 683 l 1,34,-1
 489 666 l 1,0,-1
261 453 m 0,35,36
 178 453 178 453 133 398 c 0,37,38
 86 343 86 343 86 229 c 128,-1,39
 86 115 86 115 141 58 c 0,40,41
 183 15 183 15 261 15 c 0,42,43
 333 15 333 15 378 60 c 0,44,45
 432 116 432 116 432 238 c 128,-1,46
 432 360 432 360 372 413 c 0,47,48
 327 453 327 453 261 453 c 0,35,36
EndSplineSet
EndChar

StartChar: ntilde
Encoding: 241 241 178
Width: 550
GlyphClass: 2
Flags: W
LayerCount: 2
Fore
SplineSet
437.5 0 m 1,0,-1
 437.5 327 l 2,1,2
 437.5 401 437.5 401 397 439.5 c 128,-1,3
 356.5 478 356.5 478 283.5 478 c 0,4,5
 211.5 478 211.5 478 162 428 c 128,-1,6
 112.5 378 112.5 378 112.5 302 c 2,7,-1
 112.5 0 l 1,8,-1
 88.5 0 l 1,9,-1
 88.5 495 l 1,10,-1
 112.5 495 l 1,11,-1
 112.5 398 l 1,12,-1
 114.5 398 l 1,13,14
 137.5 449 137.5 449 186 474.5 c 128,-1,15
 234.5 500 234.5 500 285.5 500 c 0,16,17
 372.5 500 372.5 500 417 456.5 c 128,-1,18
 461.5 413 461.5 413 461.5 334 c 2,19,-1
 461.5 0 l 1,20,-1
 437.5 0 l 1,0,-1
219.5 669 m 0,21,22
 239.5 669 239.5 669 282 649 c 128,-1,23
 324.5 629 324.5 629 340.5 629 c 0,24,25
 366.5 629 366.5 629 393.5 668 c 1,26,-1
 413.5 656 l 1,27,28
 382.5 602 382.5 602 339.5 602 c 0,29,30
 321.5 602 321.5 602 279 622 c 128,-1,31
 236.5 642 236.5 642 217.5 642 c 0,32,33
 184.5 642 184.5 642 153.5 604 c 1,34,-1
 134.5 616 l 1,35,36
 171.5 669 171.5 669 219.5 669 c 0,21,22
EndSplineSet
EndChar

StartChar: ograve
Encoding: 242 242 179
Width: 550
GlyphClass: 2
Flags: W
LayerCount: 2
Fore
SplineSet
277.5 501 m 0,0,1
 385.5 501 385.5 501 436.5 422 c 0,2,3
 472.5 365 472.5 365 472.5 244 c 0,4,5
 472.5 111 472.5 111 415.5 49 c 0,6,7
 365.5 -6 365.5 -6 272.5 -6 c 0,8,9
 189.5 -6 189.5 -6 140.5 41 c 0,10,11
 77.5 104 77.5 104 77.5 251 c 0,12,13
 77.5 394 77.5 394 147.5 455 c 0,14,15
 200.5 501 200.5 501 277.5 501 c 0,0,1
276.5 479 m 0,16,17
 203.5 479 203.5 479 157.5 431 c 0,18,19
 102.5 374 102.5 374 102.5 248 c 0,20,21
 102.5 117 102.5 117 158.5 59 c 0,22,23
 202.5 15 202.5 15 275.5 15 c 0,24,25
 350.5 15 350.5 15 396.5 63 c 0,26,27
 447.5 117 447.5 117 447.5 245 c 0,28,29
 447.5 363 447.5 363 413.5 411 c 0,30,31
 366.5 479 366.5 479 276.5 479 c 0,16,17
305.5 587 m 1,32,-1
 290.5 579 l 1,33,-1
 191.5 713 l 1,34,-1
 223.5 729 l 1,35,-1
 305.5 587 l 1,32,-1
EndSplineSet
EndChar

StartChar: oacute
Encoding: 243 243 180
Width: 550
GlyphClass: 2
Flags: W
LayerCount: 2
Fore
SplineSet
277.5 501 m 0,0,1
 385.5 501 385.5 501 436.5 422 c 0,2,3
 472.5 365 472.5 365 472.5 244 c 0,4,5
 472.5 111 472.5 111 415.5 49 c 0,6,7
 365.5 -6 365.5 -6 272.5 -6 c 0,8,9
 189.5 -6 189.5 -6 140.5 41 c 0,10,11
 77.5 104 77.5 104 77.5 251 c 0,12,13
 77.5 394 77.5 394 147.5 455 c 0,14,15
 200.5 501 200.5 501 277.5 501 c 0,0,1
276.5 479 m 0,16,17
 203.5 479 203.5 479 157.5 431 c 0,18,19
 102.5 374 102.5 374 102.5 248 c 0,20,21
 102.5 117 102.5 117 158.5 59 c 0,22,23
 202.5 15 202.5 15 275.5 15 c 0,24,25
 350.5 15 350.5 15 396.5 63 c 0,26,27
 447.5 117 447.5 117 447.5 245 c 0,28,29
 447.5 363 447.5 363 413.5 411 c 0,30,31
 366.5 479 366.5 479 276.5 479 c 0,16,17
274.5 579 m 1,32,-1
 259.5 587 l 1,33,-1
 341.5 729 l 1,34,-1
 373.5 713 l 1,35,-1
 274.5 579 l 1,32,-1
EndSplineSet
EndChar

StartChar: ocircumflex
Encoding: 244 244 181
Width: 550
GlyphClass: 2
Flags: W
LayerCount: 2
Fore
SplineSet
277.5 501 m 0,0,1
 385.5 501 385.5 501 436.5 422 c 0,2,3
 472.5 365 472.5 365 472.5 244 c 0,4,5
 472.5 111 472.5 111 415.5 49 c 0,6,7
 365.5 -6 365.5 -6 272.5 -6 c 0,8,9
 189.5 -6 189.5 -6 140.5 41 c 0,10,11
 77.5 104 77.5 104 77.5 251 c 0,12,13
 77.5 394 77.5 394 147.5 455 c 0,14,15
 200.5 501 200.5 501 277.5 501 c 0,0,1
276.5 479 m 0,16,17
 203.5 479 203.5 479 157.5 431 c 0,18,19
 102.5 374 102.5 374 102.5 248 c 0,20,21
 102.5 117 102.5 117 158.5 59 c 0,22,23
 202.5 15 202.5 15 275.5 15 c 0,24,25
 350.5 15 350.5 15 396.5 63 c 0,26,27
 447.5 117 447.5 117 447.5 245 c 0,28,29
 447.5 363 447.5 363 413.5 411 c 0,30,31
 366.5 479 366.5 479 276.5 479 c 0,16,17
403.5 569 m 1,32,-1
 281.5 661 l 1,33,-1
 158.5 568 l 1,34,-1
 146.5 581 l 1,35,-1
 268.5 691 l 1,36,-1
 297.5 691 l 1,37,-1
 415.5 581 l 1,38,-1
 403.5 569 l 1,32,-1
EndSplineSet
EndChar

StartChar: otilde
Encoding: 245 245 182
Width: 550
GlyphClass: 2
Flags: W
LayerCount: 2
Fore
SplineSet
277.5 501 m 0,0,1
 385.5 501 385.5 501 436.5 422 c 0,2,3
 472.5 365 472.5 365 472.5 244 c 0,4,5
 472.5 111 472.5 111 415.5 49 c 0,6,7
 365.5 -6 365.5 -6 272.5 -6 c 0,8,9
 189.5 -6 189.5 -6 140.5 41 c 0,10,11
 77.5 104 77.5 104 77.5 251 c 0,12,13
 77.5 394 77.5 394 147.5 455 c 0,14,15
 200.5 501 200.5 501 277.5 501 c 0,0,1
276.5 479 m 0,16,17
 203.5 479 203.5 479 157.5 431 c 0,18,19
 102.5 374 102.5 374 102.5 248 c 0,20,21
 102.5 117 102.5 117 158.5 59 c 0,22,23
 202.5 15 202.5 15 275.5 15 c 0,24,25
 350.5 15 350.5 15 396.5 63 c 0,26,27
 447.5 117 447.5 117 447.5 245 c 0,28,29
 447.5 363 447.5 363 413.5 411 c 0,30,31
 366.5 479 366.5 479 276.5 479 c 0,16,17
229.5 669 m 0,32,33
 249.5 669 249.5 669 292 649 c 128,-1,34
 334.5 629 334.5 629 350.5 629 c 0,35,36
 376.5 629 376.5 629 403.5 668 c 1,37,-1
 423.5 656 l 1,38,39
 392.5 602 392.5 602 349.5 602 c 0,40,41
 331.5 602 331.5 602 289 622 c 128,-1,42
 246.5 642 246.5 642 227.5 642 c 0,43,44
 194.5 642 194.5 642 163.5 604 c 1,45,-1
 144.5 616 l 1,46,47
 181.5 669 181.5 669 229.5 669 c 0,32,33
EndSplineSet
EndChar

StartChar: odieresis
Encoding: 246 246 183
Width: 550
GlyphClass: 2
Flags: W
LayerCount: 2
Fore
SplineSet
277.5 501 m 0,0,1
 385.5 501 385.5 501 436.5 422 c 0,2,3
 472.5 365 472.5 365 472.5 244 c 0,4,5
 472.5 111 472.5 111 415.5 49 c 0,6,7
 365.5 -6 365.5 -6 272.5 -6 c 0,8,9
 189.5 -6 189.5 -6 140.5 41 c 0,10,11
 77.5 104 77.5 104 77.5 251 c 0,12,13
 77.5 394 77.5 394 147.5 455 c 0,14,15
 200.5 501 200.5 501 277.5 501 c 0,0,1
276.5 479 m 0,16,17
 203.5 479 203.5 479 157.5 431 c 0,18,19
 102.5 374 102.5 374 102.5 248 c 0,20,21
 102.5 117 102.5 117 158.5 59 c 0,22,23
 202.5 15 202.5 15 275.5 15 c 0,24,25
 350.5 15 350.5 15 396.5 63 c 0,26,27
 447.5 117 447.5 117 447.5 245 c 0,28,29
 447.5 363 447.5 363 413.5 411 c 0,30,31
 366.5 479 366.5 479 276.5 479 c 0,16,17
332.5 624 m 1,32,-1
 332.5 660 l 1,33,-1
 370.5 660 l 1,34,-1
 370.5 624 l 1,35,-1
 332.5 624 l 1,32,-1
178.5 624 m 1,36,-1
 178.5 660 l 1,37,-1
 216.5 660 l 1,38,-1
 216.5 624 l 1,39,-1
 178.5 624 l 1,36,-1
EndSplineSet
EndChar

StartChar: divide
Encoding: 247 247 184
Width: 550
GlyphClass: 2
Flags: W
LayerCount: 2
Fore
SplineSet
278.5 406 m 0,0,1
 265.5 406 265.5 406 257 414.5 c 128,-1,2
 248.5 423 248.5 423 248.5 435 c 0,3,4
 248.5 448 248.5 448 257.5 455.5 c 128,-1,5
 266.5 463 266.5 463 278.5 463 c 128,-1,6
 290.5 463 290.5 463 299 455.5 c 128,-1,7
 307.5 448 307.5 448 307.5 435 c 0,8,9
 307.5 423 307.5 423 299 414.5 c 128,-1,10
 290.5 406 290.5 406 278.5 406 c 0,0,1
278.5 78 m 0,11,12
 265.5 78 265.5 78 257 86.5 c 128,-1,13
 248.5 95 248.5 95 248.5 107 c 0,14,15
 248.5 120 248.5 120 258 127.5 c 128,-1,16
 267.5 135 267.5 135 279.5 135 c 0,17,18
 290.5 135 290.5 135 299 127.5 c 128,-1,19
 307.5 120 307.5 120 307.5 107 c 0,20,21
 307.5 95 307.5 95 299 86.5 c 128,-1,22
 290.5 78 290.5 78 278.5 78 c 0,11,12
474.5 261 m 1,23,-1
 75.5 261 l 1,24,-1
 75.5 285 l 1,25,-1
 474.5 285 l 1,26,-1
 474.5 261 l 1,23,-1
EndSplineSet
EndChar

StartChar: oslash
Encoding: 248 248 185
Width: 550
GlyphClass: 2
Flags: W
LayerCount: 2
Fore
SplineSet
277.5 501 m 0,0,1
 364.5 501 364.5 501 415.5 448 c 1,2,-1
 455.5 500 l 1,3,-1
 471.5 487 l 1,4,-1
 429.5 432 l 2,5,6
 430.5 430 430.5 430 433.5 426.5 c 128,-1,7
 436.5 423 436.5 423 436.5 422 c 0,8,9
 472.5 365 472.5 365 472.5 244 c 0,10,11
 472.5 111 472.5 111 415.5 49 c 0,12,13
 365.5 -6 365.5 -6 272.5 -6 c 0,14,15
 189.5 -6 189.5 -6 140.5 41 c 2,16,-1
 134.5 47 l 1,17,-1
 96.5 -3 l 1,18,-1
 79.5 10 l 1,19,-1
 120.5 64 l 1,20,21
 77.5 126 77.5 126 77.5 251 c 0,22,23
 77.5 394 77.5 394 147.5 455 c 0,24,25
 200.5 501 200.5 501 277.5 501 c 0,0,1
447.5 245 m 0,26,27
 447.5 363 447.5 363 413.5 411 c 1,28,-1
 150.5 67 l 2,29,30
 151.5 66 151.5 66 152.5 64.5 c 128,-1,31
 153.5 63 153.5 63 155.5 61.5 c 128,-1,32
 157.5 60 157.5 60 158.5 59 c 0,33,34
 202.5 15 202.5 15 275.5 15 c 0,35,36
 350.5 15 350.5 15 396.5 63 c 0,37,38
 447.5 117 447.5 117 447.5 245 c 0,26,27
276.5 479 m 0,39,40
 203.5 479 203.5 479 157.5 431 c 0,41,42
 102.5 374 102.5 374 102.5 248 c 0,43,44
 102.5 141 102.5 141 137.5 85 c 1,45,-1
 399.5 427 l 1,46,47
 352.5 479 352.5 479 276.5 479 c 0,39,40
EndSplineSet
EndChar

StartChar: ugrave
Encoding: 249 249 186
Width: 550
GlyphClass: 2
Flags: W
LayerCount: 2
Fore
SplineSet
461.5 0 m 1,0,-1
 437.5 0 l 1,1,-1
 437.5 92 l 1,2,-1
 435.5 92 l 1,3,4
 414.5 44 414.5 44 364.5 19.5 c 128,-1,5
 314.5 -5 314.5 -5 264.5 -5 c 0,6,7
 180.5 -5 180.5 -5 134.5 42 c 128,-1,8
 88.5 89 88.5 89 88.5 167 c 2,9,-1
 88.5 495 l 1,10,-1
 113.5 495 l 1,11,-1
 113.5 169 l 2,12,13
 113.5 96 113.5 96 155.5 56.5 c 128,-1,14
 197.5 17 197.5 17 265.5 17 c 0,15,16
 338.5 17 338.5 17 388.5 65.5 c 128,-1,17
 438.5 114 438.5 114 438.5 190 c 2,18,-1
 438.5 495 l 1,19,-1
 461.5 495 l 1,20,-1
 461.5 0 l 1,0,-1
314.5 587 m 1,21,-1
 299.5 579 l 1,22,-1
 200.5 713 l 1,23,-1
 232.5 729 l 1,24,-1
 314.5 587 l 1,21,-1
EndSplineSet
EndChar

StartChar: uacute
Encoding: 250 250 187
Width: 550
GlyphClass: 2
Flags: W
LayerCount: 2
Fore
SplineSet
461.5 0 m 1,0,-1
 437.5 0 l 1,1,-1
 437.5 92 l 1,2,-1
 435.5 92 l 1,3,4
 414.5 44 414.5 44 364.5 19.5 c 128,-1,5
 314.5 -5 314.5 -5 264.5 -5 c 0,6,7
 180.5 -5 180.5 -5 134.5 42 c 128,-1,8
 88.5 89 88.5 89 88.5 167 c 2,9,-1
 88.5 495 l 1,10,-1
 113.5 495 l 1,11,-1
 113.5 169 l 2,12,13
 113.5 96 113.5 96 155.5 56.5 c 128,-1,14
 197.5 17 197.5 17 265.5 17 c 0,15,16
 338.5 17 338.5 17 388.5 65.5 c 128,-1,17
 438.5 114 438.5 114 438.5 190 c 2,18,-1
 438.5 495 l 1,19,-1
 461.5 495 l 1,20,-1
 461.5 0 l 1,0,-1
281.5 579 m 1,21,-1
 266.5 587 l 1,22,-1
 348.5 729 l 1,23,-1
 380.5 713 l 1,24,-1
 281.5 579 l 1,21,-1
EndSplineSet
EndChar

StartChar: ucircumflex
Encoding: 251 251 188
Width: 550
GlyphClass: 2
Flags: W
LayerCount: 2
Fore
SplineSet
461.5 0 m 1,0,-1
 437.5 0 l 1,1,-1
 437.5 92 l 1,2,-1
 435.5 92 l 1,3,4
 414.5 44 414.5 44 364.5 19.5 c 128,-1,5
 314.5 -5 314.5 -5 264.5 -5 c 0,6,7
 180.5 -5 180.5 -5 134.5 42 c 128,-1,8
 88.5 89 88.5 89 88.5 167 c 2,9,-1
 88.5 495 l 1,10,-1
 113.5 495 l 1,11,-1
 113.5 169 l 2,12,13
 113.5 96 113.5 96 155.5 56.5 c 128,-1,14
 197.5 17 197.5 17 265.5 17 c 0,15,16
 338.5 17 338.5 17 388.5 65.5 c 128,-1,17
 438.5 114 438.5 114 438.5 190 c 2,18,-1
 438.5 495 l 1,19,-1
 461.5 495 l 1,20,-1
 461.5 0 l 1,0,-1
399.5 569 m 1,21,-1
 277.5 661 l 1,22,-1
 154.5 568 l 1,23,-1
 142.5 581 l 1,24,-1
 264.5 691 l 1,25,-1
 293.5 691 l 1,26,-1
 411.5 581 l 1,27,-1
 399.5 569 l 1,21,-1
EndSplineSet
EndChar

StartChar: udieresis
Encoding: 252 252 189
Width: 550
GlyphClass: 2
Flags: W
LayerCount: 2
Fore
SplineSet
461.5 0 m 1,0,-1
 437.5 0 l 1,1,-1
 437.5 92 l 1,2,-1
 435.5 92 l 1,3,4
 414.5 44 414.5 44 364.5 19.5 c 128,-1,5
 314.5 -5 314.5 -5 264.5 -5 c 0,6,7
 180.5 -5 180.5 -5 134.5 42 c 128,-1,8
 88.5 89 88.5 89 88.5 167 c 2,9,-1
 88.5 495 l 1,10,-1
 113.5 495 l 1,11,-1
 113.5 169 l 2,12,13
 113.5 96 113.5 96 155.5 56.5 c 128,-1,14
 197.5 17 197.5 17 265.5 17 c 0,15,16
 338.5 17 338.5 17 388.5 65.5 c 128,-1,17
 438.5 114 438.5 114 438.5 190 c 2,18,-1
 438.5 495 l 1,19,-1
 461.5 495 l 1,20,-1
 461.5 0 l 1,0,-1
331.5 624 m 1,21,-1
 331.5 660 l 1,22,-1
 369.5 660 l 1,23,-1
 369.5 624 l 1,24,-1
 331.5 624 l 1,21,-1
177.5 624 m 1,25,-1
 177.5 660 l 1,26,-1
 215.5 660 l 1,27,-1
 215.5 624 l 1,28,-1
 177.5 624 l 1,25,-1
EndSplineSet
EndChar

StartChar: yacute
Encoding: 253 253 190
Width: 550
GlyphClass: 2
Flags: W
LayerCount: 2
Fore
SplineSet
472.5 494 m 1,0,-1
 254.5 -115 l 2,1,2
 238.5 -159 238.5 -159 210.5 -180 c 128,-1,3
 182.5 -201 182.5 -201 131.5 -201 c 2,4,-1
 102.5 -201 l 1,5,-1
 102.5 -178 l 1,6,-1
 129.5 -178 l 2,7,8
 173.5 -178 173.5 -178 197 -159.5 c 128,-1,9
 220.5 -141 220.5 -141 234.5 -100 c 2,10,-1
 263.5 -14 l 1,11,-1
 77.5 494 l 1,12,-1
 105.5 494 l 1,13,-1
 276.5 20 l 1,14,-1
 277.5 20 l 1,15,-1
 445.5 494 l 1,16,-1
 472.5 494 l 1,0,-1
271.5 579 m 1,17,-1
 256.5 587 l 1,18,-1
 338.5 729 l 1,19,-1
 370.5 713 l 1,20,-1
 271.5 579 l 1,17,-1
EndSplineSet
EndChar

StartChar: thorn
Encoding: 254 254 191
Width: 550
GlyphClass: 2
Flags: W
LayerCount: 2
Fore
SplineSet
87 696 m 1,0,-1
 112 696 l 1,1,-1
 112 398 l 1,2,-1
 113 398 l 1,3,4
 164 503 164 503 273 503 c 0,5,6
 372 503 372 503 417.5 432.5 c 128,-1,7
 463 362 463 362 463 245 c 0,8,9
 463 197 463 197 453.5 154.5 c 128,-1,10
 444 112 444 112 423 75.5 c 128,-1,11
 402 39 402 39 363.5 17.5 c 128,-1,12
 325 -4 325 -4 273 -4 c 0,13,14
 164 -4 164 -4 113 101 c 1,15,-1
 112 101 l 1,16,-1
 112 -200 l 1,17,-1
 87 -200 l 1,18,-1
 87 696 l 1,0,-1
112 252 m 0,19,20
 112 146 112 146 151.5 81 c 128,-1,21
 191 16 191 16 273 16 c 0,22,23
 321 16 321 16 355 37 c 128,-1,24
 389 58 389 58 406 94.5 c 128,-1,25
 423 131 423 131 430 168.5 c 128,-1,26
 437 206 437 206 437 249 c 0,27,28
 437 482 437 482 273 482 c 0,29,30
 233 482 233 482 203 466.5 c 128,-1,31
 173 451 173 451 156.5 427.5 c 128,-1,32
 140 404 140 404 129.5 371.5 c 128,-1,33
 119 339 119 339 115.5 311 c 128,-1,34
 112 283 112 283 112 252 c 0,19,20
EndSplineSet
EndChar

StartChar: ydieresis
Encoding: 255 255 192
Width: 550
GlyphClass: 2
Flags: W
LayerCount: 2
Fore
SplineSet
472.5 494 m 1,0,-1
 254.5 -115 l 2,1,2
 238.5 -159 238.5 -159 210.5 -180 c 128,-1,3
 182.5 -201 182.5 -201 131.5 -201 c 2,4,-1
 102.5 -201 l 1,5,-1
 102.5 -178 l 1,6,-1
 129.5 -178 l 2,7,8
 173.5 -178 173.5 -178 197 -159.5 c 128,-1,9
 220.5 -141 220.5 -141 234.5 -100 c 2,10,-1
 263.5 -14 l 1,11,-1
 77.5 494 l 1,12,-1
 105.5 494 l 1,13,-1
 276.5 20 l 1,14,-1
 277.5 20 l 1,15,-1
 445.5 494 l 1,16,-1
 472.5 494 l 1,0,-1
338.5 624 m 1,17,-1
 338.5 660 l 1,18,-1
 376.5 660 l 1,19,-1
 376.5 624 l 1,20,-1
 338.5 624 l 1,17,-1
184.5 624 m 1,21,-1
 184.5 660 l 1,22,-1
 222.5 660 l 1,23,-1
 222.5 624 l 1,24,-1
 184.5 624 l 1,21,-1
EndSplineSet
EndChar

StartChar: Amacron
Encoding: 256 256 193
Width: 550
GlyphClass: 2
Flags: W
LayerCount: 2
Fore
SplineSet
506 0 m 1,0,-1
 446 175 l 1,1,-1
 103 175 l 1,2,-1
 42 0 l 1,3,-1
 14 0 l 1,4,-1
 257 696 l 1,5,-1
 293 696 l 1,6,-1
 536 0 l 1,7,-1
 506 0 l 1,0,-1
274 670 m 1,8,-1
 211 489 l 1,9,-1
 111 200 l 1,10,-1
 437 200 l 1,11,-1
 276 670 l 1,12,-1
 274 670 l 1,8,-1
149 794 m 1,13,-1
 149 818 l 1,14,-1
 397 818 l 1,15,-1
 397 794 l 1,16,-1
 149 794 l 1,13,-1
EndSplineSet
EndChar

StartChar: amacron
Encoding: 257 257 194
Width: 550
GlyphClass: 2
Flags: W
LayerCount: 2
Fore
SplineSet
440 60 m 1,0,-1
 438 60 l 1,1,2
 396 -7 396 -7 259 -7 c 0,3,4
 187 -7 187 -7 136 28 c 128,-1,5
 85 63 85 63 85 133 c 0,6,7
 85 196 85 196 126.5 232 c 128,-1,8
 168 268 168 268 245 268 c 2,9,-1
 440 268 l 1,10,-1
 440 346 l 2,11,12
 440 412 440 412 404 445.5 c 128,-1,13
 368 479 368 479 282 479 c 0,14,15
 192 479 192 479 134 428 c 1,16,-1
 118 445 l 1,17,18
 180 501 180 501 285 501 c 0,19,20
 369 501 369 501 417 468.5 c 128,-1,21
 465 436 465 436 465 351 c 2,22,-1
 465 0 l 1,23,-1
 440 0 l 1,24,-1
 440 60 l 1,0,-1
440 246 m 1,25,-1
 250 246 l 2,26,27
 110 246 110 246 110 133 c 0,28,29
 110 76 110 76 151.5 45.5 c 128,-1,30
 193 15 193 15 263 15 c 0,31,32
 302 15 302 15 338.5 22.5 c 128,-1,33
 375 30 375 30 407.5 57 c 128,-1,34
 440 84 440 84 440 127 c 2,35,-1
 440 246 l 1,25,-1
166 600 m 1,36,-1
 166 624 l 1,37,-1
 414 624 l 1,38,-1
 414 600 l 1,39,-1
 166 600 l 1,36,-1
EndSplineSet
EndChar

StartChar: Abreve
Encoding: 258 258 195
Width: 550
GlyphClass: 2
Flags: W
LayerCount: 2
Fore
SplineSet
506 0 m 1,0,-1
 446 175 l 1,1,-1
 103 175 l 1,2,-1
 42 0 l 1,3,-1
 14 0 l 1,4,-1
 257 696 l 1,5,-1
 293 696 l 1,6,-1
 536 0 l 1,7,-1
 506 0 l 1,0,-1
274 670 m 1,8,-1
 211 489 l 1,9,-1
 111 200 l 1,10,-1
 437 200 l 1,11,-1
 276 670 l 1,12,-1
 274 670 l 1,8,-1
276 776 m 0,13,14
 313 776 313 776 340 798 c 128,-1,15
 367 820 367 820 373 854 c 1,16,-1
 395 854 l 1,17,18
 388 813 388 813 357.5 783 c 128,-1,19
 327 753 327 753 276 753 c 128,-1,20
 225 753 225 753 194 783 c 128,-1,21
 163 813 163 813 157 854 c 1,22,-1
 178 854 l 1,23,24
 184 820 184 820 212 798 c 128,-1,25
 240 776 240 776 276 776 c 0,13,14
EndSplineSet
EndChar

StartChar: abreve
Encoding: 259 259 196
Width: 550
GlyphClass: 2
Flags: W
LayerCount: 2
Fore
SplineSet
440 60 m 1,0,-1
 438 60 l 1,1,2
 396 -7 396 -7 259 -7 c 0,3,4
 187 -7 187 -7 136 28 c 128,-1,5
 85 63 85 63 85 133 c 0,6,7
 85 196 85 196 126.5 232 c 128,-1,8
 168 268 168 268 245 268 c 2,9,-1
 440 268 l 1,10,-1
 440 346 l 2,11,12
 440 412 440 412 404 445.5 c 128,-1,13
 368 479 368 479 282 479 c 0,14,15
 192 479 192 479 134 428 c 1,16,-1
 118 445 l 1,17,18
 180 501 180 501 285 501 c 0,19,20
 369 501 369 501 417 468.5 c 128,-1,21
 465 436 465 436 465 351 c 2,22,-1
 465 0 l 1,23,-1
 440 0 l 1,24,-1
 440 60 l 1,0,-1
440 246 m 1,25,-1
 250 246 l 2,26,27
 110 246 110 246 110 133 c 0,28,29
 110 76 110 76 151.5 45.5 c 128,-1,30
 193 15 193 15 263 15 c 0,31,32
 302 15 302 15 338.5 22.5 c 128,-1,33
 375 30 375 30 407.5 57 c 128,-1,34
 440 84 440 84 440 127 c 2,35,-1
 440 246 l 1,25,-1
298 595 m 0,36,37
 375 595 375 595 395 673 c 1,38,-1
 417 673 l 1,39,40
 410 632 410 632 379.5 602 c 128,-1,41
 349 572 349 572 298 572 c 128,-1,42
 247 572 247 572 216 602 c 128,-1,43
 185 632 185 632 179 673 c 1,44,-1
 201 673 l 1,45,46
 208 636 208 636 236 615.5 c 128,-1,47
 264 595 264 595 298 595 c 0,36,37
EndSplineSet
EndChar

StartChar: Aogonek
Encoding: 260 260 197
Width: 550
GlyphClass: 2
Flags: W
LayerCount: 2
Fore
SplineSet
425 -91 m 0,0,1
 425 -40 425 -40 466 0 c 1,2,-1
 406 175 l 1,3,-1
 63 175 l 1,4,-1
 2 0 l 1,5,-1
 -26 0 l 1,6,-1
 217 696 l 1,7,-1
 253 696 l 1,8,-1
 496 0 l 1,9,-1
 491 0 l 1,10,11
 451 -47 451 -47 451 -88 c 0,12,13
 451 -145 451 -145 509 -145 c 0,14,15
 538 -145 538 -145 567 -130 c 1,16,-1
 576 -148 l 1,17,18
 544 -168 544 -168 505 -168 c 0,19,20
 468 -168 468 -168 446.5 -145.5 c 128,-1,21
 425 -123 425 -123 425 -91 c 0,0,1
234 670 m 1,22,-1
 171 489 l 1,23,-1
 71 200 l 1,24,-1
 397 200 l 1,25,-1
 236 670 l 1,26,-1
 234 670 l 1,22,-1
EndSplineSet
EndChar

StartChar: aogonek
Encoding: 261 261 198
Width: 550
GlyphClass: 2
Flags: W
LayerCount: 2
Fore
SplineSet
355.5 -93 m 0,0,1
 355.5 -42 355.5 -42 398.5 0 c 1,2,-1
 398.5 60 l 1,3,-1
 396.5 60 l 1,4,5
 354.5 -7 354.5 -7 217.5 -7 c 0,6,7
 145.5 -7 145.5 -7 94.5 28 c 128,-1,8
 43.5 63 43.5 63 43.5 133 c 0,9,10
 43.5 196 43.5 196 85 232 c 128,-1,11
 126.5 268 126.5 268 203.5 268 c 2,12,-1
 398.5 268 l 1,13,-1
 398.5 346 l 2,14,15
 398.5 412 398.5 412 362.5 445.5 c 128,-1,16
 326.5 479 326.5 479 240.5 479 c 0,17,18
 150.5 479 150.5 479 92.5 428 c 1,19,-1
 76.5 445 l 1,20,21
 138.5 501 138.5 501 243.5 501 c 0,22,23
 327.5 501 327.5 501 375.5 468.5 c 128,-1,24
 423.5 436 423.5 436 423.5 351 c 2,25,-1
 423.5 0 l 1,26,27
 405.5 -21 405.5 -21 393.5 -46.5 c 128,-1,28
 381.5 -72 381.5 -72 381.5 -90 c 0,29,30
 381.5 -147 381.5 -147 439.5 -147 c 0,31,32
 468.5 -147 468.5 -147 497.5 -132 c 1,33,-1
 506.5 -150 l 1,34,35
 474.5 -170 474.5 -170 435.5 -170 c 0,36,37
 398.5 -170 398.5 -170 377 -147.5 c 128,-1,38
 355.5 -125 355.5 -125 355.5 -93 c 0,0,1
398.5 246 m 1,39,-1
 208.5 246 l 2,40,41
 68.5 246 68.5 246 68.5 133 c 0,42,43
 68.5 76 68.5 76 110 45.5 c 128,-1,44
 151.5 15 151.5 15 221.5 15 c 0,45,46
 260.5 15 260.5 15 297 22.5 c 128,-1,47
 333.5 30 333.5 30 366 57 c 128,-1,48
 398.5 84 398.5 84 398.5 127 c 2,49,-1
 398.5 246 l 1,39,-1
EndSplineSet
EndChar

StartChar: Cacute
Encoding: 262 262 199
Width: 550
GlyphClass: 2
Flags: W
LayerCount: 2
Fore
SplineSet
482 141 m 1,0,-1
 504 132 l 1,1,2
 478 69 478 69 420 31 c 128,-1,3
 362 -7 362 -7 287 -7 c 0,4,5
 165 -7 165 -7 105.5 63 c 128,-1,6
 46 133 46 133 46 243 c 2,7,-1
 46 458 l 2,8,9
 46 562 46 562 107.5 631.5 c 128,-1,10
 169 701 169 701 283 701 c 0,11,12
 356 701 356 701 410 668 c 128,-1,13
 464 635 464 635 491 579 c 1,14,-1
 470 566 l 1,15,16
 447 616 447 616 398 647 c 128,-1,17
 349 678 349 678 284 678 c 0,18,19
 181 678 181 678 126.5 615.5 c 128,-1,20
 72 553 72 553 72 456 c 2,21,-1
 72 238 l 2,22,23
 72 141 72 141 126 78.5 c 128,-1,24
 180 16 180 16 287 16 c 0,25,26
 353 16 353 16 403.5 49.5 c 128,-1,27
 454 83 454 83 482 141 c 1,0,-1
259 754 m 1,28,-1
 248 767 l 1,29,-1
 377 868 l 1,30,-1
 401 842 l 1,31,-1
 259 754 l 1,28,-1
EndSplineSet
EndChar

StartChar: cacute
Encoding: 263 263 200
Width: 550
GlyphClass: 2
Flags: W
LayerCount: 2
Fore
SplineSet
311.5 -7 m 0,0,1
 213.5 -7 213.5 -7 154.5 53.5 c 128,-1,2
 95.5 114 95.5 114 95.5 247 c 0,3,4
 95.5 378 95.5 378 157 439.5 c 128,-1,5
 218.5 501 218.5 501 310.5 501 c 0,6,7
 389.5 501 389.5 501 449.5 454 c 1,8,-1
 434.5 435 l 1,9,10
 379.5 480 379.5 480 313.5 480 c 0,11,12
 217.5 480 217.5 480 169 419.5 c 128,-1,13
 120.5 359 120.5 359 120.5 247 c 0,14,15
 120.5 14 120.5 14 314.5 14 c 0,16,17
 346.5 14 346.5 14 383 27.5 c 128,-1,18
 419.5 41 419.5 41 441.5 58 c 1,19,-1
 454.5 40 l 1,20,21
 394.5 -7 394.5 -7 311.5 -7 c 0,0,1
287.5 579 m 1,22,-1
 272.5 587 l 1,23,-1
 354.5 729 l 1,24,-1
 386.5 713 l 1,25,-1
 287.5 579 l 1,22,-1
EndSplineSet
EndChar

StartChar: Ccircumflex
Encoding: 264 264 201
Width: 550
GlyphClass: 2
Flags: W
LayerCount: 2
Fore
SplineSet
482 141 m 1,0,-1
 504 132 l 1,1,2
 478 69 478 69 420 31 c 128,-1,3
 362 -7 362 -7 287 -7 c 0,4,5
 165 -7 165 -7 105.5 63 c 128,-1,6
 46 133 46 133 46 243 c 2,7,-1
 46 458 l 2,8,9
 46 562 46 562 107.5 631.5 c 128,-1,10
 169 701 169 701 283 701 c 0,11,12
 356 701 356 701 410 668 c 128,-1,13
 464 635 464 635 491 579 c 1,14,-1
 470 566 l 1,15,16
 447 616 447 616 398 647 c 128,-1,17
 349 678 349 678 284 678 c 0,18,19
 181 678 181 678 126.5 615.5 c 128,-1,20
 72 553 72 553 72 456 c 2,21,-1
 72 238 l 2,22,23
 72 141 72 141 126 78.5 c 128,-1,24
 180 16 180 16 287 16 c 0,25,26
 353 16 353 16 403.5 49.5 c 128,-1,27
 454 83 454 83 482 141 c 1,0,-1
398 746 m 1,28,-1
 276 828 l 1,29,-1
 153 745 l 1,30,-1
 141 758 l 1,31,-1
 263 858 l 1,32,-1
 292 858 l 1,33,-1
 410 758 l 1,34,-1
 398 746 l 1,28,-1
EndSplineSet
EndChar

StartChar: ccircumflex
Encoding: 265 265 202
Width: 550
GlyphClass: 2
Flags: W
LayerCount: 2
Fore
SplineSet
311.5 -7 m 0,0,1
 213.5 -7 213.5 -7 154.5 53.5 c 128,-1,2
 95.5 114 95.5 114 95.5 247 c 0,3,4
 95.5 378 95.5 378 157 439.5 c 128,-1,5
 218.5 501 218.5 501 310.5 501 c 0,6,7
 389.5 501 389.5 501 449.5 454 c 1,8,-1
 434.5 435 l 1,9,10
 379.5 480 379.5 480 313.5 480 c 0,11,12
 217.5 480 217.5 480 169 419.5 c 128,-1,13
 120.5 359 120.5 359 120.5 247 c 0,14,15
 120.5 14 120.5 14 314.5 14 c 0,16,17
 346.5 14 346.5 14 383 27.5 c 128,-1,18
 419.5 41 419.5 41 441.5 58 c 1,19,-1
 454.5 40 l 1,20,21
 394.5 -7 394.5 -7 311.5 -7 c 0,0,1
419.5 569 m 1,22,-1
 297.5 661 l 1,23,-1
 174.5 568 l 1,24,-1
 162.5 581 l 1,25,-1
 284.5 691 l 1,26,-1
 313.5 691 l 1,27,-1
 431.5 581 l 1,28,-1
 419.5 569 l 1,22,-1
EndSplineSet
EndChar

StartChar: Cdotaccent
Encoding: 266 266 203
Width: 550
GlyphClass: 2
Flags: W
LayerCount: 2
Fore
SplineSet
482 141 m 1,0,-1
 504 132 l 1,1,2
 478 69 478 69 420 31 c 128,-1,3
 362 -7 362 -7 287 -7 c 0,4,5
 165 -7 165 -7 105.5 63 c 128,-1,6
 46 133 46 133 46 243 c 2,7,-1
 46 458 l 2,8,9
 46 562 46 562 107.5 631.5 c 128,-1,10
 169 701 169 701 283 701 c 0,11,12
 356 701 356 701 410 668 c 128,-1,13
 464 635 464 635 491 579 c 1,14,-1
 470 566 l 1,15,16
 447 616 447 616 398 647 c 128,-1,17
 349 678 349 678 284 678 c 0,18,19
 181 678 181 678 126.5 615.5 c 128,-1,20
 72 553 72 553 72 456 c 2,21,-1
 72 238 l 2,22,23
 72 141 72 141 126 78.5 c 128,-1,24
 180 16 180 16 287 16 c 0,25,26
 353 16 353 16 403.5 49.5 c 128,-1,27
 454 83 454 83 482 141 c 1,0,-1
261 774 m 1,28,-1
 261 810 l 1,29,-1
 299 810 l 1,30,-1
 299 774 l 1,31,-1
 261 774 l 1,28,-1
EndSplineSet
EndChar

StartChar: cdotaccent
Encoding: 267 267 204
Width: 550
GlyphClass: 2
Flags: W
LayerCount: 2
Fore
SplineSet
311.5 -7 m 0,0,1
 213.5 -7 213.5 -7 154.5 53.5 c 128,-1,2
 95.5 114 95.5 114 95.5 247 c 0,3,4
 95.5 378 95.5 378 157 439.5 c 128,-1,5
 218.5 501 218.5 501 310.5 501 c 0,6,7
 389.5 501 389.5 501 449.5 454 c 1,8,-1
 434.5 435 l 1,9,10
 379.5 480 379.5 480 313.5 480 c 0,11,12
 217.5 480 217.5 480 169 419.5 c 128,-1,13
 120.5 359 120.5 359 120.5 247 c 0,14,15
 120.5 14 120.5 14 314.5 14 c 0,16,17
 346.5 14 346.5 14 383 27.5 c 128,-1,18
 419.5 41 419.5 41 441.5 58 c 1,19,-1
 454.5 40 l 1,20,21
 394.5 -7 394.5 -7 311.5 -7 c 0,0,1
280.5 624 m 1,22,-1
 280.5 660 l 1,23,-1
 318.5 660 l 1,24,-1
 318.5 624 l 1,25,-1
 280.5 624 l 1,22,-1
EndSplineSet
EndChar

StartChar: Ccaron
Encoding: 268 268 205
Width: 550
GlyphClass: 2
Flags: W
LayerCount: 2
Fore
SplineSet
482 141 m 1,0,-1
 504 132 l 1,1,2
 478 69 478 69 420 31 c 128,-1,3
 362 -7 362 -7 287 -7 c 0,4,5
 165 -7 165 -7 105.5 63 c 128,-1,6
 46 133 46 133 46 243 c 2,7,-1
 46 458 l 2,8,9
 46 562 46 562 107.5 631.5 c 128,-1,10
 169 701 169 701 283 701 c 0,11,12
 356 701 356 701 410 668 c 128,-1,13
 464 635 464 635 491 579 c 1,14,-1
 470 566 l 1,15,16
 447 616 447 616 398 647 c 128,-1,17
 349 678 349 678 284 678 c 0,18,19
 181 678 181 678 126.5 615.5 c 128,-1,20
 72 553 72 553 72 456 c 2,21,-1
 72 238 l 2,22,23
 72 141 72 141 126 78.5 c 128,-1,24
 180 16 180 16 287 16 c 0,25,26
 353 16 353 16 403.5 49.5 c 128,-1,27
 454 83 454 83 482 141 c 1,0,-1
275 778 m 1,28,-1
 397 860 l 1,29,-1
 409 848 l 1,30,-1
 291 748 l 1,31,-1
 262 748 l 1,32,-1
 140 848 l 1,33,-1
 152 861 l 1,34,-1
 275 778 l 1,28,-1
EndSplineSet
EndChar

StartChar: ccaron
Encoding: 269 269 206
Width: 550
GlyphClass: 2
Flags: W
LayerCount: 2
Fore
SplineSet
311.5 -7 m 0,0,1
 213.5 -7 213.5 -7 154.5 53.5 c 128,-1,2
 95.5 114 95.5 114 95.5 247 c 0,3,4
 95.5 378 95.5 378 157 439.5 c 128,-1,5
 218.5 501 218.5 501 310.5 501 c 0,6,7
 389.5 501 389.5 501 449.5 454 c 1,8,-1
 434.5 435 l 1,9,10
 379.5 480 379.5 480 313.5 480 c 0,11,12
 217.5 480 217.5 480 169 419.5 c 128,-1,13
 120.5 359 120.5 359 120.5 247 c 0,14,15
 120.5 14 120.5 14 314.5 14 c 0,16,17
 346.5 14 346.5 14 383 27.5 c 128,-1,18
 419.5 41 419.5 41 441.5 58 c 1,19,-1
 454.5 40 l 1,20,21
 394.5 -7 394.5 -7 311.5 -7 c 0,0,1
296.5 599 m 1,22,-1
 418.5 691 l 1,23,-1
 430.5 679 l 1,24,-1
 312.5 569 l 1,25,-1
 283.5 569 l 1,26,-1
 161.5 679 l 1,27,-1
 173.5 692 l 1,28,-1
 296.5 599 l 1,22,-1
EndSplineSet
EndChar

StartChar: Dcaron
Encoding: 270 270 207
Width: 550
GlyphClass: 2
Flags: W
LayerCount: 2
Fore
SplineSet
48 696 m 1,0,-1
 260 696 l 2,1,2
 420 696 420 696 478 572 c 0,3,4
 502 521 502 521 502 361 c 0,5,6
 502 187 502 187 479 132 c 0,7,8
 449 61 449 61 392.5 30.5 c 128,-1,9
 336 0 336 0 248 0 c 2,10,-1
 48 0 l 1,11,-1
 48 696 l 1,0,-1
476 271 m 2,12,-1
 476 419 l 2,13,14
 476 556 476 556 419 614 c 128,-1,15
 362 672 362 672 252 672 c 2,16,-1
 75 672 l 1,17,-1
 75 24 l 1,18,-1
 252 24 l 2,19,20
 476 24 476 24 476 271 c 2,12,-1
235 778 m 1,21,-1
 357 860 l 1,22,-1
 369 848 l 1,23,-1
 251 748 l 1,24,-1
 222 748 l 1,25,-1
 100 848 l 1,26,-1
 112 861 l 1,27,-1
 235 778 l 1,21,-1
EndSplineSet
EndChar

StartChar: dcaron
Encoding: 271 271 208
Width: 550
GlyphClass: 2
Flags: W
LayerCount: 2
Fore
SplineSet
477 577 m 1,0,-1
 459 577 l 1,1,-1
 483 675 l 1,2,-1
 473 675 l 1,3,-1
 473 722 l 1,4,-1
 514 722 l 1,5,-1
 514 672 l 1,6,-1
 477 577 l 1,0,-1
412 0 m 1,7,-1
 388 0 l 1,8,-1
 388 102 l 1,9,-1
 387 102 l 1,10,11
 370 66 370 66 348.5 43 c 128,-1,12
 327 20 327 20 303 10 c 128,-1,13
 279 0 279 0 260 -3.5 c 128,-1,14
 241 -7 241 -7 217 -7 c 0,15,16
 36 -7 36 -7 36 251 c 0,17,18
 36 290 36 290 41 323.5 c 128,-1,19
 46 357 46 357 59 390.5 c 128,-1,20
 72 424 72 424 93 447.5 c 128,-1,21
 114 471 114 471 148 485.5 c 128,-1,22
 182 500 182 500 226 500 c 0,23,24
 290 500 290 500 326.5 471 c 128,-1,25
 363 442 363 442 387 395 c 1,26,-1
 388 395 l 1,27,-1
 388 721 l 1,28,-1
 412 721 l 1,29,-1
 412 0 l 1,7,-1
388 244 m 0,30,31
 388 349 388 349 348 414 c 128,-1,32
 308 479 308 479 227 479 c 0,33,34
 62 479 62 479 62 247 c 0,35,36
 62 213 62 213 64.5 185.5 c 128,-1,37
 67 158 67 158 76.5 124 c 128,-1,38
 86 90 86 90 102.5 67.5 c 128,-1,39
 119 45 119 45 150 29.5 c 128,-1,40
 181 14 181 14 223 14 c 0,41,42
 272 14 272 14 306.5 36.5 c 128,-1,43
 341 59 341 59 357.5 96 c 128,-1,44
 374 133 374 133 381 169 c 128,-1,45
 388 205 388 205 388 244 c 0,30,31
EndSplineSet
EndChar

StartChar: Dcroat
Encoding: 272 272 209
Width: 550
GlyphClass: 2
Flags: W
LayerCount: 2
Fore
SplineSet
25 365 m 1,0,-1
 25 388 l 1,1,-1
 71 388 l 1,2,-1
 71 696 l 1,3,-1
 283 696 l 2,4,5
 443 696 443 696 501 572 c 0,6,7
 525 521 525 521 525 361 c 0,8,9
 525 187 525 187 502 132 c 0,10,11
 472 61 472 61 415.5 30.5 c 128,-1,12
 359 0 359 0 271 0 c 2,13,-1
 71 0 l 1,14,-1
 71 365 l 1,15,-1
 25 365 l 1,0,-1
499 271 m 2,16,-1
 499 419 l 2,17,18
 499 556 499 556 442 614 c 128,-1,19
 385 672 385 672 275 672 c 2,20,-1
 98 672 l 1,21,-1
 98 388 l 1,22,-1
 288 388 l 1,23,-1
 288 365 l 1,24,-1
 98 365 l 1,25,-1
 98 24 l 1,26,-1
 275 24 l 2,27,28
 499 24 499 24 499 271 c 2,16,-1
EndSplineSet
EndChar

StartChar: dcroat
Encoding: 273 273 210
Width: 550
GlyphClass: 2
Flags: W
LayerCount: 2
Fore
SplineSet
253 586 m 1,0,-1
 253 606 l 1,1,-1
 420 606 l 1,2,-1
 420 721 l 1,3,-1
 444 721 l 1,4,-1
 444 606 l 1,5,-1
 482 606 l 1,6,-1
 482 586 l 1,7,-1
 444 586 l 1,8,-1
 444 0 l 1,9,-1
 420 0 l 1,10,-1
 420 102 l 1,11,-1
 419 102 l 1,12,13
 402 66 402 66 380.5 43 c 128,-1,14
 359 20 359 20 335 10 c 128,-1,15
 311 0 311 0 292 -3.5 c 128,-1,16
 273 -7 273 -7 249 -7 c 0,17,18
 68 -7 68 -7 68 251 c 0,19,20
 68 290 68 290 73 323.5 c 128,-1,21
 78 357 78 357 91 390.5 c 128,-1,22
 104 424 104 424 125 447.5 c 128,-1,23
 146 471 146 471 180 485.5 c 128,-1,24
 214 500 214 500 258 500 c 0,25,26
 322 500 322 500 358.5 471 c 128,-1,27
 395 442 395 442 419 395 c 1,28,-1
 420 395 l 1,29,-1
 420 586 l 1,30,-1
 253 586 l 1,0,-1
420 244 m 0,31,32
 420 349 420 349 380 414 c 128,-1,33
 340 479 340 479 259 479 c 0,34,35
 94 479 94 479 94 247 c 0,36,37
 94 213 94 213 96.5 185.5 c 128,-1,38
 99 158 99 158 108.5 124 c 128,-1,39
 118 90 118 90 134.5 67.5 c 128,-1,40
 151 45 151 45 182 29.5 c 128,-1,41
 213 14 213 14 255 14 c 0,42,43
 304 14 304 14 338.5 36.5 c 128,-1,44
 373 59 373 59 389.5 96 c 128,-1,45
 406 133 406 133 413 169 c 128,-1,46
 420 205 420 205 420 244 c 0,31,32
EndSplineSet
EndChar

StartChar: Emacron
Encoding: 274 274 211
Width: 550
GlyphClass: 2
Flags: W
LayerCount: 2
Fore
SplineSet
62.5 0 m 1,0,-1
 62.5 696 l 1,1,-1
 459.5 696 l 1,2,-1
 459.5 672 l 1,3,-1
 89.5 672 l 1,4,-1
 89.5 378 l 1,5,-1
 423.5 378 l 1,6,-1
 423.5 354 l 1,7,-1
 89.5 354 l 1,8,-1
 89.5 24 l 1,9,-1
 487.5 24 l 1,10,-1
 487.5 0 l 1,11,-1
 62.5 0 l 1,0,-1
145.5 805 m 1,12,-1
 145.5 829 l 1,13,-1
 393.5 829 l 1,14,-1
 393.5 805 l 1,15,-1
 145.5 805 l 1,12,-1
EndSplineSet
EndChar

StartChar: emacron
Encoding: 275 275 212
Width: 550
GlyphClass: 2
Flags: W
LayerCount: 2
Fore
SplineSet
103.5 251 m 1,0,1
 102.5 182 102.5 182 118.5 131.5 c 128,-1,2
 134.5 81 134.5 81 177.5 47 c 128,-1,3
 220.5 13 220.5 13 289.5 13 c 0,4,5
 354.5 13 354.5 13 411.5 52 c 1,6,-1
 426.5 34 l 1,7,8
 367.5 -7 367.5 -7 291.5 -7 c 0,9,10
 80.5 -7 80.5 -7 80.5 245 c 0,11,12
 80.5 318 80.5 318 98 370.5 c 128,-1,13
 115.5 423 115.5 423 145.5 450 c 128,-1,14
 175.5 477 175.5 477 208 489 c 128,-1,15
 240.5 501 240.5 501 277.5 501 c 0,16,17
 376.5 501 376.5 501 423 436.5 c 128,-1,18
 469.5 372 469.5 372 469.5 271 c 2,19,-1
 469.5 251 l 1,20,-1
 103.5 251 l 1,0,1
278.5 480 m 0,21,22
 199.5 480 199.5 480 155 426 c 128,-1,23
 110.5 372 110.5 372 105.5 272 c 1,24,-1
 443.5 272 l 1,25,26
 439.5 376 439.5 376 397 428 c 128,-1,27
 354.5 480 354.5 480 278.5 480 c 0,21,22
154.5 600 m 1,28,-1
 154.5 624 l 1,29,-1
 402.5 624 l 1,30,-1
 402.5 600 l 1,31,-1
 154.5 600 l 1,28,-1
EndSplineSet
EndChar

StartChar: Ebreve
Encoding: 276 276 213
Width: 550
GlyphClass: 2
Flags: W
LayerCount: 2
Fore
SplineSet
62.5 0 m 1,0,-1
 62.5 696 l 1,1,-1
 459.5 696 l 1,2,-1
 459.5 672 l 1,3,-1
 89.5 672 l 1,4,-1
 89.5 378 l 1,5,-1
 423.5 378 l 1,6,-1
 423.5 354 l 1,7,-1
 89.5 354 l 1,8,-1
 89.5 24 l 1,9,-1
 487.5 24 l 1,10,-1
 487.5 0 l 1,11,-1
 62.5 0 l 1,0,-1
269.5 787 m 0,12,13
 306.5 787 306.5 787 333.5 809 c 128,-1,14
 360.5 831 360.5 831 366.5 865 c 1,15,-1
 388.5 865 l 1,16,17
 381.5 824 381.5 824 351 794 c 128,-1,18
 320.5 764 320.5 764 269.5 764 c 128,-1,19
 218.5 764 218.5 764 187.5 794 c 128,-1,20
 156.5 824 156.5 824 150.5 865 c 1,21,-1
 171.5 865 l 1,22,23
 177.5 831 177.5 831 205.5 809 c 128,-1,24
 233.5 787 233.5 787 269.5 787 c 0,12,13
EndSplineSet
EndChar

StartChar: ebreve
Encoding: 277 277 214
Width: 550
GlyphClass: 2
Flags: W
LayerCount: 2
Fore
SplineSet
103.5 251 m 1,0,1
 102.5 182 102.5 182 118.5 131.5 c 128,-1,2
 134.5 81 134.5 81 177.5 47 c 128,-1,3
 220.5 13 220.5 13 289.5 13 c 0,4,5
 354.5 13 354.5 13 411.5 52 c 1,6,-1
 426.5 34 l 1,7,8
 367.5 -7 367.5 -7 291.5 -7 c 0,9,10
 80.5 -7 80.5 -7 80.5 245 c 0,11,12
 80.5 318 80.5 318 98 370.5 c 128,-1,13
 115.5 423 115.5 423 145.5 450 c 128,-1,14
 175.5 477 175.5 477 208 489 c 128,-1,15
 240.5 501 240.5 501 277.5 501 c 0,16,17
 376.5 501 376.5 501 423 436.5 c 128,-1,18
 469.5 372 469.5 372 469.5 271 c 2,19,-1
 469.5 251 l 1,20,-1
 103.5 251 l 1,0,1
278.5 480 m 0,21,22
 199.5 480 199.5 480 155 426 c 128,-1,23
 110.5 372 110.5 372 105.5 272 c 1,24,-1
 443.5 272 l 1,25,26
 439.5 376 439.5 376 397 428 c 128,-1,27
 354.5 480 354.5 480 278.5 480 c 0,21,22
274.5 595 m 0,28,29
 351.5 595 351.5 595 371.5 673 c 1,30,-1
 393.5 673 l 1,31,32
 386.5 632 386.5 632 356 602 c 128,-1,33
 325.5 572 325.5 572 274.5 572 c 128,-1,34
 223.5 572 223.5 572 192.5 602 c 128,-1,35
 161.5 632 161.5 632 155.5 673 c 1,36,-1
 177.5 673 l 1,37,38
 184.5 636 184.5 636 212.5 615.5 c 128,-1,39
 240.5 595 240.5 595 274.5 595 c 0,28,29
EndSplineSet
EndChar

StartChar: Edotaccent
Encoding: 278 278 215
Width: 550
GlyphClass: 2
Flags: W
LayerCount: 2
Fore
SplineSet
62.5 0 m 1,0,-1
 62.5 696 l 1,1,-1
 459.5 696 l 1,2,-1
 459.5 672 l 1,3,-1
 89.5 672 l 1,4,-1
 89.5 378 l 1,5,-1
 423.5 378 l 1,6,-1
 423.5 354 l 1,7,-1
 89.5 354 l 1,8,-1
 89.5 24 l 1,9,-1
 487.5 24 l 1,10,-1
 487.5 0 l 1,11,-1
 62.5 0 l 1,0,-1
235.5 774 m 1,12,-1
 235.5 810 l 1,13,-1
 273.5 810 l 1,14,-1
 273.5 774 l 1,15,-1
 235.5 774 l 1,12,-1
EndSplineSet
EndChar

StartChar: edotaccent
Encoding: 279 279 216
Width: 550
GlyphClass: 2
Flags: W
LayerCount: 2
Fore
SplineSet
103.5 251 m 1,0,1
 102.5 182 102.5 182 118.5 131.5 c 128,-1,2
 134.5 81 134.5 81 177.5 47 c 128,-1,3
 220.5 13 220.5 13 289.5 13 c 0,4,5
 354.5 13 354.5 13 411.5 52 c 1,6,-1
 426.5 34 l 1,7,8
 367.5 -7 367.5 -7 291.5 -7 c 0,9,10
 80.5 -7 80.5 -7 80.5 245 c 0,11,12
 80.5 318 80.5 318 98 370.5 c 128,-1,13
 115.5 423 115.5 423 145.5 450 c 128,-1,14
 175.5 477 175.5 477 208 489 c 128,-1,15
 240.5 501 240.5 501 277.5 501 c 0,16,17
 376.5 501 376.5 501 423 436.5 c 128,-1,18
 469.5 372 469.5 372 469.5 271 c 2,19,-1
 469.5 251 l 1,20,-1
 103.5 251 l 1,0,1
278.5 480 m 0,21,22
 199.5 480 199.5 480 155 426 c 128,-1,23
 110.5 372 110.5 372 105.5 272 c 1,24,-1
 443.5 272 l 1,25,26
 439.5 376 439.5 376 397 428 c 128,-1,27
 354.5 480 354.5 480 278.5 480 c 0,21,22
259.5 624 m 1,28,-1
 259.5 660 l 1,29,-1
 297.5 660 l 1,30,-1
 297.5 624 l 1,31,-1
 259.5 624 l 1,28,-1
EndSplineSet
EndChar

StartChar: Eogonek
Encoding: 280 280 217
Width: 550
GlyphClass: 2
Flags: W
LayerCount: 2
Fore
SplineSet
43.5 0 m 1,0,-1
 43.5 696 l 1,1,-1
 440.5 696 l 1,2,-1
 440.5 672 l 1,3,-1
 70.5 672 l 1,4,-1
 70.5 378 l 1,5,-1
 404.5 378 l 1,6,-1
 404.5 354 l 1,7,-1
 70.5 354 l 1,8,-1
 70.5 24 l 1,9,-1
 468.5 24 l 1,10,-1
 468.5 0 l 1,11,-1
 423.5 0 l 1,12,13
 405.5 -21 405.5 -21 393.5 -46.5 c 128,-1,14
 381.5 -72 381.5 -72 381.5 -90 c 0,15,16
 381.5 -147 381.5 -147 439.5 -147 c 0,17,18
 468.5 -147 468.5 -147 497.5 -132 c 1,19,-1
 506.5 -150 l 1,20,21
 474.5 -170 474.5 -170 435.5 -170 c 0,22,23
 398.5 -170 398.5 -170 377 -147.5 c 128,-1,24
 355.5 -125 355.5 -125 355.5 -93 c 0,25,26
 355.5 -42 355.5 -42 398.5 0 c 1,27,-1
 43.5 0 l 1,0,-1
EndSplineSet
EndChar

StartChar: eogonek
Encoding: 281 281 218
Width: 550
GlyphClass: 2
Flags: W
LayerCount: 2
Fore
SplineSet
335.5 -63 m 0,0,1
 335.5 -27 335.5 -27 359.5 7 c 1,2,3
 317.5 -7 317.5 -7 274.5 -7 c 0,4,5
 63.5 -7 63.5 -7 63.5 245 c 0,6,7
 63.5 318 63.5 318 81 370.5 c 128,-1,8
 98.5 423 98.5 423 128.5 450 c 128,-1,9
 158.5 477 158.5 477 191 489 c 128,-1,10
 223.5 501 223.5 501 260.5 501 c 0,11,12
 359.5 501 359.5 501 406 436.5 c 128,-1,13
 452.5 372 452.5 372 452.5 271 c 2,14,-1
 452.5 251 l 1,15,-1
 86.5 251 l 1,16,17
 85.5 182 85.5 182 101.5 131.5 c 128,-1,18
 117.5 81 117.5 81 160.5 47 c 128,-1,19
 203.5 13 203.5 13 272.5 13 c 0,20,21
 337.5 13 337.5 13 394.5 52 c 1,22,-1
 409.5 34 l 2,23,24
 407.5 32 407.5 32 403.5 30 c 0,25,26
 385.5 9 385.5 9 373.5 -16.5 c 128,-1,27
 361.5 -42 361.5 -42 361.5 -60 c 0,28,29
 361.5 -117 361.5 -117 419.5 -117 c 0,30,31
 448.5 -117 448.5 -117 477.5 -102 c 1,32,-1
 486.5 -120 l 1,33,34
 454.5 -140 454.5 -140 415.5 -140 c 0,35,36
 378.5 -140 378.5 -140 357 -117.5 c 128,-1,37
 335.5 -95 335.5 -95 335.5 -63 c 0,0,1
261.5 480 m 0,38,39
 182.5 480 182.5 480 138 426 c 128,-1,40
 93.5 372 93.5 372 88.5 272 c 1,41,-1
 426.5 272 l 1,42,43
 422.5 376 422.5 376 380 428 c 128,-1,44
 337.5 480 337.5 480 261.5 480 c 0,38,39
EndSplineSet
EndChar

StartChar: Ecaron
Encoding: 282 282 219
Width: 550
GlyphClass: 2
Flags: W
LayerCount: 2
Fore
SplineSet
62.5 0 m 1,0,-1
 62.5 696 l 1,1,-1
 459.5 696 l 1,2,-1
 459.5 672 l 1,3,-1
 89.5 672 l 1,4,-1
 89.5 378 l 1,5,-1
 423.5 378 l 1,6,-1
 423.5 354 l 1,7,-1
 89.5 354 l 1,8,-1
 89.5 24 l 1,9,-1
 487.5 24 l 1,10,-1
 487.5 0 l 1,11,-1
 62.5 0 l 1,0,-1
259.5 778 m 1,12,-1
 381.5 860 l 1,13,-1
 393.5 848 l 1,14,-1
 275.5 748 l 1,15,-1
 246.5 748 l 1,16,-1
 124.5 848 l 1,17,-1
 136.5 861 l 1,18,-1
 259.5 778 l 1,12,-1
EndSplineSet
EndChar

StartChar: ecaron
Encoding: 283 283 220
Width: 550
GlyphClass: 2
Flags: W
LayerCount: 2
Fore
SplineSet
103.5 251 m 1,0,1
 102.5 182 102.5 182 118.5 131.5 c 128,-1,2
 134.5 81 134.5 81 177.5 47 c 128,-1,3
 220.5 13 220.5 13 289.5 13 c 0,4,5
 354.5 13 354.5 13 411.5 52 c 1,6,-1
 426.5 34 l 1,7,8
 367.5 -7 367.5 -7 291.5 -7 c 0,9,10
 80.5 -7 80.5 -7 80.5 245 c 0,11,12
 80.5 318 80.5 318 98 370.5 c 128,-1,13
 115.5 423 115.5 423 145.5 450 c 128,-1,14
 175.5 477 175.5 477 208 489 c 128,-1,15
 240.5 501 240.5 501 277.5 501 c 0,16,17
 376.5 501 376.5 501 423 436.5 c 128,-1,18
 469.5 372 469.5 372 469.5 271 c 2,19,-1
 469.5 251 l 1,20,-1
 103.5 251 l 1,0,1
278.5 480 m 0,21,22
 199.5 480 199.5 480 155 426 c 128,-1,23
 110.5 372 110.5 372 105.5 272 c 1,24,-1
 443.5 272 l 1,25,26
 439.5 376 439.5 376 397 428 c 128,-1,27
 354.5 480 354.5 480 278.5 480 c 0,21,22
281.5 599 m 1,28,-1
 403.5 691 l 1,29,-1
 415.5 679 l 1,30,-1
 297.5 569 l 1,31,-1
 268.5 569 l 1,32,-1
 146.5 679 l 1,33,-1
 158.5 692 l 1,34,-1
 281.5 599 l 1,28,-1
EndSplineSet
EndChar

StartChar: Gcircumflex
Encoding: 284 284 221
Width: 550
GlyphClass: 2
Flags: W
LayerCount: 2
Fore
SplineSet
275 701 m 0,0,1
 348 701 348 701 402 668 c 128,-1,2
 456 635 456 635 483 579 c 1,3,4
 479 576 479 576 471.5 572 c 128,-1,5
 464 568 464 568 461 566 c 1,6,7
 438 616 438 616 389 647 c 128,-1,8
 340 678 340 678 276 678 c 0,9,10
 173 678 173 678 118.5 615.5 c 128,-1,11
 64 553 64 553 64 456 c 2,12,-1
 64 238 l 2,13,14
 64 142 64 142 119 78.5 c 128,-1,15
 174 15 174 15 276 15 c 0,16,17
 371 15 371 15 428.5 78 c 128,-1,18
 486 141 486 141 486 229 c 2,19,-1
 486 318 l 1,20,-1
 323 318 l 1,21,-1
 323 342 l 1,22,-1
 512 342 l 1,23,-1
 512 242 l 2,24,25
 512 135 512 135 448.5 64 c 128,-1,26
 385 -7 385 -7 275 -7 c 0,27,28
 158 -7 158 -7 98 63.5 c 128,-1,29
 38 134 38 134 38 243 c 2,30,-1
 38 458 l 2,31,32
 38 562 38 562 99.5 631.5 c 128,-1,33
 161 701 161 701 275 701 c 0,0,1
395 746 m 1,34,-1
 273 828 l 1,35,-1
 150 745 l 1,36,-1
 138 758 l 1,37,-1
 260 858 l 1,38,-1
 289 858 l 1,39,-1
 407 758 l 1,40,-1
 395 746 l 1,34,-1
EndSplineSet
EndChar

StartChar: gcircumflex
Encoding: 285 285 222
Width: 550
GlyphClass: 2
Flags: W
LayerCount: 2
Fore
SplineSet
463.5 495 m 1,0,-1
 463.5 3 l 2,1,2
 463.5 -104 463.5 -104 406.5 -154 c 128,-1,3
 349.5 -204 349.5 -204 259.5 -204 c 0,4,5
 187.5 -204 187.5 -204 133.5 -163 c 1,6,-1
 148.5 -144 l 1,7,8
 202.5 -182 202.5 -182 259.5 -182 c 0,9,10
 342.5 -182 342.5 -182 391 -137 c 128,-1,11
 439.5 -92 439.5 -92 439.5 -10 c 2,12,-1
 439.5 107 l 1,13,-1
 438.5 107 l 1,14,15
 387.5 -5 387.5 -5 274.5 -5 c 0,16,17
 86.5 -5 86.5 -5 86.5 247 c 0,18,19
 86.5 360 86.5 360 132.5 430.5 c 128,-1,20
 178.5 501 178.5 501 275.5 501 c 0,21,22
 328.5 501 328.5 501 369 479 c 128,-1,23
 409.5 457 409.5 457 438.5 396 c 1,24,-1
 439.5 396 l 1,25,-1
 439.5 495 l 1,26,-1
 463.5 495 l 1,0,-1
439.5 252 m 0,27,28
 439.5 290 439.5 290 432.5 326.5 c 128,-1,29
 425.5 363 425.5 363 409 399 c 128,-1,30
 392.5 435 392.5 435 358.5 457 c 128,-1,31
 324.5 479 324.5 479 278.5 479 c 0,32,33
 112.5 479 112.5 479 112.5 247 c 0,34,35
 112.5 16 112.5 16 278.5 16 c 0,36,37
 358.5 16 358.5 16 399 82 c 128,-1,38
 439.5 148 439.5 148 439.5 252 c 0,27,28
406.5 569 m 1,39,-1
 284.5 661 l 1,40,-1
 161.5 568 l 1,41,-1
 149.5 581 l 1,42,-1
 271.5 691 l 1,43,-1
 300.5 691 l 1,44,-1
 418.5 581 l 1,45,-1
 406.5 569 l 1,39,-1
EndSplineSet
EndChar

StartChar: Gbreve
Encoding: 286 286 223
Width: 550
GlyphClass: 2
Flags: W
LayerCount: 2
Fore
SplineSet
275 701 m 0,0,1
 348 701 348 701 402 668 c 128,-1,2
 456 635 456 635 483 579 c 1,3,4
 479 576 479 576 471.5 572 c 128,-1,5
 464 568 464 568 461 566 c 1,6,7
 438 616 438 616 389 647 c 128,-1,8
 340 678 340 678 276 678 c 0,9,10
 173 678 173 678 118.5 615.5 c 128,-1,11
 64 553 64 553 64 456 c 2,12,-1
 64 238 l 2,13,14
 64 142 64 142 119 78.5 c 128,-1,15
 174 15 174 15 276 15 c 0,16,17
 371 15 371 15 428.5 78 c 128,-1,18
 486 141 486 141 486 229 c 2,19,-1
 486 318 l 1,20,-1
 323 318 l 1,21,-1
 323 342 l 1,22,-1
 512 342 l 1,23,-1
 512 242 l 2,24,25
 512 135 512 135 448.5 64 c 128,-1,26
 385 -7 385 -7 275 -7 c 0,27,28
 158 -7 158 -7 98 63.5 c 128,-1,29
 38 134 38 134 38 243 c 2,30,-1
 38 458 l 2,31,32
 38 562 38 562 99.5 631.5 c 128,-1,33
 161 701 161 701 275 701 c 0,0,1
268 791 m 0,34,35
 305 791 305 791 332 813 c 128,-1,36
 359 835 359 835 365 869 c 1,37,-1
 387 869 l 1,38,39
 380 828 380 828 349.5 798 c 128,-1,40
 319 768 319 768 268 768 c 128,-1,41
 217 768 217 768 186 798 c 128,-1,42
 155 828 155 828 149 869 c 1,43,-1
 170 869 l 1,44,45
 176 835 176 835 204 813 c 128,-1,46
 232 791 232 791 268 791 c 0,34,35
EndSplineSet
EndChar

StartChar: gbreve
Encoding: 287 287 224
Width: 550
GlyphClass: 2
Flags: W
LayerCount: 2
Fore
SplineSet
463.5 495 m 1,0,-1
 463.5 3 l 2,1,2
 463.5 -104 463.5 -104 406.5 -154 c 128,-1,3
 349.5 -204 349.5 -204 259.5 -204 c 0,4,5
 187.5 -204 187.5 -204 133.5 -163 c 1,6,-1
 148.5 -144 l 1,7,8
 202.5 -182 202.5 -182 259.5 -182 c 0,9,10
 342.5 -182 342.5 -182 391 -137 c 128,-1,11
 439.5 -92 439.5 -92 439.5 -10 c 2,12,-1
 439.5 107 l 1,13,-1
 438.5 107 l 1,14,15
 387.5 -5 387.5 -5 274.5 -5 c 0,16,17
 86.5 -5 86.5 -5 86.5 247 c 0,18,19
 86.5 360 86.5 360 132.5 430.5 c 128,-1,20
 178.5 501 178.5 501 275.5 501 c 0,21,22
 328.5 501 328.5 501 369 479 c 128,-1,23
 409.5 457 409.5 457 438.5 396 c 1,24,-1
 439.5 396 l 1,25,-1
 439.5 495 l 1,26,-1
 463.5 495 l 1,0,-1
439.5 252 m 0,27,28
 439.5 290 439.5 290 432.5 326.5 c 128,-1,29
 425.5 363 425.5 363 409 399 c 128,-1,30
 392.5 435 392.5 435 358.5 457 c 128,-1,31
 324.5 479 324.5 479 278.5 479 c 0,32,33
 112.5 479 112.5 479 112.5 247 c 0,34,35
 112.5 16 112.5 16 278.5 16 c 0,36,37
 358.5 16 358.5 16 399 82 c 128,-1,38
 439.5 148 439.5 148 439.5 252 c 0,27,28
272.5 595 m 0,39,40
 349.5 595 349.5 595 369.5 673 c 1,41,-1
 391.5 673 l 1,42,43
 384.5 632 384.5 632 354 602 c 128,-1,44
 323.5 572 323.5 572 272.5 572 c 128,-1,45
 221.5 572 221.5 572 190.5 602 c 128,-1,46
 159.5 632 159.5 632 153.5 673 c 1,47,-1
 175.5 673 l 1,48,49
 182.5 636 182.5 636 210.5 615.5 c 128,-1,50
 238.5 595 238.5 595 272.5 595 c 0,39,40
EndSplineSet
EndChar

StartChar: Gdotaccent
Encoding: 288 288 225
Width: 550
GlyphClass: 2
Flags: W
LayerCount: 2
Fore
SplineSet
275 701 m 0,0,1
 348 701 348 701 402 668 c 128,-1,2
 456 635 456 635 483 579 c 1,3,4
 479 576 479 576 471.5 572 c 128,-1,5
 464 568 464 568 461 566 c 1,6,7
 438 616 438 616 389 647 c 128,-1,8
 340 678 340 678 276 678 c 0,9,10
 173 678 173 678 118.5 615.5 c 128,-1,11
 64 553 64 553 64 456 c 2,12,-1
 64 238 l 2,13,14
 64 142 64 142 119 78.5 c 128,-1,15
 174 15 174 15 276 15 c 0,16,17
 371 15 371 15 428.5 78 c 128,-1,18
 486 141 486 141 486 229 c 2,19,-1
 486 318 l 1,20,-1
 323 318 l 1,21,-1
 323 342 l 1,22,-1
 512 342 l 1,23,-1
 512 242 l 2,24,25
 512 135 512 135 448.5 64 c 128,-1,26
 385 -7 385 -7 275 -7 c 0,27,28
 158 -7 158 -7 98 63.5 c 128,-1,29
 38 134 38 134 38 243 c 2,30,-1
 38 458 l 2,31,32
 38 562 38 562 99.5 631.5 c 128,-1,33
 161 701 161 701 275 701 c 0,0,1
254 774 m 1,34,-1
 254 810 l 1,35,-1
 292 810 l 1,36,-1
 292 774 l 1,37,-1
 254 774 l 1,34,-1
EndSplineSet
EndChar

StartChar: gdotaccent
Encoding: 289 289 226
Width: 550
GlyphClass: 2
Flags: W
LayerCount: 2
Fore
SplineSet
463.5 495 m 1,0,-1
 463.5 3 l 2,1,2
 463.5 -104 463.5 -104 406.5 -154 c 128,-1,3
 349.5 -204 349.5 -204 259.5 -204 c 0,4,5
 187.5 -204 187.5 -204 133.5 -163 c 1,6,-1
 148.5 -144 l 1,7,8
 202.5 -182 202.5 -182 259.5 -182 c 0,9,10
 342.5 -182 342.5 -182 391 -137 c 128,-1,11
 439.5 -92 439.5 -92 439.5 -10 c 2,12,-1
 439.5 107 l 1,13,-1
 438.5 107 l 1,14,15
 387.5 -5 387.5 -5 274.5 -5 c 0,16,17
 86.5 -5 86.5 -5 86.5 247 c 0,18,19
 86.5 360 86.5 360 132.5 430.5 c 128,-1,20
 178.5 501 178.5 501 275.5 501 c 0,21,22
 328.5 501 328.5 501 369 479 c 128,-1,23
 409.5 457 409.5 457 438.5 396 c 1,24,-1
 439.5 396 l 1,25,-1
 439.5 495 l 1,26,-1
 463.5 495 l 1,0,-1
439.5 252 m 0,27,28
 439.5 290 439.5 290 432.5 326.5 c 128,-1,29
 425.5 363 425.5 363 409 399 c 128,-1,30
 392.5 435 392.5 435 358.5 457 c 128,-1,31
 324.5 479 324.5 479 278.5 479 c 0,32,33
 112.5 479 112.5 479 112.5 247 c 0,34,35
 112.5 16 112.5 16 278.5 16 c 0,36,37
 358.5 16 358.5 16 399 82 c 128,-1,38
 439.5 148 439.5 148 439.5 252 c 0,27,28
260.5 624 m 1,39,-1
 260.5 660 l 1,40,-1
 298.5 660 l 1,41,-1
 298.5 624 l 1,42,-1
 260.5 624 l 1,39,-1
EndSplineSet
EndChar

StartChar: Gcommaaccent
Encoding: 290 290 227
Width: 550
GlyphClass: 2
Flags: W
LayerCount: 2
Fore
SplineSet
275 701 m 0,0,1
 348 701 348 701 402 668 c 128,-1,2
 456 635 456 635 483 579 c 1,3,4
 479 576 479 576 471.5 572 c 128,-1,5
 464 568 464 568 461 566 c 1,6,7
 438 616 438 616 389 647 c 128,-1,8
 340 678 340 678 276 678 c 0,9,10
 173 678 173 678 118.5 615.5 c 128,-1,11
 64 553 64 553 64 456 c 2,12,-1
 64 238 l 2,13,14
 64 142 64 142 119 78.5 c 128,-1,15
 174 15 174 15 276 15 c 0,16,17
 371 15 371 15 428.5 78 c 128,-1,18
 486 141 486 141 486 229 c 2,19,-1
 486 318 l 1,20,-1
 323 318 l 1,21,-1
 323 342 l 1,22,-1
 512 342 l 1,23,-1
 512 242 l 2,24,25
 512 135 512 135 448.5 64 c 128,-1,26
 385 -7 385 -7 275 -7 c 0,27,28
 158 -7 158 -7 98 63.5 c 128,-1,29
 38 134 38 134 38 243 c 2,30,-1
 38 458 l 2,31,32
 38 562 38 562 99.5 631.5 c 128,-1,33
 161 701 161 701 275 701 c 0,0,1
264 -234 m 1,34,-1
 246 -234 l 1,35,-1
 270 -136 l 1,36,-1
 260 -136 l 1,37,-1
 260 -89 l 1,38,-1
 301 -89 l 1,39,-1
 301 -139 l 1,40,-1
 264 -234 l 1,34,-1
EndSplineSet
EndChar

StartChar: gcommaaccent
Encoding: 291 291 228
Width: 550
GlyphClass: 2
Flags: W
LayerCount: 2
Fore
SplineSet
299.5 728 m 1,0,-1
 317.5 728 l 1,1,-1
 293.5 630 l 1,2,-1
 303.5 630 l 1,3,-1
 303.5 583 l 1,4,-1
 262.5 583 l 1,5,-1
 262.5 633 l 1,6,-1
 299.5 728 l 1,0,-1
463.5 495 m 1,7,-1
 463.5 3 l 2,8,9
 463.5 -104 463.5 -104 406.5 -154 c 128,-1,10
 349.5 -204 349.5 -204 259.5 -204 c 0,11,12
 187.5 -204 187.5 -204 133.5 -163 c 1,13,-1
 148.5 -144 l 1,14,15
 202.5 -182 202.5 -182 259.5 -182 c 0,16,17
 342.5 -182 342.5 -182 391 -137 c 128,-1,18
 439.5 -92 439.5 -92 439.5 -10 c 2,19,-1
 439.5 107 l 1,20,-1
 438.5 107 l 1,21,22
 387.5 -5 387.5 -5 274.5 -5 c 0,23,24
 86.5 -5 86.5 -5 86.5 247 c 0,25,26
 86.5 360 86.5 360 132.5 430.5 c 128,-1,27
 178.5 501 178.5 501 275.5 501 c 0,28,29
 328.5 501 328.5 501 369 479 c 128,-1,30
 409.5 457 409.5 457 438.5 396 c 1,31,-1
 439.5 396 l 1,32,-1
 439.5 495 l 1,33,-1
 463.5 495 l 1,7,-1
439.5 252 m 0,34,35
 439.5 290 439.5 290 432.5 326.5 c 128,-1,36
 425.5 363 425.5 363 409 399 c 128,-1,37
 392.5 435 392.5 435 358.5 457 c 128,-1,38
 324.5 479 324.5 479 278.5 479 c 0,39,40
 112.5 479 112.5 479 112.5 247 c 0,41,42
 112.5 16 112.5 16 278.5 16 c 0,43,44
 358.5 16 358.5 16 399 82 c 128,-1,45
 439.5 148 439.5 148 439.5 252 c 0,34,35
EndSplineSet
EndChar

StartChar: Hcircumflex
Encoding: 292 292 229
Width: 550
GlyphClass: 2
Flags: W
LayerCount: 2
Fore
SplineSet
478.5 0 m 1,0,-1
 478.5 354 l 1,1,-1
 71.5 354 l 1,2,-1
 71.5 0 l 1,3,-1
 45.5 0 l 1,4,-1
 45.5 696 l 1,5,-1
 71.5 696 l 1,6,-1
 71.5 378 l 1,7,-1
 478.5 378 l 1,8,-1
 478.5 696 l 1,9,-1
 504.5 696 l 1,10,-1
 504.5 0 l 1,11,-1
 478.5 0 l 1,0,-1
399.5 746 m 1,12,-1
 277.5 828 l 1,13,-1
 154.5 745 l 1,14,-1
 142.5 758 l 1,15,-1
 264.5 858 l 1,16,-1
 293.5 858 l 1,17,-1
 411.5 758 l 1,18,-1
 399.5 746 l 1,12,-1
EndSplineSet
EndChar

StartChar: hcircumflex
Encoding: 293 293 230
Width: 550
GlyphClass: 2
Flags: W
LayerCount: 2
Fore
SplineSet
499 0 m 1,0,-1
 499 327 l 2,1,2
 499 401 499 401 458.5 439.5 c 128,-1,3
 418 478 418 478 345 478 c 0,4,5
 273 478 273 478 223.5 428 c 128,-1,6
 174 378 174 378 174 302 c 2,7,-1
 174 0 l 1,8,-1
 150 0 l 1,9,-1
 150 721 l 1,10,-1
 174 721 l 1,11,-1
 174 398 l 1,12,-1
 176 398 l 1,13,14
 199 449 199 449 247.5 474.5 c 128,-1,15
 296 500 296 500 347 500 c 0,16,17
 434 500 434 500 478.5 456.5 c 128,-1,18
 523 413 523 413 523 334 c 2,19,-1
 523 0 l 1,20,-1
 499 0 l 1,0,-1
284 720 m 1,21,-1
 162 812 l 1,22,-1
 39 719 l 1,23,-1
 27 732 l 1,24,-1
 149 842 l 1,25,-1
 178 842 l 1,26,-1
 296 732 l 1,27,-1
 284 720 l 1,21,-1
EndSplineSet
EndChar

StartChar: Hbar
Encoding: 294 294 231
Width: 550
GlyphClass: 2
Flags: W
LayerCount: 2
Fore
SplineSet
481 0 m 1,0,-1
 481 354 l 1,1,-1
 74 354 l 1,2,-1
 74 0 l 1,3,-1
 48 0 l 1,4,-1
 48 575 l 1,5,-1
 9 575 l 1,6,-1
 9 595 l 1,7,-1
 48 595 l 1,8,-1
 48 696 l 1,9,-1
 74 696 l 1,10,-1
 74 595 l 1,11,-1
 481 595 l 1,12,-1
 481 696 l 1,13,-1
 507 696 l 1,14,-1
 507 595 l 1,15,-1
 541 595 l 1,16,-1
 541 575 l 1,17,-1
 507 575 l 1,18,-1
 507 0 l 1,19,-1
 481 0 l 1,0,-1
74 378 m 1,20,-1
 481 378 l 1,21,-1
 481 575 l 1,22,-1
 74 575 l 1,23,-1
 74 378 l 1,20,-1
EndSplineSet
EndChar

StartChar: hbar
Encoding: 295 295 232
Width: 550
GlyphClass: 2
Flags: W
LayerCount: 2
Fore
SplineSet
59 594 m 1,0,-1
 59 617 l 1,1,-1
 118 617 l 1,2,-1
 118 721 l 1,3,-1
 142 721 l 1,4,-1
 142 617 l 1,5,-1
 385 617 l 1,6,-1
 385 594 l 1,7,-1
 142 594 l 1,8,-1
 142 386 l 1,9,-1
 144 386 l 1,10,11
 167 437 167 437 215.5 462.5 c 128,-1,12
 264 488 264 488 315 488 c 0,13,14
 402 488 402 488 446.5 444.5 c 128,-1,15
 491 401 491 401 491 322 c 2,16,-1
 491 0 l 1,17,-1
 467 0 l 1,18,-1
 467 315 l 2,19,20
 467 389 467 389 426.5 427.5 c 128,-1,21
 386 466 386 466 313 466 c 0,22,23
 241 466 241 466 191.5 416 c 128,-1,24
 142 366 142 366 142 290 c 2,25,-1
 142 0 l 1,26,-1
 118 0 l 1,27,-1
 118 594 l 1,28,-1
 59 594 l 1,0,-1
EndSplineSet
EndChar

StartChar: Itilde
Encoding: 296 296 233
Width: 550
GlyphClass: 2
Flags: W
LayerCount: 2
Fore
SplineSet
219.5 673 m 5,0,-1
 219.5 696 l 5,1,-1
 325.5 696 l 5,2,-1
 325.5 673 l 5,3,-1
 285.5 673 l 5,4,-1
 285.5 23 l 5,5,-1
 325.5 23 l 5,6,-1
 325.5 0 l 5,7,-1
 219.5 0 l 5,8,-1
 219.5 23 l 5,9,-1
 259.5 23 l 5,10,-1
 259.5 673 l 5,11,-1
 219.5 673 l 5,0,-1
220.5 839 m 0,12,13
 240.5 839 240.5 839 283 819 c 128,-1,14
 325.5 799 325.5 799 341.5 799 c 0,15,16
 367.5 799 367.5 799 394.5 838 c 1,17,-1
 414.5 826 l 1,18,19
 383.5 772 383.5 772 340.5 772 c 0,20,21
 322.5 772 322.5 772 280 792 c 128,-1,22
 237.5 812 237.5 812 218.5 812 c 0,23,24
 185.5 812 185.5 812 154.5 774 c 1,25,-1
 135.5 786 l 1,26,27
 172.5 839 172.5 839 220.5 839 c 0,12,13
EndSplineSet
EndChar

StartChar: itilde
Encoding: 297 297 234
Width: 550
GlyphClass: 2
Flags: W
LayerCount: 2
Fore
SplineSet
230.5 0 m 5,0,-1
 230.5 24 l 5,1,-1
 292.5 24 l 5,2,-1
 292.5 471 l 5,3,-1
 229.5 471 l 5,4,-1
 229.5 495 l 5,5,-1
 317.5 495 l 5,6,-1
 317.5 24 l 5,7,-1
 376.5 24 l 5,8,-1
 376.5 0 l 5,9,-1
 230.5 0 l 5,0,-1
220.5 669 m 0,10,11
 240.5 669 240.5 669 283 649 c 128,-1,12
 325.5 629 325.5 629 341.5 629 c 0,13,14
 367.5 629 367.5 629 394.5 668 c 1,15,-1
 414.5 656 l 1,16,17
 383.5 602 383.5 602 340.5 602 c 0,18,19
 322.5 602 322.5 602 280 622 c 128,-1,20
 237.5 642 237.5 642 218.5 642 c 0,21,22
 185.5 642 185.5 642 154.5 604 c 1,23,-1
 135.5 616 l 1,24,25
 172.5 669 172.5 669 220.5 669 c 0,10,11
EndSplineSet
EndChar

StartChar: Imacron
Encoding: 298 298 235
Width: 550
GlyphClass: 2
Flags: W
LayerCount: 2
Fore
SplineSet
222 673 m 5,0,-1
 222 696 l 5,1,-1
 328 696 l 5,2,-1
 328 673 l 5,3,-1
 288 673 l 5,4,-1
 288 23 l 5,5,-1
 328 23 l 5,6,-1
 328 0 l 5,7,-1
 222 0 l 5,8,-1
 222 23 l 5,9,-1
 262 23 l 5,10,-1
 262 673 l 5,11,-1
 222 673 l 5,0,-1
151 794 m 1,12,-1
 151 818 l 1,13,-1
 399 818 l 1,14,-1
 399 794 l 1,15,-1
 151 794 l 1,12,-1
EndSplineSet
EndChar

StartChar: imacron
Encoding: 299 299 236
Width: 550
GlyphClass: 2
Flags: W
LayerCount: 2
Fore
SplineSet
221 0 m 5,0,-1
 221 24 l 5,1,-1
 283 24 l 5,2,-1
 283 471 l 5,3,-1
 220 471 l 5,4,-1
 220 495 l 5,5,-1
 308 495 l 5,6,-1
 308 24 l 5,7,-1
 367 24 l 5,8,-1
 367 0 l 5,9,-1
 221 0 l 5,0,-1
151 600 m 1,10,-1
 151 624 l 1,11,-1
 399 624 l 1,12,-1
 399 600 l 1,13,-1
 151 600 l 1,10,-1
EndSplineSet
EndChar

StartChar: Ibreve
Encoding: 300 300 237
Width: 550
GlyphClass: 2
Flags: W
LayerCount: 2
Fore
SplineSet
222 673 m 5,0,-1
 222 696 l 5,1,-1
 328 696 l 5,2,-1
 328 673 l 5,3,-1
 288 673 l 5,4,-1
 288 23 l 5,5,-1
 328 23 l 5,6,-1
 328 0 l 5,7,-1
 222 0 l 5,8,-1
 222 23 l 5,9,-1
 262 23 l 5,10,-1
 262 673 l 5,11,-1
 222 673 l 5,0,-1
275 796 m 0,12,13
 312 796 312 796 339 818 c 128,-1,14
 366 840 366 840 372 874 c 1,15,-1
 394 874 l 1,16,17
 387 833 387 833 356.5 803 c 128,-1,18
 326 773 326 773 275 773 c 128,-1,19
 224 773 224 773 193 803 c 128,-1,20
 162 833 162 833 156 874 c 1,21,-1
 177 874 l 1,22,23
 183 840 183 840 211 818 c 128,-1,24
 239 796 239 796 275 796 c 0,12,13
EndSplineSet
EndChar

StartChar: ibreve
Encoding: 301 301 238
Width: 550
GlyphClass: 2
Flags: W
LayerCount: 2
Fore
SplineSet
199.5 0 m 1,0,-1
 199.5 24 l 1,1,-1
 311.5 24 l 1,2,-1
 311.5 471 l 1,3,-1
 188.5 471 l 1,4,-1
 188.5 495 l 1,5,-1
 336.5 495 l 1,6,-1
 336.5 24 l 1,7,-1
 395.5 24 l 1,8,-1
 395.5 0 l 1,9,-1
 199.5 0 l 1,0,-1
273.5 601 m 0,10,11
 350.5 601 350.5 601 370.5 679 c 1,12,-1
 392.5 679 l 1,13,14
 385.5 638 385.5 638 355 608 c 128,-1,15
 324.5 578 324.5 578 273.5 578 c 128,-1,16
 222.5 578 222.5 578 191.5 608 c 128,-1,17
 160.5 638 160.5 638 154.5 679 c 1,18,-1
 176.5 679 l 1,19,20
 183.5 642 183.5 642 211.5 621.5 c 128,-1,21
 239.5 601 239.5 601 273.5 601 c 0,10,11
EndSplineSet
EndChar

StartChar: Iogonek
Encoding: 302 302 239
Width: 550
GlyphClass: 2
Flags: W
LayerCount: 2
Fore
SplineSet
242.5 0 m 1,0,1
 242.5 0 242.5 0 202.5 0 c 1,2,-1
 202.5 23 l 1,3,-1
 242.5 23 l 1,4,-1
 242.5 673 l 1,5,-1
 202.5 673 l 1,6,-1
 202.5 696 l 1,7,-1
 308.5 696 l 1,8,-1
 308.5 673 l 1,9,-1
 268.5 673 l 1,10,-1
 268.5 23 l 1,11,-1
 308.5 23 l 1,12,-1
 308.5 0 l 1,13,-1
 267.5 0 l 1,14,15
 249.5 -21 249.5 -21 237.5 -46.5 c 128,-1,16
 225.5 -72 225.5 -72 225.5 -90 c 0,17,18
 225.5 -147 225.5 -147 283.5 -147 c 0,19,20
 312.5 -147 312.5 -147 341.5 -132 c 1,21,22
 350.5 -150 350.5 -150 350.5 -150 c 1,23,24
 318.5 -170 318.5 -170 279.5 -170 c 0,25,26
 242.5 -170 242.5 -170 221 -147.5 c 128,-1,27
 199.5 -125 199.5 -125 199.5 -93 c 0,28,29
 199.5 -42 199.5 -42 242.5 0 c 1,0,1
EndSplineSet
EndChar

StartChar: iogonek
Encoding: 303 303 240
Width: 550
GlyphClass: 2
Flags: W
LayerCount: 2
Fore
SplineSet
367 24 m 9,0,-1
 367 0 l 17,1,-1
 305 0 l 1,2,3
 265 -47 265 -47 265 -88 c 0,4,5
 265 -145 265 -145 323 -145 c 0,6,7
 352 -145 352 -145 381 -130 c 1,8,9
 390 -148 390 -148 390 -148 c 1,10,11
 358 -168 358 -168 319 -168 c 0,12,13
 282 -168 282 -168 260.5 -145.5 c 128,-1,14
 239 -123 239 -123 239 -91 c 0,15,16
 239 -40 239 -40 280 0 c 1,17,18
 280 0 280 0 161 0 c 1,19,-1
 161 24 l 1,20,-1
 283 24 l 1,21,-1
 283 471 l 1,22,-1
 160 471 l 1,23,-1
 160 495 l 1,24,-1
 308 495 l 1,25,-1
 308 24 l 1,26,-1
 367 24 l 9,0,-1
278 665 m 1,27,-1
 278 697 l 1,28,-1
 311 697 l 1,29,-1
 311 665 l 1,30,-1
 278 665 l 1,27,-1
EndSplineSet
EndChar

StartChar: Idotaccent
Encoding: 304 304 241
Width: 550
GlyphClass: 2
Flags: W
LayerCount: 2
Fore
SplineSet
222 673 m 5,0,-1
 222 696 l 5,1,-1
 328 696 l 5,2,-1
 328 673 l 5,3,-1
 288 673 l 5,4,-1
 288 23 l 5,5,-1
 328 23 l 5,6,-1
 328 0 l 5,7,-1
 222 0 l 5,8,-1
 222 23 l 5,9,-1
 262 23 l 5,10,-1
 262 673 l 5,11,-1
 222 673 l 5,0,-1
254 774 m 1,12,-1
 254 810 l 1,13,-1
 292 810 l 1,14,-1
 292 774 l 1,15,-1
 254 774 l 1,12,-1
EndSplineSet
EndChar

StartChar: dotlessi
Encoding: 305 305 242
Width: 550
GlyphClass: 2
Flags: W
LayerCount: 2
Fore
SplineSet
172.5 0 m 1,0,-1
 172.5 24 l 1,1,-1
 294.5 24 l 1,2,-1
 294.5 471 l 1,3,-1
 171.5 471 l 1,4,-1
 171.5 495 l 1,5,-1
 319.5 495 l 1,6,-1
 319.5 24 l 1,7,-1
 378.5 24 l 1,8,-1
 378.5 0 l 1,9,-1
 172.5 0 l 1,0,-1
EndSplineSet
EndChar

StartChar: IJ
Encoding: 306 306 243
Width: 550
GlyphClass: 2
Flags: W
LayerCount: 2
Fore
SplineSet
63.5 0 m 1,0,-1
 63.5 696 l 1,1,-1
 89.5 696 l 1,2,-1
 89.5 0 l 1,3,-1
 63.5 0 l 1,0,-1
295.5 -6 m 0,4,5
 214.5 -6 214.5 -6 159.5 40 c 1,6,-1
 175.5 60 l 1,7,8
 228.5 19 228.5 19 296.5 19 c 0,9,10
 460.5 19 460.5 19 460.5 209 c 2,11,-1
 460.5 696 l 1,12,-1
 486.5 696 l 1,13,-1
 486.5 190 l 2,14,15
 486.5 94 486.5 94 433 44 c 128,-1,16
 379.5 -6 379.5 -6 295.5 -6 c 0,4,5
EndSplineSet
EndChar

StartChar: ij
Encoding: 307 307 244
Width: 550
GlyphClass: 2
Flags: W
LayerCount: 2
Fore
SplineSet
174 665 m 1,0,-1
 174 697 l 1,1,-1
 207 697 l 1,2,-1
 207 665 l 1,3,-1
 174 665 l 1,0,-1
204 0 m 1,4,-1
 179 0 l 1,5,-1
 179 496 l 1,6,-1
 204 496 l 1,7,-1
 204 0 l 1,4,-1
342 666 m 1,8,-1
 342 697 l 1,9,-1
 376 697 l 1,10,-1
 376 666 l 1,11,-1
 342 666 l 1,8,-1
260 -204 m 2,12,-1
 223 -204 l 1,13,-1
 223 -181 l 1,14,-1
 260 -181 l 2,15,16
 346 -181 346 -181 346 -76 c 2,17,-1
 346 495 l 1,18,-1
 372 495 l 1,19,-1
 372 -81 l 2,20,21
 372 -137 372 -137 344 -170.5 c 128,-1,22
 316 -204 316 -204 260 -204 c 2,12,-1
EndSplineSet
EndChar

StartChar: Jcircumflex
Encoding: 308 308 245
Width: 550
GlyphClass: 2
Flags: W
LayerCount: 2
Fore
SplineSet
114.5 672 m 1,0,-1
 114.5 696 l 1,1,-1
 417.5 696 l 1,2,-1
 417.5 191 l 2,3,4
 417.5 94 417.5 94 363.5 44.5 c 128,-1,5
 309.5 -5 309.5 -5 219.5 -5 c 0,6,7
 183.5 -5 183.5 -5 142 9.5 c 128,-1,8
 100.5 24 100.5 24 73.5 46 c 1,9,-1
 89.5 66 l 1,10,11
 148.5 20 148.5 20 220.5 20 c 0,12,13
 391.5 20 391.5 20 391.5 210 c 2,14,-1
 391.5 672 l 1,15,-1
 114.5 672 l 1,0,-1
464.5 754 m 1,16,-1
 342.5 836 l 1,17,-1
 219.5 753 l 1,18,-1
 207.5 766 l 1,19,-1
 329.5 866 l 1,20,-1
 358.5 866 l 1,21,-1
 476.5 766 l 1,22,-1
 464.5 754 l 1,16,-1
EndSplineSet
EndChar

StartChar: jcircumflex
Encoding: 309 309 246
Width: 550
GlyphClass: 2
Flags: W
LayerCount: 2
Fore
SplineSet
302.5 495 m 1,0,-1
 302.5 -81 l 2,1,2
 302.5 -137 302.5 -137 274.5 -170.5 c 128,-1,3
 246.5 -204 246.5 -204 190.5 -204 c 2,4,-1
 137.5 -204 l 1,5,-1
 137.5 -181 l 1,6,-1
 190.5 -181 l 2,7,8
 277.5 -181 277.5 -181 277.5 -76 c 2,9,-1
 277.5 472 l 1,10,-1
 197.5 472 l 1,11,-1
 197.5 495 l 1,12,-1
 302.5 495 l 1,0,-1
400.5 569 m 1,13,-1
 278.5 661 l 1,14,-1
 155.5 568 l 1,15,-1
 143.5 581 l 1,16,-1
 265.5 691 l 1,17,-1
 294.5 691 l 1,18,-1
 412.5 581 l 1,19,-1
 400.5 569 l 1,13,-1
EndSplineSet
EndChar

StartChar: Kcommaaccent
Encoding: 310 310 247
Width: 550
GlyphClass: 2
Flags: W
LayerCount: 2
Fore
SplineSet
470.5 696 m 1,0,-1
 264.5 430 l 1,1,-1
 505.5 0 l 1,2,-1
 476.5 0 l 1,3,-1
 247.5 408 l 1,4,-1
 70.5 180 l 1,5,-1
 70.5 0 l 1,6,-1
 44.5 0 l 1,7,-1
 44.5 696 l 1,8,-1
 70.5 696 l 1,9,-1
 70.5 219 l 1,10,-1
 440.5 696 l 1,11,-1
 470.5 696 l 1,0,-1
229.5 -203 m 1,12,-1
 211.5 -203 l 1,13,-1
 235.5 -105 l 1,14,-1
 225.5 -105 l 1,15,-1
 225.5 -58 l 1,16,-1
 266.5 -58 l 1,17,-1
 266.5 -108 l 1,18,-1
 229.5 -203 l 1,12,-1
EndSplineSet
EndChar

StartChar: kcommaaccent
Encoding: 311 311 248
Width: 550
GlyphClass: 2
Flags: W
LayerCount: 2
Fore
SplineSet
429 495 m 1,0,-1
 259 309 l 1,1,-1
 463 0 l 1,2,-1
 436 0 l 1,3,-1
 242 291 l 1,4,-1
 112 149 l 1,5,-1
 112 0 l 1,6,-1
 87 0 l 1,7,-1
 87 721 l 1,8,-1
 112 721 l 1,9,-1
 112 183 l 1,10,-1
 399 495 l 1,11,-1
 429 495 l 1,0,-1
231 -203 m 1,12,-1
 213 -203 l 1,13,-1
 237 -105 l 1,14,-1
 227 -105 l 1,15,-1
 227 -58 l 1,16,-1
 268 -58 l 1,17,-1
 268 -108 l 1,18,-1
 231 -203 l 1,12,-1
EndSplineSet
EndChar

StartChar: kgreenlandic
Encoding: 312 312 249
Width: 550
GlyphClass: 2
Flags: W
LayerCount: 2
Fore
SplineSet
429 495 m 1,0,-1
 259 309 l 1,1,-1
 463 0 l 1,2,-1
 434 0 l 1,3,-1
 242 291 l 1,4,-1
 112 149 l 1,5,-1
 112 0 l 1,6,-1
 87 0 l 1,7,-1
 87 495 l 1,8,-1
 112 495 l 1,9,-1
 112 183 l 1,10,-1
 399 495 l 1,11,-1
 429 495 l 1,0,-1
EndSplineSet
EndChar

StartChar: Lacute
Encoding: 313 313 250
Width: 550
GlyphClass: 2
Flags: W
LayerCount: 2
Fore
SplineSet
91 0 m 1,0,-1
 91 696 l 1,1,-1
 117 696 l 1,2,-1
 117 24 l 1,3,-1
 474 24 l 1,4,-1
 474 0 l 1,5,-1
 91 0 l 1,0,-1
87 754 m 1,6,-1
 76 767 l 1,7,-1
 205 868 l 1,8,-1
 229 842 l 1,9,-1
 87 754 l 1,6,-1
EndSplineSet
EndChar

StartChar: lacute
Encoding: 314 314 251
Width: 550
GlyphClass: 2
Flags: W
LayerCount: 2
Fore
SplineSet
233.5 0 m 5,0,-1
 233.5 24 l 5,1,-1
 233.5 24 l 5,2,-1
 233.5 698 l 5,3,-1
 226.5 698 l 5,4,-1
 226.5 722 l 5,5,-1
 258.5 722 l 5,6,-1
 258.5 24 l 5,7,-1
 317.5 24 l 5,8,-1
 317.5 0 l 5,9,-1
 233.5 0 l 5,0,-1
209.5 764 m 1,10,-1
 198.5 777 l 1,11,-1
 327.5 878 l 1,12,-1
 351.5 852 l 1,13,-1
 209.5 764 l 1,10,-1
EndSplineSet
EndChar

StartChar: Lcommaaccent
Encoding: 315 315 252
Width: 550
GlyphClass: 2
Flags: W
LayerCount: 2
Fore
SplineSet
83.5 0 m 1,0,-1
 83.5 696 l 1,1,-1
 109.5 696 l 1,2,-1
 109.5 24 l 1,3,-1
 466.5 24 l 1,4,-1
 466.5 0 l 1,5,-1
 83.5 0 l 1,0,-1
255.5 -223 m 1,6,-1
 237.5 -223 l 1,7,-1
 261.5 -125 l 1,8,-1
 251.5 -125 l 1,9,-1
 251.5 -78 l 1,10,-1
 292.5 -78 l 1,11,-1
 292.5 -128 l 1,12,-1
 255.5 -223 l 1,6,-1
EndSplineSet
EndChar

StartChar: lcommaaccent
Encoding: 316 316 253
Width: 550
GlyphClass: 2
Flags: W
LayerCount: 2
Fore
SplineSet
240 0 m 5,0,-1
 240 24 l 5,1,-1
 240 24 l 5,2,-1
 240 698 l 5,3,-1
 233 698 l 5,4,-1
 233 722 l 5,5,-1
 265 722 l 5,6,-1
 265 24 l 5,7,-1
 324 24 l 5,8,-1
 324 0 l 5,9,-1
 240 0 l 5,0,-1
244 -223 m 1,10,-1
 226 -223 l 1,11,-1
 250 -125 l 1,12,-1
 240 -125 l 1,13,-1
 240 -78 l 1,14,-1
 281 -78 l 1,15,-1
 281 -128 l 1,16,-1
 244 -223 l 1,10,-1
EndSplineSet
EndChar

StartChar: Lcaron
Encoding: 317 317 254
Width: 550
GlyphClass: 2
Flags: W
LayerCount: 2
Fore
SplineSet
293.5 551 m 1,0,-1
 275.5 551 l 1,1,-1
 299.5 649 l 1,2,-1
 289.5 649 l 1,3,-1
 289.5 696 l 1,4,-1
 330.5 696 l 1,5,-1
 330.5 646 l 1,6,-1
 293.5 551 l 1,0,-1
83.5 0 m 1,7,-1
 83.5 696 l 1,8,-1
 109.5 696 l 1,9,-1
 109.5 24 l 1,10,-1
 466.5 24 l 1,11,-1
 466.5 0 l 1,12,-1
 83.5 0 l 1,7,-1
EndSplineSet
EndChar

StartChar: lcaron
Encoding: 318 318 255
Width: 550
GlyphClass: 2
Flags: W
LayerCount: 2
Fore
SplineSet
191.5 0 m 5,0,-1
 191.5 24 l 5,1,-1
 191.5 24 l 5,2,-1
 191.5 698 l 5,3,-1
 184.5 698 l 5,4,-1
 184.5 722 l 5,5,-1
 216.5 722 l 5,6,-1
 216.5 24 l 5,7,-1
 275.5 24 l 5,8,-1
 275.5 0 l 5,9,-1
 191.5 0 l 5,0,-1
328.5 571 m 1,10,-1
 310.5 571 l 1,11,-1
 334.5 669 l 1,12,-1
 324.5 669 l 1,13,-1
 324.5 716 l 1,14,-1
 365.5 716 l 1,15,-1
 365.5 666 l 1,16,-1
 328.5 571 l 1,10,-1
EndSplineSet
EndChar

StartChar: Ldot
Encoding: 319 319 256
Width: 550
GlyphClass: 2
Flags: W
LayerCount: 2
Fore
SplineSet
83.5 0 m 1,0,-1
 83.5 696 l 1,1,-1
 109.5 696 l 1,2,-1
 109.5 24 l 1,3,-1
 466.5 24 l 1,4,-1
 466.5 0 l 1,5,-1
 83.5 0 l 1,0,-1
289.5 341 m 1,6,-1
 289.5 377 l 1,7,-1
 327.5 377 l 1,8,-1
 327.5 341 l 1,9,-1
 289.5 341 l 1,6,-1
EndSplineSet
EndChar

StartChar: ldot
Encoding: 320 320 257
Width: 550
GlyphClass: 2
Flags: W
LayerCount: 2
Fore
SplineSet
210.5 0 m 5,0,-1
 210.5 24 l 5,1,-1
 210.5 24 l 5,2,-1
 210.5 698 l 5,3,-1
 203.5 698 l 5,4,-1
 203.5 722 l 5,5,-1
 235.5 722 l 5,6,-1
 235.5 24 l 5,7,-1
 294.5 24 l 5,8,-1
 294.5 0 l 5,9,-1
 210.5 0 l 5,0,-1
308.5 356 m 1,10,-1
 308.5 392 l 1,11,-1
 346.5 392 l 1,12,-1
 346.5 356 l 1,13,-1
 308.5 356 l 1,10,-1
EndSplineSet
EndChar

StartChar: Lslash
Encoding: 321 321 258
Width: 550
GlyphClass: 2
Flags: W
LayerCount: 2
Fore
SplineSet
143 0 m 1,0,-1
 143 292 l 1,1,-1
 36 231 l 1,2,-1
 24 251 l 1,3,-1
 143 319 l 1,4,-1
 143 696 l 1,5,-1
 169 696 l 1,6,-1
 169 334 l 1,7,-1
 284 401 l 1,8,-1
 296 381 l 1,9,-1
 169 307 l 1,10,-1
 169 24 l 1,11,-1
 526 24 l 1,12,-1
 526 0 l 1,13,-1
 143 0 l 1,0,-1
EndSplineSet
EndChar

StartChar: lslash
Encoding: 322 322 259
Width: 550
GlyphClass: 2
Flags: W
LayerCount: 2
Fore
SplineSet
253 326 m 1,0,1
 253 326 253 326 253 326 c 1,2,-1
 163 274 l 1,3,-1
 151 294 l 1,4,-1
 253 353 l 1,5,-1
 253 353 l 1,6,7
 253 353 253 353 253 353 c 1,8,-1
 253 698 l 1,9,-1
 246 698 l 1,10,-1
 246 722 l 1,11,-1
 278 722 l 1,12,-1
 278 367.365234375 l 1,13,-1
 278 367.365234375 l 1,14,15
 278 367.365234375 278 367.365234375 278 367.365234375 c 1,16,-1
 387 430 l 1,17,-1
 399 410 l 1,18,-1
 278 340 l 1,19,-1
 278 340 l 1,20,21
 278 340 278 340 278 340 c 1,22,-1
 278 24 l 1,23,-1
 337 24 l 1,24,-1
 337 0 l 1,25,-1
 253 0 l 1,26,-1
 253 24 l 1,27,-1
 253 326 l 1,28,-1
 253 326 l 1,0,1
EndSplineSet
EndChar

StartChar: Nacute
Encoding: 323 323 260
Width: 550
GlyphClass: 2
Flags: W
LayerCount: 2
Fore
SplineSet
453.5 0 m 1,0,-1
 93.5 653 l 1,1,-1
 93.5 0 l 1,2,-1
 67.5 0 l 1,3,-1
 67.5 696 l 1,4,-1
 96.5 696 l 1,5,-1
 456.5 42 l 1,6,-1
 456.5 696 l 1,7,-1
 482.5 696 l 1,8,-1
 482.5 0 l 1,9,-1
 453.5 0 l 1,0,-1
225.5 754 m 1,10,-1
 214.5 767 l 1,11,-1
 343.5 868 l 1,12,-1
 367.5 842 l 1,13,-1
 225.5 754 l 1,10,-1
EndSplineSet
EndChar

StartChar: nacute
Encoding: 324 324 261
Width: 550
GlyphClass: 2
Flags: W
LayerCount: 2
Fore
SplineSet
437.5 0 m 1,0,-1
 437.5 327 l 2,1,2
 437.5 401 437.5 401 397 439.5 c 128,-1,3
 356.5 478 356.5 478 283.5 478 c 0,4,5
 211.5 478 211.5 478 162 428 c 128,-1,6
 112.5 378 112.5 378 112.5 302 c 2,7,-1
 112.5 0 l 1,8,-1
 88.5 0 l 1,9,-1
 88.5 495 l 1,10,-1
 112.5 495 l 1,11,-1
 112.5 398 l 1,12,-1
 114.5 398 l 1,13,14
 137.5 449 137.5 449 186 474.5 c 128,-1,15
 234.5 500 234.5 500 285.5 500 c 0,16,17
 372.5 500 372.5 500 417 456.5 c 128,-1,18
 461.5 413 461.5 413 461.5 334 c 2,19,-1
 461.5 0 l 1,20,-1
 437.5 0 l 1,0,-1
254.5 579 m 1,21,-1
 239.5 587 l 1,22,-1
 321.5 729 l 1,23,-1
 353.5 713 l 1,24,-1
 254.5 579 l 1,21,-1
EndSplineSet
EndChar

StartChar: Ncommaaccent
Encoding: 325 325 262
Width: 550
GlyphClass: 2
Flags: W
LayerCount: 2
Fore
SplineSet
453.5 0 m 1,0,-1
 93.5 653 l 1,1,-1
 93.5 0 l 1,2,-1
 67.5 0 l 1,3,-1
 67.5 696 l 1,4,-1
 96.5 696 l 1,5,-1
 456.5 42 l 1,6,-1
 456.5 696 l 1,7,-1
 482.5 696 l 1,8,-1
 482.5 0 l 1,9,-1
 453.5 0 l 1,0,-1
254.5 -199 m 1,10,-1
 236.5 -199 l 1,11,-1
 260.5 -101 l 1,12,-1
 250.5 -101 l 1,13,-1
 250.5 -54 l 1,14,-1
 291.5 -54 l 1,15,-1
 291.5 -104 l 1,16,-1
 254.5 -199 l 1,10,-1
EndSplineSet
EndChar

StartChar: ncommaaccent
Encoding: 326 326 263
Width: 550
GlyphClass: 2
Flags: W
LayerCount: 2
Fore
SplineSet
437.5 0 m 1,0,-1
 437.5 327 l 2,1,2
 437.5 401 437.5 401 397 439.5 c 128,-1,3
 356.5 478 356.5 478 283.5 478 c 0,4,5
 211.5 478 211.5 478 162 428 c 128,-1,6
 112.5 378 112.5 378 112.5 302 c 2,7,-1
 112.5 0 l 1,8,-1
 88.5 0 l 1,9,-1
 88.5 495 l 1,10,-1
 112.5 495 l 1,11,-1
 112.5 398 l 1,12,-1
 114.5 398 l 1,13,14
 137.5 449 137.5 449 186 474.5 c 128,-1,15
 234.5 500 234.5 500 285.5 500 c 0,16,17
 372.5 500 372.5 500 417 456.5 c 128,-1,18
 461.5 413 461.5 413 461.5 334 c 2,19,-1
 461.5 0 l 1,20,-1
 437.5 0 l 1,0,-1
263.5 -199 m 1,21,-1
 245.5 -199 l 1,22,-1
 269.5 -101 l 1,23,-1
 259.5 -101 l 1,24,-1
 259.5 -54 l 1,25,-1
 300.5 -54 l 1,26,-1
 300.5 -104 l 1,27,-1
 263.5 -199 l 1,21,-1
EndSplineSet
EndChar

StartChar: Ncaron
Encoding: 327 327 264
Width: 550
GlyphClass: 2
Flags: W
LayerCount: 2
Fore
SplineSet
453.5 0 m 1,0,-1
 93.5 653 l 1,1,-1
 93.5 0 l 1,2,-1
 67.5 0 l 1,3,-1
 67.5 696 l 1,4,-1
 96.5 696 l 1,5,-1
 456.5 42 l 1,6,-1
 456.5 696 l 1,7,-1
 482.5 696 l 1,8,-1
 482.5 0 l 1,9,-1
 453.5 0 l 1,0,-1
282.5 778 m 1,10,-1
 404.5 860 l 1,11,-1
 416.5 848 l 1,12,-1
 298.5 748 l 1,13,-1
 269.5 748 l 1,14,-1
 147.5 848 l 1,15,-1
 159.5 861 l 1,16,-1
 282.5 778 l 1,10,-1
EndSplineSet
EndChar

StartChar: ncaron
Encoding: 328 328 265
Width: 550
GlyphClass: 2
Flags: W
LayerCount: 2
Fore
SplineSet
437.5 0 m 1,0,-1
 437.5 327 l 2,1,2
 437.5 401 437.5 401 397 439.5 c 128,-1,3
 356.5 478 356.5 478 283.5 478 c 0,4,5
 211.5 478 211.5 478 162 428 c 128,-1,6
 112.5 378 112.5 378 112.5 302 c 2,7,-1
 112.5 0 l 1,8,-1
 88.5 0 l 1,9,-1
 88.5 495 l 1,10,-1
 112.5 495 l 1,11,-1
 112.5 398 l 1,12,-1
 114.5 398 l 1,13,14
 137.5 449 137.5 449 186 474.5 c 128,-1,15
 234.5 500 234.5 500 285.5 500 c 0,16,17
 372.5 500 372.5 500 417 456.5 c 128,-1,18
 461.5 413 461.5 413 461.5 334 c 2,19,-1
 461.5 0 l 1,20,-1
 437.5 0 l 1,0,-1
268.5 599 m 1,21,-1
 390.5 691 l 1,22,-1
 402.5 679 l 1,23,-1
 284.5 569 l 1,24,-1
 255.5 569 l 1,25,-1
 133.5 679 l 1,26,-1
 145.5 692 l 1,27,-1
 268.5 599 l 1,21,-1
EndSplineSet
EndChar

